<?xml version="1.0" standalone="no"?>
<!DOCTYPE svg PUBLIC "-//W3C//DTD SVG 1.1//EN" "http://www.w3.org/Graphics/SVG/1.1/DTD/svg11.dtd" >
<svg xmlns="http://www.w3.org/2000/svg">
<metadata></metadata>
<defs>
<font id="matchbook_regularregular" horiz-adv-x="1857" >
<font-face units-per-em="2048" ascent="1536" descent="-512" />
<missing-glyph horiz-adv-x="552" />
<glyph unicode="&#xfb01;" horiz-adv-x="2467" d="M82 942v49q0 46 32 76.5t79 30.5h161q20 187 169.5 287t391.5 100q232 0 369 -83.5t137 -207.5q0 -123 -186 -123q-89 0 -133.5 27t-44.5 86q0 58 -38 86t-97 28q-72 0 -107 -45t-35 -108v-47h166q47 0 79 -30.5t32 -76.5v-49q0 -54 -28.5 -82.5t-80.5 -28.5h-164v-456 q1 -42 12.5 -66t47.5 -39.5t102 -15.5q52 0 81.5 -29t29.5 -82v-37q0 -46 -32 -76t-79 -30h-753q-47 0 -78 30t-31 76v37q0 53 28.5 82t80.5 29q97 0 128.5 28.5t34.5 92.5v456h-163q-53 0 -82 28.5t-29 82.5zM1452 109v36q0 53 29 82t82 29q66 0 102 15.5t47 39t12 64.5 v397q-1 42 -12 66t-47 39.5t-102 15.5q-53 0 -82 29.5t-29 81.5v36q0 46 32 76.5t79 30.5h485q46 0 76 -32t30 -79v-661q2 -62 34 -90.5t128 -28.5q52 0 81.5 -29t29.5 -82v-36q0 -46 -32 -76.5t-79 -30.5h-753q-47 0 -79 30.5t-32 76.5zM1622 1403q0 78 76.5 120t195.5 42 t196 -42t77 -120q0 -76 -77.5 -118t-195.5 -42t-195 42t-77 118z" />
<glyph unicode="&#xfb02;" horiz-adv-x="2498" d="M82 942v49q0 46 32 76.5t79 30.5h161q20 187 169.5 287t391.5 100q232 0 369 -83.5t137 -207.5q0 -123 -186 -123q-89 0 -133.5 27t-44.5 86q0 58 -38 86t-97 28q-72 0 -107 -45t-35 -108v-47h166q47 0 79 -30.5t32 -76.5v-49q0 -54 -28.5 -82.5t-80.5 -28.5h-164v-456 q1 -42 12.5 -66t47.5 -39.5t102 -15.5q52 0 81.5 -29t29.5 -82v-37q0 -46 -32 -76t-79 -30h-753q-47 0 -78 30t-31 76v37q0 53 28.5 82t80.5 29q97 0 128.5 28.5t34.5 92.5v456h-163q-53 0 -82 28.5t-29 82.5zM1483 109v36q0 53 29 82t81 29q96 0 128 28.5t34 90.5v735 q-2 62 -34 90.5t-128 28.5q-53 0 -81.5 28.5t-28.5 81.5v37q0 46 31.5 76.5t78.5 30.5h486q45 0 74.5 -31.5t29.5 -79.5l2 -997q2 -62 34 -90.5t128 -28.5q53 0 82 -29t29 -82v-36q0 -46 -32 -76.5t-79 -30.5h-754q-47 0 -78.5 30.5t-31.5 76.5z" />
<glyph horiz-adv-x="0" />
<glyph horiz-adv-x="682" />
<glyph horiz-adv-x="552" />
<glyph horiz-adv-x="552" />
<glyph unicode="&#xd;" horiz-adv-x="552" />
<glyph unicode=" "  horiz-adv-x="552" />
<glyph unicode="&#x09;" horiz-adv-x="552" />
<glyph unicode="&#xa0;" horiz-adv-x="552" />
<glyph unicode="!" horiz-adv-x="571" d="M72 127q0 78 60 120t153 42h2q93 0 153 -42t60 -120q0 -76 -60.5 -118t-152.5 -42h-2q-92 0 -152.5 42t-60.5 118zM84 1184q0 140 61 218.5t138 78.5q78 0 139 -78t61 -219q0 -194 -135 -695q-5 -25 -10 -38.5t-19 -27t-36 -13.5q-30 0 -43 21t-21 58q-135 501 -135 695z " />
<glyph unicode="&#x22;" horiz-adv-x="1087" d="M86 1321q0 79 59.5 122t153.5 40t149.5 -56.5t65.5 -154.5q5 -49 -1 -102t-26.5 -107t-53.5 -96.5t-88 -69.5t-124 -27q-28 0 -43.5 16t-15.5 44v20q0 51 55 60q15 3 31.5 12.5t34 26.5t29 46t12.5 66h-25q-92 0 -152.5 42t-60.5 118zM575 1321q0 79 59.5 122t153.5 40 t149 -56.5t64 -154.5q5 -49 -0.5 -101.5t-26 -107t-53 -97t-87 -69.5t-123.5 -27q-29 0 -44.5 16t-15.5 44v20q0 50 56 60q35 9 69 45.5t35 105.5h-23q-92 0 -152.5 42t-60.5 118z" />
<glyph unicode="#" horiz-adv-x="1875" d="M41 440v52q0 46 32 76t79 30h274l92 205h-158q-54 0 -82 28.5t-28 81.5v50q0 46 30.5 76t79.5 30h277l119 266q25 53 57 76t84 23h88q46 0 64 -29t-2 -72l-117 -264h332l118 266q25 53 57.5 76t84.5 23h88q46 0 63.5 -29t-2.5 -72l-117 -264h170q53 0 82 -28.5t29 -82.5 v-49q0 -46 -32 -76t-79 -30h-288l-93 -205h173q54 0 82 -29t28 -82v-49q0 -47 -30.5 -76.5t-79.5 -29.5h-291l-105 -234q-25 -53 -57 -75.5t-84 -22.5h-88q-46 0 -64 28.5t2 69.5l103 234h-334l-102 -234q-25 -53 -57.5 -75.5t-84.5 -22.5h-88q-46 0 -63.5 28.5t2.5 69.5 l102 234h-155q-53 0 -82 28t-29 80zM719 598h334l90 205h-334z" />
<glyph unicode="$" horiz-adv-x="1806" d="M90 1034q0 130 89 228.5t241 152.5t350 64v84q0 53 29.5 81.5t83.5 28.5h47q48 0 78 -30.5t30 -79.5v-88q271 -25 440 -123.5t169 -233.5q0 -37 -13 -63q-37 -76 -198 -76q-199 0 -199 117q0 37 -54 73t-147 54v-342q103 -21 189 -45t181 -65.5t160 -92t107.5 -125 t42.5 -162.5q0 -189 -181.5 -299t-496.5 -129v-100q0 -53 -28 -82t-82 -29h-49q-48 0 -78.5 31t-30.5 80v102q-306 23 -491 133t-185 254q0 42 10 62q37 75 201 75q100 0 149.5 -26.5t49.5 -87.5q0 -49 65.5 -95t200.5 -63v365q-5 1 -16.5 3t-16.5 3q-151 26 -262.5 61 t-201.5 87t-136.5 127t-46.5 171zM492 1047q11 -50 76 -75t202 -46v307q-141 -17 -217 -68.5t-61 -117.5zM1036 213q131 13 200 56.5t60 101.5q-10 87 -260 153v-311z" />
<glyph unicode="%" horiz-adv-x="2799" d="M92 1047q0 223 182 342q63 43 170.5 68.5t219.5 25.5t219 -25t170 -69q182 -119 182 -342q0 -77 -38 -153t-107.5 -139.5t-181 -103t-244.5 -39.5t-244.5 39.5t-181.5 103t-108 139.5t-38 153zM387 1055q0 -75 42.5 -132.5t104.5 -84.5t130 -27t129.5 27t104 84.5 t42.5 132.5q0 78 -42 136.5t-103.5 86t-130.5 27.5t-131 -27.5t-104 -86t-42 -136.5zM804 40.5q-19 40.5 13 84.5l869 1264q37 52 70.5 73t96.5 21h74q56 0 74.5 -40t-12.5 -83l-871 -1266q-35 -52 -69 -73t-97 -21h-73q-56 0 -75 40.5zM1567 401q0 224 180 342 q63 44 170.5 69.5t218.5 25.5q112 0 219 -25.5t172 -69.5q180 -118 180 -342q0 -77 -38 -153t-107.5 -139t-181 -102.5t-244.5 -39.5t-244 39.5t-180 102.5t-107 139t-38 153zM1860 410q0 -75 42.5 -133t104 -85.5t129.5 -27.5t130 27.5t104.5 85.5t42.5 133q0 78 -42 136.5 t-104 85.5t-131 27q-108 0 -192 -67t-84 -182z" />
<glyph unicode="&#x26;" horiz-adv-x="2476" d="M98 430q0 173 152 298t430 167q-18 82 -18 135q0 207 118 326.5t316 124.5q179 4 299.5 -92.5t120.5 -243.5q0 -144 -114.5 -266t-311.5 -156q134 -237 331 -367q115 68 199 164t115 176q12 38 1.5 51t-42.5 13h-2q-52 0 -80.5 28.5t-28.5 81.5v37q0 46 31 76.5t78 30.5 h534q49 0 80 -30.5t31 -76.5v-37q0 -52 -29 -81t-82 -29q-85 0 -122.5 -17t-67.5 -75q-136 -262 -328 -426q50 -9 104 -9q162 0 250 95q37 37 86 37h166q48 0 67 -30.5t-3 -76.5q-27 -51 -69 -96.5t-109.5 -91.5t-171 -73.5t-228.5 -27.5q-228 0 -432 80 q-123 -47 -238 -63.5t-282 -16.5q-150 0 -285 31t-239 88.5t-165 146t-61 195.5zM532 461q0 -69 44.5 -121t118.5 -78.5t170.5 -34.5t201.5 11q-200 181 -311 436q-107 -14 -165.5 -75.5t-58.5 -137.5zM971 1087q-3 -63 24 -155q107 28 161 89.5t42 127.5q-6 36 -36.5 57.5 t-67.5 18.5q-50 -3 -84.5 -40.5t-38.5 -97.5z" />
<glyph unicode="'" horiz-adv-x="598" d="M86 1321q0 79 59.5 122t153.5 40t149.5 -56.5t65.5 -154.5q4 -49 -2 -101.5t-26.5 -107t-53.5 -97t-87.5 -69.5t-123.5 -27q-28 0 -43.5 16t-15.5 44v20q0 51 55 60q37 8 71 45t34 106h-23q-92 0 -152.5 42t-60.5 118z" />
<glyph unicode="(" horiz-adv-x="919" d="M41 674q0 146 35 275t90 220t128.5 167t146 124t146.5 82.5t126 49.5t88 20q34 4 56 -15t22 -47q0 -21 -12.5 -37.5t-30.5 -21.5q-72 -22 -138.5 -65.5t-127 -114.5t-105.5 -161t-71.5 -213t-26.5 -263q0 -173 40 -319t108 -244.5t149 -162t172 -91.5q18 -5 30.5 -22 t12.5 -38q0 -28 -22 -46.5t-56 -14.5q-36 5 -88 20t-126 49.5t-146.5 82.5t-146 124t-128.5 167t-90 220t-35 275z" />
<glyph unicode=")" horiz-adv-x="919" d="M41 -203q0 22 12 38.5t31 21.5q71 22 137.5 66t127.5 115t106 161t71.5 212.5t26.5 262.5t-27 263t-71.5 213t-105.5 161t-127.5 114.5t-137.5 65.5q-19 5 -31 21t-12 38q0 28 21.5 47t56.5 15q36 -5 88 -20t126 -49.5t146.5 -82.5t146 -124t128.5 -167t90 -220t35 -275 t-35 -275t-90 -220t-128.5 -167t-146 -124t-146.5 -82.5t-126 -49.5t-88 -20q-35 -4 -56.5 14.5t-21.5 46.5z" />
<glyph unicode="*" horiz-adv-x="886" d="M84 967q0 44 49 71l94 56l-94 53q-49 27 -49 72q0 20 16 49l21 35q29 50 69 47q26 0 50 -15l96 -55v111q0 42 23 65t65 23h41q88 0 88 -88v-111l96 55q24 15 49 15q45 0 72 -47l21 -35q14 -25 14 -51q0 -43 -47 -70l-94 -53l94 -56q47 -27 47 -71q0 -27 -14 -49l-21 -35 q-27 -49 -72 -49q-23 0 -49 16l-96 55v-110q0 -42 -23 -65t-65 -23h-41q-41 0 -64.5 23.5t-23.5 64.5v110l-96 -55q-26 -16 -50 -16q-41 0 -69 49l-21 35q-16 26 -16 49z" />
<glyph unicode="+" horiz-adv-x="1234" d="M72 643v51q0 46 30.5 76.5t79.5 30.5h301v276q0 53 29.5 82t81.5 29h49q47 0 77 -31.5t30 -79.5v-276h303q52 0 81 -29t29 -82v-51q0 -46 -31.5 -76.5t-78.5 -30.5h-303l2 -276q0 -52 -29 -81.5t-82 -29.5h-51q-46 0 -76.5 32t-30.5 79v276h-301q-54 0 -82 29t-28 82z " />
<glyph unicode="," horiz-adv-x="618" d="M96 127q0 79 59.5 121t153.5 39q93 -3 148 -56t65 -153q6 -63 -6 -130t-43 -129.5t-94 -102.5t-148 -40q-59 0 -59 60v20q0 51 53 60q36 6 71 44t36 107h-23q-93 0 -153 41.5t-60 118.5z" />
<glyph unicode="-" horiz-adv-x="851" d="M76 643v51q0 46 30.5 76.5t77.5 30.5h482q52 0 81 -29t29 -82v-51q0 -46 -31.5 -76.5t-78.5 -30.5h-482q-52 0 -80 29t-28 82z" />
<glyph unicode="." horiz-adv-x="600" d="M86 127q0 78 60 119t153 41h2q93 0 153 -41t60 -119q0 -76 -60.5 -118t-152.5 -42h-2q-92 0 -152.5 42t-60.5 118z" />
<glyph unicode="/" horiz-adv-x="1542" d="M56.5 -150.5q-18.5 39.5 13.5 82.5l1101 1606q35 51 69.5 71.5t98.5 20.5h74q56 0 74.5 -40t-12.5 -83l-1104 -1605q-35 -51 -68.5 -71.5t-97.5 -20.5h-74q-56 0 -74.5 39.5z" />
<glyph unicode="0" horiz-adv-x="2131" d="M133 725q0 87 24 174.5t71.5 173t125 159t178 130t238 89t297.5 32.5q190 0 348.5 -46.5t264.5 -122.5t179.5 -175.5t106.5 -204t33 -209.5q0 -74 -16.5 -148.5t-52.5 -149t-89 -142t-129.5 -125.5t-169.5 -100.5t-215 -66.5t-260 -24q-192 0 -351.5 46.5t-265 122 t-179 175.5t-106 203.5t-32.5 208.5zM594 739q0 -98 28.5 -180.5t75.5 -137.5t109 -93.5t127.5 -56t132.5 -17.5q85 0 166 29t151 85t113 152t43 217q0 98 -28.5 180t-75.5 137.5t-109 94.5t-127.5 56.5t-132.5 17.5t-132.5 -17.5t-127.5 -56.5t-109 -94t-75.5 -137 t-28.5 -179z" />
<glyph unicode="1" horiz-adv-x="1325" d="M66 106v76q0 53 28 81t82 28q60 1 105.5 5t76 9t50.5 16.5t30.5 20t15.5 27.5t6 30.5t1 36.5v563q0 39 -6.5 61.5t-30 43.5t-72.5 30t-129 9q-51 0 -79.5 28.5t-28.5 81.5v74q0 46 31.5 76.5t78.5 30.5h539q47 0 77.5 -30.5t30.5 -76.5v-891q0 -25 1 -36.5t6 -30.5 t15.5 -27.5t31 -20t51 -16.5t76 -9t106.5 -5q53 0 82 -28.5t29 -80.5v-76q0 -46 -32 -76t-79 -30h-983q-49 0 -79.5 30t-30.5 76z" />
<glyph unicode="2" horiz-adv-x="1927" d="M96 106q0 149 42.5 269.5t110.5 200t164.5 137.5t194 88.5t209.5 46.5q48 7 122 17t111.5 15.5t90.5 15t80 19t56.5 24t44 33.5t19.5 44q18 92 -80.5 156.5t-289.5 64.5q-190 0 -282.5 -41.5t-92.5 -110.5q0 -124 -244 -124q-235 0 -235 137q0 54 30 107.5t96.5 104 t163 89t240.5 61.5t318 23q417 0 635 -132.5t212 -363.5q-2 -64 -24.5 -117.5t-58.5 -92.5t-92 -71.5t-114 -54t-137 -39.5t-149 -29t-160 -22q-82 -9 -141 -18t-126.5 -23.5t-114.5 -34t-89.5 -46t-67.5 -63.5t-34 -83h885q68 0 90 29t22 88q0 52 29 80t82 28h74 q46 0 76 -30.5t30 -77.5l2 -304q0 -46 -32 -76t-79 -30h-1476q-47 0 -79 30t-32 76z" />
<glyph unicode="3" horiz-adv-x="2004" d="M100 360q0 129 230 129q107 0 174 -30t67 -92q0 -64 116.5 -101t303.5 -37q191 0 303.5 51t112.5 146q0 45 -27.5 79t-69.5 53.5t-101.5 31.5t-112.5 16t-113 4h-283q-47 0 -78.5 30.5t-31.5 76.5v33q0 52 29 81t81 29h306q69 0 127.5 8.5t110.5 28.5t82 57t30 88 q0 98 -96 150.5t-279 52.5q-180 0 -276.5 -42t-96.5 -109q0 -57 -65.5 -83t-171.5 -26q-228 0 -228 129q0 51 27.5 101.5t90.5 99t156 85.5t235 60t315 23q212 0 380 -34t274.5 -94t162 -138t55.5 -168q0 -111 -74.5 -190t-189.5 -126q65 -24 118.5 -55t100 -73t72.5 -96.5 t26 -117.5q0 -186 -234.5 -304t-662.5 -118q-213 0 -387 33.5t-282.5 89t-167 125t-58.5 143.5z" />
<glyph unicode="4" horiz-adv-x="2037" d="M20 639v35q0 28 11.5 49.5t24 33t38.5 29.5l852 578q57 39 101 54.5t92 15.5h293q47 0 78.5 -30.5t31.5 -76.5v-543h273q53 0 81.5 -29t28.5 -81v-35q0 -46 -31.5 -76.5t-78.5 -30.5h-275q0 -122 2 -124q0 -25 4 -40t19 -31t44 -24.5t80 -14.5t126 -7q53 0 81.5 -28.5 t28.5 -80.5v-76q0 -46 -31.5 -76t-78.5 -30h-984q-49 0 -79.5 30t-30.5 76v76q0 53 28 81t82 28q76 1 127 7t80 14.5t43.5 25t18.5 31.5t4 41v122h-973q-47 0 -79 30.5t-32 76.5zM604 784h500v340z" />
<glyph unicode="5" horiz-adv-x="2002" d="M100 360q0 129 222 129q103 0 164 -29.5t61 -92.5t123.5 -100.5t312.5 -37.5q188 0 304 64.5t120 175.5q6 120 -105.5 192.5t-334.5 59.5q-98 -5 -175 -25t-115.5 -40.5t-89.5 -37t-106 -16.5h-217q-46 0 -76 32t-30 79v610q0 54 28.5 82.5t79.5 28.5h1383 q53 0 81.5 -28.5t28.5 -82.5v-59q0 -45 -31 -75t-79 -32h-1106v-293q9 5 26 13t76.5 29t125.5 37t171 29t215 13q219 0 384 -58.5t257 -172.5t92 -271q0 -105 -45.5 -190.5t-126 -145t-193.5 -100t-245.5 -59.5t-284.5 -19q-217 0 -391.5 33.5t-282 89t-164.5 124.5t-57 144 z" />
<glyph unicode="6" horiz-adv-x="2074" d="M123 713q0 150 50 276.5t137.5 216.5t206 153t255.5 93.5t287 30.5q177 0 321.5 -23t239 -59.5t159 -85.5t92 -99.5t27.5 -101.5q0 -129 -225 -129q-223 0 -223 109q0 68 -109 114t-290 37q-88 -4 -163 -22.5t-126.5 -46t-93 -61.5t-66 -70.5t-42.5 -73t-25 -69 t-11 -57.5t-4 -39v-15q8 6 23.5 16t73.5 35t126 44.5t182.5 35.5t241.5 16q174 0 316 -29.5t247.5 -87t163.5 -149.5t58 -211q0 -226 -245.5 -359t-668.5 -133q-428 0 -671.5 195t-243.5 549zM596 451q0 -106 122.5 -164t321.5 -58t321 58t122 164q0 107 -121.5 165 t-321.5 58t-322 -58t-122 -165z" />
<glyph unicode="7" horiz-adv-x="1771" d="M72 1026v301q0 46 30.5 76.5t79.5 30.5h1409q47 0 79 -30.5t32 -76.5v-67q0 -46 -23.5 -78.5t-97.5 -87.5q-52 -38 -105 -84.5t-136 -140.5t-150 -198.5t-130 -259.5t-93 -323q-7 -40 -37.5 -64t-71.5 -24h-233q-47 0 -78 30.5t-31 75.5t20 116t72 177.5t127 222 t199 256.5t276 273h-735q-113 0 -113 -125q0 -53 -28 -82t-80 -29h-76q-46 0 -76 32t-30 79z" />
<glyph unicode="8" horiz-adv-x="1998" d="M102 401q0 219 316 332q-74 31 -129.5 71.5t-95 104.5t-39.5 140q0 89 54 166t157 137t266.5 94.5t367.5 34.5q403 0 624.5 -122.5t221.5 -309.5q0 -58 -21.5 -108.5t-60 -89t-83 -67t-97.5 -51.5q313 -112 313 -332q0 -128 -120.5 -227.5t-324 -152t-452.5 -52.5 t-452.5 52.5t-324 152t-120.5 227.5zM588 426q0 -95 111 -146t300 -51t301.5 51t112.5 146q0 45 -27.5 79t-69 53.5t-99 31.5t-109.5 16t-109 4q-72 0 -137.5 -8t-130.5 -26.5t-104 -57t-39 -92.5zM639 1059q0 -47 30 -81t82.5 -52.5t113.5 -26.5t134 -8t134 8t114 26.5 t83 52.5t30 81q0 89 -95 137.5t-266 48.5q-170 0 -265 -49t-95 -137z" />
<glyph unicode="9" horiz-adv-x="2054" d="M102 979q0 225 238 364.5t653 139.5q284 0 494.5 -86.5t327 -256t116.5 -403.5q0 -151 -46.5 -276.5t-130 -215.5t-200 -152.5t-257.5 -93t-302 -30.5q-177 0 -321.5 22.5t-239 59.5t-159 85.5t-92 98.5t-27.5 101q0 71 66 104t171 33q103 0 169.5 -29.5t66.5 -87.5 q0 -69 97.5 -112t277.5 -39q87 2 161 18.5t125.5 43.5t93 61t66.5 71.5t43.5 74.5t26.5 70t12.5 59t5.5 41v15q-8 -7 -24 -17.5t-74 -37.5t-126.5 -47t-183.5 -34.5t-243 -10.5q-785 28 -785 467zM571 999q0 -107 121.5 -165t321.5 -58h2q200 0 321 58t121 165 q0 106 -121.5 164t-320.5 58h-2q-199 0 -321 -58t-122 -164z" />
<glyph unicode=":" horiz-adv-x="638" d="M106 127q0 78 59.5 119t153.5 41t153.5 -41t59.5 -119q0 -77 -60 -118.5t-153 -41.5t-153 41.5t-60 118.5zM106 985q0 77 60 118.5t153 41.5t153 -41.5t60 -118.5t-60 -118.5t-153 -41.5t-153 41.5t-60 118.5z" />
<glyph unicode=";" horiz-adv-x="643" d="M106 127q0 79 59.5 121t153.5 39t150 -56t66 -153q6 -64 -6.5 -130.5t-44 -129t-94.5 -102.5t-148 -40q-28 0 -44 16t-16 44v20q0 50 56 60q36 6 70 44t34 107h-23q-92 0 -152.5 42t-60.5 118zM109 985q0 77 60 118.5t153 41.5q92 0 152.5 -42t60.5 -118t-60.5 -118 t-152.5 -42q-93 0 -153 41.5t-60 118.5z" />
<glyph unicode="&#x3c;" horiz-adv-x="1206" d="M92 684v68q0 37 12 57t46 37l858 436q40 22 73 7t33 -58v-66q0 -55 -12 -75t-62 -46l-643 -325l643 -328q50 -26 62 -46t12 -75v-65q0 -43 -33 -58t-73 7l-858 436q-34 17 -46 37t-12 57z" />
<glyph unicode="=" horiz-adv-x="1275" d="M92 422v49q0 47 31.5 77t79.5 30h870q53 0 82 -28.5t29 -80.5v-51q0 -46 -32 -76.5t-79 -30.5h-870q-53 0 -82 29.5t-29 81.5zM92 866v49q0 46 32 76.5t79 30.5h870q53 0 82 -28.5t29 -82.5v-49q0 -46 -32 -76t-79 -30h-870q-53 0 -82 29t-29 81z" />
<glyph unicode="&#x3e;" horiz-adv-x="1206" d="M92 205v65q0 55 11.5 75t60.5 46l643 328l-643 325q-49 26 -60.5 46t-11.5 75v66q0 44 32.5 58.5t72.5 -7.5l858 -436q34 -17 46.5 -37.5t12.5 -56.5v-68q0 -36 -12.5 -56.5t-46.5 -37.5l-858 -436q-40 -22 -72.5 -7.5t-32.5 58.5z" />
<glyph unicode="?" horiz-adv-x="1447" d="M92 1112q0 52 20 102t68 99.5t119 86t183 59t251 22.5q176 0 308.5 -32.5t211 -90.5t114.5 -134t28 -167q-5 -55 -32.5 -100.5t-68.5 -75t-92 -57.5t-103 -48t-101.5 -46t-87.5 -53t-61.5 -67.5t-23.5 -89.5q0 -53 -28 -81.5t-82 -28.5h-49q-46 0 -76.5 31.5t-30.5 78.5 q0 74 25 134.5t64.5 100.5t87.5 73.5t96.5 60.5t88 52.5t64.5 58.5t25 71q0 83 -72 128.5t-180 45.5q-104 0 -177 -43.5t-73 -107.5q0 -109 -213 -109q-101 0 -152 28.5t-51 98.5zM479 127q0 78 60 119t153 41h2q93 0 153 -41t60 -119q0 -76 -60.5 -118t-152.5 -42h-2 q-92 0 -152.5 42t-60.5 118z" />
<glyph unicode="@" horiz-adv-x="2826" d="M92 590q0 103 24 205.5t75 203.5t126.5 191t184 167.5t240.5 133t304 87.5t367 32t367 -32t304 -87.5t240.5 -133t184 -167.5t126.5 -191t75 -203.5t24 -205.5q0 -154 -61 -275.5t-180.5 -192.5t-280.5 -71q-267 0 -424 203q-106 -113 -282.5 -171.5t-379.5 -21.5 q-218 40 -335 192.5t-117 360.5q0 203 121.5 347t328.5 190q163 34 318 -5.5t254 -115.5q115 107 248 107q46 0 72 -29.5t26 -75.5v-561q0 -133 85 -190q71 -47 160 -15q95 34 144 140q37 80 37 184q0 100 -27 199.5t-81 195t-141.5 177t-201 143.5t-269 97.5t-335.5 35.5 q-156 0 -293 -26.5t-242.5 -73t-193 -110.5t-147.5 -139t-101.5 -159t-60.5 -169t-19 -171q0 -85 19 -170t60 -169t100.5 -158.5t146.5 -138.5t193 -110.5t243.5 -73t294.5 -26.5q58 0 114 3.5t100.5 9t89 14t75 15.5t63.5 16.5t48.5 15t36.5 13t22 7.5q28 11 57 -3t41 -46 l6 -16q14 -37 0.5 -65.5t-51.5 -41.5q-9 -4 -26.5 -10t-76.5 -22.5t-124 -29t-167 -22.5t-208 -10q-196 0 -368.5 32t-304.5 88t-241 133.5t-183.5 167t-125.5 190.5t-74.5 202.5t-23.5 204.5zM1081 606q0 -87 30.5 -153t81 -102.5t114.5 -50t133 -1.5q83 12 145 62t62 106 v278q0 56 -62.5 107t-144.5 61q-94 13 -174 -14.5t-132.5 -103t-52.5 -189.5z" />
<glyph unicode="A" horiz-adv-x="2639" d="M31 106v76q0 53 28 81t80 28q127 0 182.5 25t116.5 116l619 926q31 47 55 62.5t74 15.5h239q44 0 66.5 -15t56.5 -63l664 -922q21 -28 34.5 -43.5t40 -38t53 -34t68 -20.5t91.5 -9q53 0 81.5 -28.5t28.5 -80.5v-76q0 -46 -31.5 -76t-78.5 -30h-1057q-49 0 -80 30t-31 76 v76q0 52 28.5 80.5t80.5 28.5h194q28 0 48 9q18 8 26 31q2 5 2 10q0 21 -22 52l-80 123h-738q-80 -131 -84 -139q-21 -28 -17.5 -57t42.5 -29h209q52 0 80 -28t28 -81v-76q0 -46 -30.5 -76t-77.5 -30h-879q-49 0 -79.5 30t-30.5 76zM1042 758h381q-38 50 -79 104.5t-74.5 99 t-42.5 56.5z" />
<glyph unicode="B" horiz-adv-x="2344" d="M51 106v74q0 54 29 82.5t82 28.5q53 1 94.5 3.5t71.5 8.5t51 11t34 16.5t20.5 19.5t11 25.5t4 28t0.5 32.5v561q0 25 -1 36.5t-6 30.5t-15.5 27.5t-31 20t-51 17t-76 9.5t-106.5 5q-53 0 -82 28t-29 80v76q0 46 32 76.5t79 30.5h1118q206 0 365 -23.5t253 -60.5t154 -89 t81 -101t21 -103q0 -163 -184 -260q78 -29 136 -73t90.5 -93.5t47.5 -98.5t15 -96q0 -53 -10.5 -97.5t-38.5 -90t-73 -81.5t-117.5 -68t-168 -53t-228.5 -33.5t-296 -12.5h-1165q-47 0 -79 30t-32 76zM907 362q0 -6 1 -11t8 -16t20 -18.5t41 -13.5t67 -6h369q142 0 224.5 38 t82.5 114q0 75 -84.5 115t-222.5 40h-369q-39 0 -67 -6.5t-41 -14t-20 -19t-8 -16.5t-1 -11v-175zM907 907q0 -5 1 -9.5t7.5 -15t18.5 -17.5t38 -13t62 -6h344q117 0 195 35.5t78 109.5q0 52 -41 86t-99.5 47t-132.5 13h-344q-36 0 -62 -5.5t-38 -13t-18.5 -17.5t-7.5 -14.5 t-1 -9.5v-170z" />
<glyph unicode="C" horiz-adv-x="2140" d="M102 725q0 140 55 262.5t149.5 211t219.5 153t266.5 96t288.5 31.5q91 0 176.5 -11t150 -29t121 -39.5t95 -42.5t66 -39t40.5 -29l13 -11l-2 43v9q0 46 27 74q30 30 83 30h74q46 0 76.5 -33t30.5 -80v-387q0 -49 -30.5 -81t-76.5 -32h-63q-38 0 -64.5 6.5t-44 23 t-27.5 31t-27 43.5t-30 48q-68 95 -202 149t-306 54q-79 0 -158.5 -16.5t-154.5 -51.5t-133 -85t-93.5 -123t-35.5 -159q0 -89 34.5 -165.5t93.5 -131t136.5 -93.5t164.5 -58t177 -19q78 0 149 11t116 23t101 38.5t76.5 39t69.5 44.5q11 7 16 10q21 13 33 19t36.5 14t51 4 t55.5 -18q74 -41 82 -45q44 -26 56 -68q3 -10 3 -21q0 -31 -28 -63q-79 -81 -186 -140.5t-222.5 -92t-225.5 -47.5t-218 -15q-169 0 -325.5 32.5t-289 97t-231 154.5t-154 212t-55.5 262z" />
<glyph unicode="D" horiz-adv-x="2359" d="M51 106v76q0 52 29 80.5t82 28.5q53 1 94 3.5t70.5 8.5t50.5 11.5t34 17t20.5 19.5t10.5 25.5t3.5 27.5t0.5 32v563q0 20 -0.5 29t-2.5 25t-7 23t-14.5 18.5t-24 16.5t-36 12.5t-50 10.5t-66.5 5.5t-85 3.5q-52 0 -80.5 28.5t-28.5 81.5v74q0 46 32 76.5t79 30.5h1210 q169 0 315.5 -42t249 -112.5t176.5 -163t109 -193.5t35 -204q0 -126 -46 -239.5t-126 -200t-185 -150t-227.5 -96.5t-249.5 -33h-1261q-47 0 -79 30t-32 76zM907 397q0 -12 1.5 -20t11 -23.5t27 -25t54.5 -17.5t89 -8h157q73 0 142 13.5t135.5 44.5t116 77.5t80 117.5 t30.5 159q0 89 -28 160.5t-75.5 118.5t-113 78t-136.5 44.5t-151 13.5h-157q-52 0 -89 -7.5t-54.5 -17t-27 -25t-11 -24t-1.5 -20.5v-639z" />
<glyph unicode="E" horiz-adv-x="2406" d="M51 106v76q0 52 29 80.5t82 28.5q53 1 94 3.5t70.5 8.5t50.5 11.5t34 17t20.5 19.5t10.5 25.5t3.5 27.5t0.5 32v563q0 20 -0.5 29t-2.5 25t-7 23t-14.5 18.5t-24 16.5t-36 12.5t-50 10.5t-66.5 5.5t-85 3.5q-52 0 -80.5 28.5t-28.5 81.5v74q0 46 32 76.5t79 30.5h1966 q47 0 77.5 -30.5t30.5 -76.5v-301q0 -49 -30 -80t-76 -31h-74q-54 0 -82 28t-28 81q0 59 -23 88t-90 29h-793q-72 0 -101.5 -36t-29.5 -106v-159h389q42 0 77.5 17t35.5 50q0 52 29 80.5t82 28.5h73q46 0 76.5 -31t30.5 -80v-377q0 -47 -30.5 -77.5t-76.5 -30.5h-73 q-53 0 -82 28t-29 80q0 36 -36.5 52t-76.5 16h-389v-160q0 -75 23 -110t90 -35h836q67 0 89.5 29.5t22.5 89.5q0 51 28.5 79.5t82.5 28.5h73q46 0 76.5 -31.5t30.5 -78.5l2 -302q0 -46 -32 -76t-79 -30h-1990q-47 0 -79 30t-32 76z" />
<glyph unicode="F" horiz-adv-x="2338" d="M51 106v76q0 52 28.5 80.5t80.5 28.5q53 1 94.5 3.5t71.5 8.5t51 11.5t34 17t20.5 19.5t10.5 25.5t3.5 27.5t0.5 32v563q0 20 -0.5 29t-2.5 25t-7 23t-14.5 18.5t-24 16.5t-36 12.5t-50 10.5t-66.5 5.5t-85 3.5q-53 0 -81 28t-28 82v74q0 46 31 76.5t78 30.5h1966 q49 0 79.5 -30.5t30.5 -76.5v-301q0 -49 -30 -80t-76 -31h-76q-53 0 -81.5 28.5t-28.5 80.5q0 59 -22.5 88t-90.5 29h-791q-73 0 -103 -36.5t-30 -105.5v-159h391q42 0 77.5 17t35.5 50q0 53 28.5 81t82.5 28h73q46 0 76.5 -31t30.5 -80v-377q0 -47 -30.5 -77.5t-76.5 -30.5 h-73q-54 0 -82.5 27.5t-28.5 80.5q0 36 -37 52t-76 16h-391v-158q0 -20 0.5 -29t2.5 -25t7 -23.5t14.5 -19.5t23.5 -17t35.5 -12.5t50 -11t66.5 -6t85 -3.5q53 0 82 -28.5t29 -80.5v-76q0 -46 -32 -76t-79 -30h-1032q-47 0 -78 30t-31 76z" />
<glyph unicode="G" horiz-adv-x="2400" d="M102 725q0 153 56 280.5t150 214t219.5 146.5t262 87.5t279.5 27.5q130 0 246.5 -21t190 -50.5t128 -59.5t78.5 -51l23 -21v43q0 54 28.5 83.5t81.5 29.5h74q47 0 76.5 -32.5t29.5 -80.5v-387q0 -50 -29.5 -81.5t-76.5 -31.5h-64q-32 0 -56.5 6t-39.5 12t-30.5 25 t-21.5 27.5t-22 39.5t-22 42q-53 97 -186 150t-330 53q-102 0 -199.5 -28.5t-178.5 -82t-131 -140.5t-50 -194q0 -86 32.5 -160.5t89 -128t132 -92t161.5 -57.5t177 -19q100 0 192 17.5t152 42t106 49t67 41.5l21 18h-270q-52 0 -80.5 29.5t-28.5 83.5v78q0 47 31 77.5 t78 30.5h815q48 0 79.5 -30.5t31.5 -77.5v-78q0 -54 -29 -83.5t-82 -29.5q-238 0 -238 -100v-231q0 -49 -30 -80t-76 -31h-74q-53 0 -81.5 28.5t-28.5 80.5q-9 -6 -25.5 -15.5t-76 -34t-127.5 -43t-178 -34t-228 -15.5q-194 0 -374.5 55.5t-319 152.5t-221.5 240.5 t-83 309.5z" />
<glyph unicode="H" horiz-adv-x="2795" d="M51 106v76q0 52 29 80.5t82 28.5q53 1 94 3.5t70.5 8.5t50.5 11.5t34 17t20.5 19.5t10.5 25.5t3.5 27.5t0.5 32v563q0 20 -0.5 29t-2.5 25t-7 23t-14.5 18.5t-24 16.5t-36 12.5t-50 10.5t-66.5 5.5t-85 3.5q-52 0 -80.5 28.5t-28.5 81.5v74q0 46 32 76.5t79 30.5h1032 q47 0 79 -30.5t32 -76.5v-74q0 -110 -111 -110q-60 -1 -105.5 -5t-76 -9t-50.5 -16.5t-30.5 -20t-15.5 -27t-6 -30t-1 -36.5v-161h977v161q0 25 -1 36.5t-6 30t-15.5 27t-31 20t-51 16.5t-76 9t-106.5 5q-51 0 -79.5 28.5t-28.5 81.5v74q0 46 32 76.5t79 30.5h1032 q47 0 78.5 -30.5t31.5 -76.5v-74q0 -54 -28.5 -82t-81.5 -28q-60 -1 -105.5 -5t-76 -9t-50.5 -16.5t-30.5 -20t-15.5 -27t-6 -30t-1 -36.5v-563q0 -25 1 -36.5t6 -30.5t15.5 -27.5t31 -20t51 -16.5t76 -9t106.5 -5q51 0 79.5 -28.5t28.5 -80.5v-76q0 -46 -31.5 -76 t-78.5 -30h-1032q-47 0 -79 30t-32 76v76q0 52 29 80.5t82 28.5q53 1 94 3.5t70.5 8.5t50.5 11.5t34 17t20.5 19.5t10.5 25.5t3.5 27.5t0.5 32v160h-977v-160q0 -25 1 -36.5t6 -30.5t15.5 -27.5t31 -20t51 -16.5t76 -9t106.5 -5q52 0 80.5 -28.5t28.5 -80.5v-76 q0 -46 -32 -76t-79 -30h-1032q-47 0 -79 30t-32 76z" />
<glyph unicode="I" horiz-adv-x="1355" d="M51 106v76q0 53 28.5 81t82.5 28q53 1 94 3.5t70.5 8.5t50.5 11.5t34 17t20.5 19.5t10.5 25.5t3.5 27.5t0.5 32v563q0 20 -0.5 29t-2.5 25t-7 23t-14.5 18.5t-24 16.5t-36 12.5t-50 10.5t-66.5 5.5t-85 3.5q-53 0 -81 28t-28 82v74q0 46 31 76.5t80 30.5h1032 q47 0 79 -30.5t32 -76.5v-74q0 -54 -29 -82t-82 -28q-61 -1 -106.5 -5t-76 -9t-51 -16.5t-31 -20t-15.5 -27t-6 -30t-1 -36.5v-563q0 -25 1 -36.5t6 -30.5t15.5 -27.5t31 -20t51 -16.5t76 -9t106.5 -5q53 0 82 -28.5t29 -80.5v-76q0 -46 -32 -76t-79 -30h-1032q-49 0 -80 30 t-31 76z" />
<glyph unicode="J" horiz-adv-x="2011" d="M80 391q0 69 66 102t171 33q104 0 170 -28t66 -86q0 -77 78.5 -129t193.5 -52q297 0 297 299v469q0 20 -0.5 29t-2.5 25t-7 23t-14.5 18.5t-24 16.5t-36 12.5t-50 10.5t-66.5 5.5t-85 3.5q-53 0 -81 28t-28 82v74q0 46 31 76.5t78 30.5h1034q47 0 78.5 -30.5t31.5 -76.5 v-74q0 -54 -28.5 -82t-81.5 -28q-61 -1 -106.5 -5t-76 -9t-51 -16.5t-31 -20t-15.5 -27t-6 -30t-1 -36.5v-444q0 -131 -44 -236.5t-133.5 -184.5t-236 -122t-340.5 -43q-152 0 -280.5 28t-213 72.5t-144 101t-85.5 112.5t-26 108z" />
<glyph unicode="K" horiz-adv-x="2650" d="M51 106v76q0 52 29 80.5t82 28.5q61 1 106.5 5t76 9t51 16.5t31 20t15.5 27.5t6 30.5t1 36.5v563q0 25 -1 36.5t-6 30t-15.5 27t-31 20t-51 16.5t-76 9t-106.5 5q-53 0 -82 28t-29 82v74q0 46 32 76.5t79 30.5h1034q47 0 78 -30.5t31 -76.5v-74q0 -54 -28 -82t-81 -28 q-61 -1 -106.5 -5t-76 -9t-51 -16.5t-31 -20t-15.5 -27t-6 -30t-1 -36.5v-178l693 322h-78q-53 0 -81 28t-28 82v74q0 46 31 76.5t78 30.5h878q49 0 80 -30.5t31 -76.5v-74q0 -54 -28 -82t-81 -28q-69 -2 -120 -2q-59 0 -105.5 -5.5t-90 -20.5t-62.5 -23.5t-68 -32.5 l-356 -178q57 -55 173.5 -167.5t193 -186.5t99.5 -95q34 -31 46.5 -42.5t38.5 -32t43.5 -26.5t47 -16.5t64 -13.5t80.5 -6t109 -4q52 0 80 -28t28 -81v-76q0 -46 -30.5 -76t-77.5 -30h-979q-47 0 -78 30t-31 76v76q0 52 28.5 80.5t80.5 28.5q46 -1 57 27q3 7 3 16 q0 21 -22 43q-194 188 -329 319l-318 -157v-103q0 -25 1 -36.5t6 -30.5t15.5 -27.5t31 -20t51 -16.5t76 -9t106.5 -5q52 0 80.5 -28.5t28.5 -80.5v-76q0 -46 -31 -76t-78 -30h-1034q-47 0 -79 30t-32 76z" />
<glyph unicode="L" horiz-adv-x="2363" d="M51 106v76q0 53 28.5 81t82.5 28q53 1 94 3.5t70.5 8.5t50.5 11.5t34 17t20.5 19.5t10.5 25.5t3.5 27.5t0.5 32v563q0 20 -0.5 29t-2.5 25t-7 23t-14.5 18.5t-24 16.5t-36 12.5t-50 10.5t-66.5 5.5t-85 3.5q-53 0 -81 28t-28 82v74q0 46 31 76.5t80 30.5h1032 q47 0 79 -30.5t32 -76.5v-74q0 -54 -29 -82t-82 -28q-61 -1 -106.5 -5t-76 -9t-51 -16.5t-31 -20t-15.5 -27t-6 -30t-1 -36.5v-563q0 -74 23.5 -109.5t91.5 -35.5h836q67 0 89.5 29.5t22.5 89.5q0 51 28.5 79.5t80.5 28.5h75q46 0 76.5 -31.5t30.5 -78.5v-302q0 -46 -31 -76 t-80 -30h-1988q-49 0 -80 30t-31 76z" />
<glyph unicode="M" horiz-adv-x="3174" d="M51 106v76q0 52 29 80.5t82 28.5q53 1 94 3.5t70.5 8.5t50.5 11.5t34 17t20.5 19.5t10.5 25.5t3.5 27.5t0.5 32v563q0 20 -0.5 29t-2.5 25t-7 23t-14.5 18.5t-24 16.5t-36 12.5t-50 10.5t-66.5 5.5t-85 3.5q-52 0 -80.5 28.5t-28.5 81.5v74q0 46 32 76.5t79 30.5h766 q73 0 113.5 -24t76.5 -81l459 -723l459 723q34 54 75.5 79.5t114.5 25.5h789q47 0 77.5 -30.5t30.5 -76.5v-74q0 -110 -108 -110q-61 -1 -106.5 -5t-76 -9t-51 -16.5t-31 -20t-15.5 -27t-6 -30t-1 -36.5v-563q0 -25 1 -36.5t6 -30.5t15.5 -27.5t31 -20t51 -16.5t76 -9 t106.5 -5q52 0 80 -28t28 -81v-76q0 -46 -30.5 -76t-77.5 -30h-1035q-47 0 -78.5 30t-31.5 76v76q0 52 28.5 80.5t81.5 28.5q61 1 106.5 5t76 9t51 16.5t31 20t15.5 27.5t6 30.5t1 36.5v545l-592 -895q-21 -33 -33 -47t-40.5 -26.5t-71.5 -12.5q-36 0 -63 14.5t-35.5 25.5 t-22.5 34l-600 907v-545q0 -25 1 -36.5t6 -30.5t15.5 -27.5t31 -20t51 -16.5t76 -9t106.5 -5q53 0 81.5 -28.5t28.5 -80.5v-76q0 -46 -31.5 -76t-78.5 -30h-934q-47 0 -79 30t-32 76z" />
<glyph unicode="N" horiz-adv-x="2656" d="M51 106v76q0 52 29 80.5t82 28.5q53 1 94 3.5t70.5 8.5t50.5 11.5t34 17t20.5 19.5t10.5 25.5t3.5 27.5t0.5 32v563q0 20 -0.5 29t-2.5 25t-7 23t-14.5 18.5t-24 16.5t-36 12.5t-50 10.5t-66.5 5.5t-85 3.5q-52 0 -80.5 28.5t-28.5 81.5v74q0 46 32 76.5t79 30.5h588 q21 0 39 -2t34.5 -9.5t26 -11t25.5 -17.5t20.5 -18.5t22.5 -23.5t22 -23l922 -870v540q0 25 -1 36.5t-6 30t-15.5 27t-31 20t-51 16.5t-76 9t-106.5 5q-53 0 -81 28t-28 82v74q0 46 31 76.5t78 30.5h936q47 0 77.5 -30.5t30.5 -76.5v-74q0 -110 -108 -110q-61 -1 -106.5 -5 t-76 -9t-51 -16.5t-31 -20t-15.5 -27t-6 -30t-1 -36.5l2 -893q0 -46 -31.5 -76t-78.5 -30h-295q-17 0 -32.5 1t-28 4t-22.5 5.5t-20 7.5t-15.5 8t-14 9.5t-11 8.5t-10 9t-8.5 8l-850 803v-428q0 -25 1 -36.5t6 -30.5t15.5 -27.5t31 -20t51 -16.5t76 -9t106.5 -5 q53 0 81.5 -28.5t28.5 -80.5v-76q0 -46 -31.5 -76t-78.5 -30h-934q-47 0 -79 30t-32 76z" />
<glyph unicode="O" horiz-adv-x="2297" d="M102 723q0 109 37 214.5t119 205t201 174.5t297.5 120.5t392.5 45.5t391.5 -45.5t296.5 -120.5t201.5 -174.5t119.5 -205t37 -214.5q0 -108 -36.5 -212.5t-118.5 -203.5t-201 -174t-297 -120.5t-393 -45.5q-181 0 -336 31.5t-267.5 87.5t-199 128.5t-139 158t-79 173.5 t-26.5 177zM575 739q0 -93 33 -168.5t88.5 -124.5t130.5 -82t155 -47t167 -14q86 0 166 14t155 47t130 82t88.5 124t33.5 167q0 93 -33.5 168.5t-88.5 124.5t-130 82.5t-155 47.5t-166 14q-87 0 -167 -14.5t-155 -47.5t-130.5 -82t-88.5 -123.5t-33 -167.5z" />
<glyph unicode="P" horiz-adv-x="2336" d="M51 106v76q0 52 29.5 81.5t81.5 29.5q53 0 94.5 2.5t71.5 8.5t51 11t34 16.5t20.5 19.5t11 25t4 27.5t0.5 32.5v563q0 25 -1 36.5t-6 30t-15.5 27t-31 20t-51 16.5t-76 9t-106.5 5q-53 0 -82 29t-29 81v74q0 46 32 76.5t79 30.5h1116q255 0 446.5 -35t307 -99t172.5 -149 t57 -190q0 -104 -57.5 -189t-170 -149t-293 -99t-413.5 -35h-420v-73q0 -28 1.5 -41t10 -30t25.5 -24t49.5 -14.5t81.5 -10t121 -3.5q52 0 80.5 -29t28.5 -82v-76q0 -46 -31 -76t-78 -30h-1034q-47 0 -79 30t-32 76zM907 852q0 -6 1 -11t8 -16t20 -19t41 -14t67 -6h324 q95 0 174 18t131.5 59t52.5 100q0 58 -54 98.5t-132.5 58t-171.5 17.5h-324q-39 0 -67 -6t-41 -14t-20 -19t-8 -16t-1 -11v-219z" />
<glyph unicode="Q" horiz-adv-x="2297" d="M102 723q0 109 37 214.5t119.5 205t201.5 174.5t297 120.5t392 45.5t391.5 -45.5t296.5 -120.5t201.5 -174.5t119.5 -205t37 -214.5q0 -95 -30 -188t-89 -181.5t-157 -165t-225 -127.5q74 -6 136 -6q99 0 165 15q16 3 30 3q29 0 49 -13q31 -19 31 -64v-76q0 -53 -29 -92 t-81 -51q-75 -15 -161 -15q-26 0 -53 1q-116 6 -214 27t-213.5 40.5t-213.5 26.5q-24 2 -48 2q-78 0 -166 -17q-20 -4 -36 -4q-75 0 -75 82v80q-146 29 -266.5 85.5t-202 128t-137.5 158t-81.5 174.5t-25.5 177zM575 739q0 -93 33.5 -168.5t89 -124.5t130.5 -82t155 -47 t166 -14q87 0 167 14t155 47t130 82t88 123.5t33 167.5t-33 168.5t-88 124.5t-130 82.5t-155 47.5t-167 14q-86 0 -166 -14.5t-155 -47.5t-130.5 -82t-89 -124t-33.5 -167z" />
<glyph unicode="R" horiz-adv-x="2445" d="M51 106v76q0 53 28.5 82t82.5 29q47 0 84.5 2.5t66 5.5t49.5 10t35.5 12.5t24 17t14.5 18.5t7 23t2.5 25t0.5 29v563q0 20 -0.5 29t-2.5 25t-7 23t-14.5 18.5t-24 16.5t-36 12.5t-50 10.5t-66.5 5.5t-85 3.5q-52 0 -80.5 28.5t-28.5 81.5v74q0 46 31 76.5t80 30.5h1116 q254 0 445 -35t307 -99t172.5 -149t56.5 -190q0 -146 -113 -255.5t-336 -166.5q77 -52 136 -111q131 -131 354 -147q85 -7 85 -87q0 -9 -1 -18q-2 -19 -12 -119q-11 -90 -117 -90h-6q-77 0 -130.5 2.5t-116 10t-109 22t-99.5 39.5t-98 61t-93.5 87t-97.5 118q-41 57 -95 95 t-116.5 55t-113.5 23t-115 7h-158v-71q0 -22 0.5 -31.5t4 -25t10.5 -22t21 -16t34 -13t51 -8t71.5 -6t94.5 -1.5q52 0 81.5 -29.5t29.5 -81.5v-76q0 -46 -32 -76t-79 -30h-1032q-49 0 -80 30t-31 76zM907 852q0 -6 1 -11t8 -16t20 -19t40.5 -14t65.5 -6h326q94 0 173 18 t132 58.5t53 98.5t-54.5 99.5t-133 59t-170.5 17.5h-326q-38 0 -65.5 -6t-40.5 -14t-20 -19t-8 -16t-1 -11v-219z" />
<glyph unicode="S" horiz-adv-x="2144" d="M123 117v368q0 51 30 83t76 32h47q40 0 66 -10t37 -21.5t31.5 -41t35.5 -46.5q42 -47 123 -85t178 -60t172 -34t146 -19q73 -6 143 -6q56 0 110 4q122 8 206 41q80 32 80 77q0 35 -54 59q-52 22 -137.5 35.5t-195.5 25t-231.5 26t-242 34.5t-229.5 56t-193.5 84.5 t-134 125t-49.5 173.5q0 87 44.5 163t121 131t177 94.5t214.5 59t232 19.5q145 0 276.5 -21t216 -50.5t148 -59.5t91.5 -51l28 -21v41q0 53 28 83t80 30h51q46 0 76.5 -33t30.5 -82v-291q0 -49 -30.5 -80.5t-76.5 -31.5h-14q-54 0 -107.5 22t-108 55.5t-119 69.5 t-166.5 69.5t-224 49.5q-99 10 -190 10q-48 0 -94 -2q-132 -8 -219 -45q-80 -33 -80 -78q0 -4 1 -8q5 -27 60 -45.5t144 -30t203 -21.5t239 -24t249 -34.5t236 -57.5t198.5 -87.5t137.5 -129t51 -178.5q0 -87 -39 -161t-105.5 -125.5t-148 -91t-172.5 -62t-173 -33.5 t-155 -11q-158 0 -302.5 21.5t-237 52t-163 61.5t-101.5 52l-31 22v-63q0 -54 -29 -83.5t-82 -29.5h-74q-46 0 -76 32.5t-30 82.5z" />
<glyph unicode="T" horiz-adv-x="2502" d="M82 1028v301q0 46 31 76.5t80 30.5h2117q47 0 79 -30.5t32 -76.5v-301q0 -47 -30.5 -78.5t-76.5 -31.5h-76q-52 0 -81 28.5t-29 79.5q0 60 -22.5 89.5t-90.5 29.5h-346q-61 0 -99.5 -9t-57 -30t-24 -44t-5.5 -61v-563q0 -22 0.5 -32t3.5 -27.5t10.5 -25.5t20.5 -19.5 t34 -17t51 -11.5t71.5 -8.5t94.5 -3.5q51 0 80 -28.5t29 -80.5v-75q0 -46 -32 -76.5t-79 -30.5h-1032q-47 0 -78.5 30.5t-31.5 76.5v75q0 52 28.5 80.5t81.5 28.5q60 1 105.5 5t76 9t50.5 16.5t30.5 20t15.5 27.5t6 30.5t1 36.5v563q0 29 -1 42.5t-6 34t-17 30t-32.5 19.5 t-53.5 14t-79 4h-344q-68 0 -90 -29.5t-22 -89.5q0 -51 -29.5 -79.5t-81.5 -28.5h-76q-46 0 -76 31.5t-30 78.5z" />
<glyph unicode="U" horiz-adv-x="2686" d="M37 1253v74q0 46 30.5 76.5t79.5 30.5h893q47 0 79 -30.5t32 -76.5v-74q0 -54 -29 -82t-82 -28q-114 0 -155 -32.5t-41 -111.5v-292q0 -76 24.5 -139.5t66.5 -107t95 -76.5t114.5 -51t119 -27t114.5 -9q70 0 139.5 11.5t142 41t128 74t90.5 116.5t35 162v297 q0 79 -41 111.5t-156 32.5q-53 0 -81.5 28t-28.5 82v74q0 46 31.5 76.5t78.5 30.5h824q47 0 78.5 -30.5t31.5 -76.5v-74q0 -53 -29 -81.5t-81 -28.5q-96 0 -154.5 -37t-58.5 -107v-266q0 -76 -15.5 -150.5t-51 -150.5t-89 -143.5t-133 -126.5t-178.5 -101.5t-231.5 -67 t-285.5 -24.5q-154 0 -286.5 24.5t-231.5 67t-179 101.5t-133 126.5t-88.5 143.5t-51 150.5t-15.5 150.5v266q0 71 -50 107.5t-163 36.5q-52 0 -80 28.5t-28 81.5z" />
<glyph unicode="V" horiz-adv-x="2660" d="M41 1253v74q0 46 31 76.5t80 30.5h1056q47 0 79 -30.5t32 -76.5v-74q0 -54 -29 -82t-82 -28h-211q-45 0 -57 -28q-3 -7 -2 -15q0 -25 25 -60l112 -152q112 -151 223.5 -301.5t126.5 -168.5q18 25 128 184.5t207.5 302.5t103.5 152q19 27 19 46q0 9 -3 15q-10 24 -53 23 q-36 0 -95.5 1t-101.5 1q-53 0 -81.5 28t-28.5 82v74q0 46 31.5 76.5t78.5 30.5h879q47 0 78.5 -30.5t31.5 -76.5v-74q0 -54 -28.5 -82t-81.5 -28q-126 0 -180.5 -24t-116.5 -118l-619 -925q-36 -47 -58 -61.5t-71 -14.5h-237q-43 0 -62.5 13.5t-60.5 62.5l-668 921 q-25 35 -43.5 55t-51.5 44.5t-80 35.5t-109 11q-111 0 -111 110z" />
<glyph unicode="W" horiz-adv-x="3977" d="M41 1253v74q0 46 32 76.5t79 30.5h1056q47 0 79 -30.5t32 -76.5v-74q0 -53 -28.5 -81.5t-80.5 -28.5h-194q-30 0 -50 -10.5t-24 -33.5q-1 -3 -1 -7q0 -21 22 -52l436 -622l409 629q20 31 20 53q0 43 -83 43h-139q-52 0 -81.5 28.5t-29.5 81.5v74q0 46 32 76.5t79 30.5 h927q47 0 79 -30.5t32 -76.5v-74q0 -53 -28.5 -81.5t-80.5 -28.5h-153q-30 0 -50 -10.5t-24 -33.5q-1 -3 -1 -7q0 -21 22 -52l436 -622l409 629q20 31 20 53q0 43 -83 43h-164q-108 0 -108 110v74q0 46 30.5 76.5t77.5 30.5h879q49 0 79.5 -30.5t30.5 -76.5v-74 q0 -110 -108 -110q-123 0 -173.5 -24t-125.5 -118l-594 -923q-30 -45 -55 -61.5t-74 -16.5h-215q-43 0 -64.5 15t-58.5 63l-479 670l-447 -670q-35 -47 -57.5 -62.5t-71.5 -15.5h-213q-44 0 -66.5 15t-56.5 63l-641 919q-25 35 -43.5 55t-51.5 44.5t-80 35.5t-109 11 q-53 0 -82 28t-29 82z" />
<glyph unicode="X" horiz-adv-x="2551" d="M49 106v74q0 54 28.5 82.5t80.5 28.5q113 0 195 32.5t202 106.5l440 268l-452 303q-108 79 -193 110.5t-190 31.5h-2q-52 0 -80.5 28.5t-28.5 81.5v74q0 46 32 76.5t79 30.5h952q47 0 79 -30.5t32 -76.5v-74q0 -54 -29 -82t-82 -28h-51q-33 0 -42 -21.5t17 -40.5 l281 -188l297 180q32 23 20 46.5t-49 23.5h-74q-53 0 -81.5 28t-28.5 82v74q0 46 31.5 76.5t78.5 30.5h856q47 0 78 -30.5t31 -76.5v-74q0 -54 -28 -82t-81 -28q-97 0 -188 -34.5t-203 -107.5l-432 -262l459 -309q118 -76 198 -107.5t191 -31.5q52 0 81.5 -29t29.5 -82v-74 q0 -46 -32 -76t-79 -30h-1001q-49 0 -80 30t-31 76v74q0 54 28.5 82.5t82.5 28.5h98q35 0 42 22t-18 39l-288 193l-310 -189q-29 -17 -21.5 -41t46.5 -24h74q53 0 81.5 -28.5t28.5 -82.5v-74q0 -46 -31.5 -76t-78.5 -30h-854q-47 0 -79 30t-32 76z" />
<glyph unicode="Y" horiz-adv-x="2484" d="M41 1253v74q0 46 31 76.5t80 30.5h952q47 0 78.5 -30.5t31.5 -76.5v-74q0 -54 -28.5 -82t-81.5 -28h-74q-49 0 -62 -30q-3 -8 -3 -16q0 -21 26 -40l301 -211l297 211q25 21 25 43q0 7 -3 14q-12 29 -59 29h-73q-53 0 -82 28t-29 82v74q0 46 32 76.5t79 30.5h854 q49 0 79.5 -30.5t30.5 -76.5v-74q0 -110 -108 -110q-124 0 -222 -36t-192 -110q-31 -25 -192.5 -147t-180.5 -137q-28 -23 -42 -45.5t-17 -40.5t-4 -56v-135q0 -25 1 -36.5t6 -30.5t15.5 -27.5t31 -20t51 -16.5t76 -9t106.5 -5q53 0 81.5 -28.5t28.5 -80.5v-76 q0 -46 -31.5 -76t-78.5 -30h-1059q-47 0 -78 30t-31 76v76q0 52 28 80.5t81 28.5q53 1 94.5 3.5t71.5 8.5t51 11.5t34 17t20.5 19.5t10.5 25.5t3.5 27.5t0.5 32v135q0 41 -2.5 59.5t-15.5 41t-43 45.5q-335 255 -371 282q-197 144 -417 144q-49 0 -79 28.5t-30 81.5z" />
<glyph unicode="Z" horiz-adv-x="2107" d="M68 104v66q0 42 21.5 74.5t74.5 72.5l1122 832h-766q-62 0 -87 -33t-25 -92q0 -53 -28.5 -82t-80.5 -29h-76q-46 0 -76 32t-30 79v301q0 46 30.5 76.5t77.5 30.5h1659q47 0 78 -30.5t31 -76.5v-68q0 -45 -23.5 -76.5t-95.5 -88.5l-1092 -801h807q67 0 90 29.5t23 87.5 q0 52 28 80t80 28h76q46 0 76.5 -30.5t30.5 -77.5v-304q0 -46 -31 -75t-78 -29l-1708 -2q-47 0 -77.5 30t-30.5 76z" />
<glyph unicode="[" horiz-adv-x="724" d="M143 -150v1637q0 52 29 81t82 29h309q49 0 80 -30t31 -76v-51q0 -53 -28.5 -81t-82.5 -28h-153v-1325h153q54 0 82.5 -28.5t28.5 -81.5v-50q0 -46 -31 -76t-80 -30h-313q-46 0 -76.5 30.5t-30.5 79.5z" />
<glyph unicode="\" horiz-adv-x="1540" d="M55 1590q18 40 74 40h74q64 0 97.5 -20.5t70.5 -71.5l1102 -1606q31 -43 12.5 -82.5t-74.5 -39.5h-74q-64 0 -97.5 20.5t-70.5 71.5l-1101 1605q-31 43 -13 83z" />
<glyph unicode="]" horiz-adv-x="727" d="M51 -92q0 52 29 81t82 29h153v1325h-153q-53 0 -82 28.5t-29 80.5v51q0 46 32 76.5t79 30.5h311q53 0 82 -29t29 -82l-2 -1636q0 -49 -30 -80t-77 -31h-313q-47 0 -79 30.5t-32 76.5v49z" />
<glyph unicode="^" horiz-adv-x="905" d="M76.5 755q-15.5 32 5.5 72l244 478q17 34 37 45.5t55 11.5h69q37 0 56.5 -11.5t36.5 -45.5l243 -478q21 -40 5.5 -72t-58.5 -32h-65q-54 0 -73.5 11.5t-45.5 60.5l-133 262l-134 -262q-24 -49 -43.5 -60.5t-74.5 -11.5h-66q-43 0 -58.5 32z" />
<glyph unicode="`" d="M544.5 1686q0.5 31 14.5 55q20 32 58 49.5t97.5 11.5t123.5 -43q80 -46 229 -174.5t225 -204.5q48 -43 31 -75q-12 -24 -38 -25.5t-46 6.5q-101 26 -288.5 91.5t-266.5 111.5q-49 28 -81.5 63t-45.5 69t-12.5 65z" />
<glyph unicode="a" d="M88 336q-1 12 -1 23q0 148 112 227q120 85 366 94q245 8 314 23q92 19 110 75q6 18 6 41q0 65 -49 113.5t-149 48.5q-83 0 -136 -30t-53 -91q0 -115 -200 -115q-44 0 -78.5 6.5t-56 15t-37 22.5t-22.5 24.5t-10.5 25t-4 20t-0.5 13.5q0 126 153 210.5t408 93.5q27 1 54 1 q630 0 630 -462v-365q0 -42 25.5 -62t60 -14t61.5 31l27 27q39 39 79 39q43 0 89 -43l6 -9q44 -42 44 -88t-44 -96q-64 -73 -186 -126q-95 -41 -213 -41q-33 0 -68 3q-57 5 -126.5 32.5t-115.5 70.5q-58 -44 -163.5 -74t-245.5 -33h-29q-250 0 -395 99q-153 105 -162 270z M508 338q10 -73 96 -106q70 -27 162 -26q23 0 47 1q50 3 95.5 14.5t77.5 32.5q32 20 32 45l-2 223q-64 -27 -221 -39q-48 -3 -77.5 -6t-68.5 -9t-62 -16t-44.5 -25t-29.5 -37q-6 -16 -6 -37q0 -7 1 -15z" />
<glyph unicode="b" horiz-adv-x="1875" d="M37 1339v37q0 46 31.5 76.5t78.5 30.5h484q46 0 76 -32t30 -79v-334q106 82 260 118q85 20 169 20q67 0 134 -13q120 -22 215 -78.5t155.5 -137t92 -178t31.5 -206.5q0 -221 -132 -376.5t-357 -202.5q-84 -18 -167 -18q-92 0 -180 22q-168 42 -274 125 q-122 -115 -268 -115q-51 0 -79 31t-28 80v999q0 63 -33 92t-129 29q-53 0 -81.5 28.5t-28.5 81.5zM739 422q0 -61 68 -116.5t156 -67.5q30 -4 60 -4q44 0 85 9q69 15 124 54.5t87.5 110.5t32.5 165t-32.5 165t-87.5 111t-124 55q-38 8 -79 8q-32 0 -66 -5 q-90 -14 -157 -68.5t-67 -115.5v-301z" />
<glyph unicode="c" horiz-adv-x="1585" d="M82 571q0 133 51 244t147.5 191.5t245 125t334.5 44.5q165 0 310 -41.5t237 -121t92 -179.5q0 -73 -53.5 -105.5t-155.5 -32.5q-101 0 -150.5 27.5t-49.5 87.5q0 49 -64 85q-62 35 -157 34h-5q-72 -2 -137 -23.5t-117.5 -63t-83 -108.5t-30.5 -151q0 -86 34.5 -153.5 t92 -108t125.5 -61.5t141 -21q184 0 340 122q42 36 88 36q32 0 65 -17q50 -28 72 -39q37 -23 46 -59q2 -9 2 -18q0 -28 -21 -56q-15 -19 -42.5 -43.5t-83.5 -60.5t-122.5 -64.5t-166 -50t-208.5 -23.5h-17q-192 0 -354 64q-78 33 -147 81t-128.5 114t-94.5 155.5t-35 189.5z " />
<glyph unicode="d" horiz-adv-x="1896" d="M102 563q0 109 31 206.5t91.5 178t155 137t214.5 78.5q61 12 124 12q92 1 186 -25q160 -42 253 -136v94q-1 42 -12.5 66t-47.5 39.5t-102 15.5q-53 0 -81.5 28.5t-28.5 81.5v37q0 46 31.5 76.5t78.5 30.5h484q46 0 76 -32t30 -79v-979q0 -77 32.5 -108t131.5 -31 q53 0 82 -29t29 -82v-37q0 -46 -32 -76t-79 -30h-485q-43 0 -72.5 28t-32.5 72q-25 -24 -72 -49.5t-124.5 -51.5t-169.5 -32q-25 -2 -52 -2q-71 0 -155 12q-223 40 -353.5 199.5t-130.5 386.5zM545 569q0 -95 32.5 -166.5t87 -111t123.5 -55.5q42 -9 87 -9q29 0 59 4 q88 12 155.5 68.5t67.5 118.5v303q0 61 -67 116.5t-156 69.5q-30 4 -59 4q-45 1 -86 -9q-69 -16 -124 -55.5t-87.5 -111t-32.5 -166.5z" />
<glyph unicode="e" horiz-adv-x="1673" d="M82 571q0 270 202.5 437.5t551.5 167.5q344 0 546.5 -162t208.5 -426q0 -47 -30 -79t-76 -32h-973q35 -115 141 -175t234 -60q65 0 127.5 15.5t107.5 39.5t68.5 39.5t38.5 28.5q40 35 85 35q33 0 68 -19q61 -34 72 -39q37 -22 46 -58q2 -9 2 -18q0 -28 -21 -57 q-17 -21 -40.5 -44.5t-77.5 -61t-117 -66t-160.5 -49.5t-206.5 -21q-125 0 -233.5 21t-188 56.5t-144.5 84.5t-107 103.5t-71 114t-41 115t-12 109.5zM518 719h674q-41 101 -134.5 156t-203.5 55t-202.5 -54.5t-133.5 -156.5z" />
<glyph unicode="f" horiz-adv-x="1472" d="M82 942v49q0 46 32 76.5t79 30.5h161q20 187 169.5 287t391.5 100q232 0 369 -83.5t137 -207.5q0 -123 -186 -123q-89 0 -133.5 27t-44.5 86q0 58 -38 86t-97 28q-72 0 -107 -45t-35 -108v-47h166q47 0 79 -30.5t32 -76.5v-49q0 -54 -28.5 -82.5t-80.5 -28.5h-164v-456 q1 -42 12.5 -66t47.5 -39.5t102 -15.5q52 0 81.5 -29t29.5 -82v-37q0 -46 -32 -76t-79 -30h-753q-47 0 -78 30t-31 76v37q0 53 28.5 82t80.5 29q97 0 128.5 28.5t34.5 92.5v456h-163q-53 0 -82 28.5t-29 82.5z" />
<glyph unicode="g" horiz-adv-x="1863" d="M94 -86q-1 13 -1 25q0 124 122 198q-43 34 -63 87q-18 45 -18 92q0 10 1 19q4 57 44 113t112 91q-113 101 -113 241q0 178 171.5 287t481.5 109q265 0 435 -82q76 46 174 49h23q144 0 238 -69q101 -76 101 -185t-135 -109q-129 0 -129 99q0 48 -34.5 73t-88.5 27 q70 -89 70 -199q0 -178 -171.5 -286.5t-482.5 -108.5q-232 0 -391 64q-29 -20 -29 -57q0 -8 1 -17q9 -47 81 -69.5t179 -25.5q80 -2 172 -2h62h27q114 0 227 -8q125 -8 228.5 -32.5t167.5 -87.5t64 -162q0 -63 -20.5 -114t-74 -99t-138.5 -80.5t-221 -52t-314 -19.5 q-174 0 -306.5 16t-214.5 42.5t-135 65.5t-75 79t-27 88zM387 10q0 -18 4.5 -31.5t17.5 -30t42 -28t73.5 -22t116.5 -16t166 -5.5q420 0 420 86q0 25 -53.5 35.5t-146.5 12.5t-195.5 2.5t-224.5 9t-210 28.5q-10 -15 -10 -41zM567 780q0 -63 75.5 -105t188.5 -42t188 42 t75 105q0 64 -75 107t-188 43t-188.5 -43t-75.5 -107z" />
<glyph unicode="h" horiz-adv-x="2183" d="M51 106v37q0 53 29.5 82t81.5 29q66 0 102 15.5t47.5 39.5t12.5 66v733q-1 42 -12.5 66t-47.5 39.5t-102 15.5q-53 0 -82 29t-29 81v37q0 46 32 76.5t79 30.5h483q46 0 76.5 -32t30.5 -79v-457q52 75 157.5 148t245.5 98q75 13 145 13q80 0 152 -17q136 -32 226.5 -111.5 t141 -197t50.5 -258.5v-215q1 -42 12.5 -66t47.5 -39.5t102 -15.5q54 0 82 -29t28 -82v-37q0 -46 -30.5 -76t-79.5 -30h-752q-49 0 -80 30t-31 76v37q0 53 28.5 82t82.5 29q66 0 102 15.5t47.5 39.5t12.5 66v200q0 45 -10 87.5t-34.5 83.5t-61.5 69q-36 28 -96 40 q-31 6 -67 6q-32 0 -67 -5q-84 -12 -154 -54.5t-111.5 -98.5t-64.5 -112.5t-24 -103.5v-112q1 -42 12 -66t47.5 -39.5t103.5 -15.5q52 0 80.5 -29t28.5 -82v-37q0 -46 -31 -76t-78 -30h-753q-47 0 -79 30t-32 76z" />
<glyph unicode="i" horiz-adv-x="1077" d="M61 109v36q0 53 29.5 82t81.5 29q96 0 128 28.5t34 90.5v397q-1 42 -12.5 66t-47.5 39.5t-102 15.5q-52 0 -81.5 29.5t-29.5 81.5v36q0 46 32 76.5t79 30.5h485q46 0 76.5 -32t30.5 -79v-661q2 -62 34 -90.5t128 -28.5q52 0 81 -29t29 -82v-36q0 -46 -31.5 -76.5 t-78.5 -30.5h-754q-47 0 -79 30.5t-32 76.5zM231 1403q0 78 77 120t196 42t195.5 -42t76.5 -120q0 -76 -77 -118t-195 -42t-195.5 42t-77.5 118z" />
<glyph unicode="j" horiz-adv-x="1138" d="M51 -117q0 31 10 51q37 72 179 72q89 0 133.5 -26t44.5 -84q0 -46 26 -66t58 -20q82 0 82 116v846q-1 42 -12.5 66t-47.5 39.5t-102 15.5q-52 0 -81.5 29.5t-29.5 81.5v36q0 46 32 76.5t79 30.5h485q46 0 76.5 -32t30.5 -79q-2 -911 -2 -1052q0 -47 -13.5 -96t-48 -103 t-87 -95.5t-138.5 -68.5t-193 -27q-230 0 -355.5 82t-125.5 207zM481 1403q0 78 77 120t196 42t195.5 -42t76.5 -120q0 -76 -77 -118t-195 -42t-195.5 42t-77.5 118z" />
<glyph unicode="k" horiz-adv-x="2174" d="M49 106v37q0 53 28.5 82t80.5 29q97 0 129 28.5t35 92.5v735q-3 62 -35 90.5t-129 28.5q-52 0 -80.5 28.5t-28.5 81.5v37q0 46 31 76.5t78 30.5h485q46 0 76.5 -32t30.5 -79v-723l424 244h-97q-47 0 -77.5 30t-30.5 76v37q0 53 28 81t80 28h803q54 0 82.5 -28t28.5 -81 v-37q0 -46 -31 -76t-80 -30h-51q-94 0 -161 -20.5t-140 -61.5l-168 -96l317 -322q12 -11 35 -33t30.5 -29t26 -22t27 -19t27.5 -13.5t34 -11.5t39 -6t50 -4.5t61 -0.5h6q53 0 82 -29t29 -82v-37q0 -46 -32 -76t-79 -30h-803q-47 0 -78.5 30t-31.5 76v37q0 52 29.5 81.5 t80.5 29.5q40 0 49 20t-14 45l-211 207l-284 -161q3 -58 36 -84.5t125 -26.5q53 0 82 -29t29 -82v-37q0 -46 -32 -76t-79 -30h-753q-47 0 -78 30t-31 76z" />
<glyph unicode="l" horiz-adv-x="1067" d="M51 109v36q0 53 29.5 82t81.5 29q96 0 128 28.5t34 90.5v735q-2 62 -34 90.5t-128 28.5q-53 0 -82 29t-29 81v37q0 46 32 76.5t79 30.5h485q46 0 75.5 -31.5t29.5 -79.5l2 -997q1 -41 12 -64.5t47 -39t102 -15.5q53 0 82 -29t29 -82v-36q0 -46 -32 -76.5t-79 -30.5h-753 q-47 0 -79 30.5t-32 76.5z" />
<glyph unicode="m" horiz-adv-x="3301" d="M51 106v37q0 53 28.5 82t80.5 29q67 0 103.5 15.5t48 39.5t12.5 66v399q-1 41 -12.5 64.5t-48 39t-103.5 15.5q-52 0 -80.5 29t-28.5 82v36q0 46 31 76.5t78 30.5h485q46 0 76.5 -32t30.5 -79v-121q52 76 157 148.5t246 97.5q79 14 151 14q149 -1 267 -61 q175 -90 250 -274q62 124 184 209t266 112q75 13 145 13q80 0 152 -17q136 -32 226.5 -111.5t141 -197t50.5 -258.5v-215q1 -42 12.5 -66t47.5 -39.5t102 -15.5q52 0 81 -29t29 -82v-37q0 -46 -31.5 -76t-78.5 -30h-754q-47 0 -78.5 30t-31.5 76v37q0 53 29 82t81 29 q66 0 102 15.5t47.5 39.5t12.5 66l2 200q0 45 -10 87.5t-35 83.5t-62 69t-97 40q-31 6 -66 6q-32 0 -68 -5q-66 -9 -124.5 -39t-99 -69.5t-70 -86.5t-43.5 -91t-15 -81v-114q1 -42 12.5 -66t47.5 -39.5t102 -15.5q52 0 81 -29t29 -82v-37q0 -46 -31.5 -76t-78.5 -30h-754 q-47 0 -78 30t-31 76v37q0 53 28.5 82t80.5 29q97 0 129 28.5t35 92.5v200q0 45 -10 87.5t-34.5 83.5t-62 69t-97.5 40q-31 6 -66 6q-32 0 -68 -5q-83 -12 -152.5 -54.5t-111.5 -98t-65 -112.5t-23 -104v-112q1 -42 12 -66t47 -39.5t102 -15.5q53 0 82 -29t29 -82v-37 q0 -46 -32 -76t-79 -30h-753q-47 0 -78 30t-31 76z" />
<glyph unicode="n" horiz-adv-x="2183" d="M51 106v37q0 53 28.5 82t82.5 29q66 0 102 15.5t47.5 39.5t12.5 66v399q-2 62 -34 90.5t-128 28.5q-54 0 -82.5 29t-28.5 82v36q0 46 31 76.5t80 30.5h483q46 0 76.5 -32t30.5 -79v-121q52 76 157 148.5t246 97.5q75 13 145 13q80 0 152 -17q136 -32 226.5 -111.5 t141 -197t50.5 -258.5v-215q1 -42 12.5 -66t47.5 -39.5t102 -15.5q52 0 81 -29t29 -82v-37q0 -46 -31.5 -76t-78.5 -30h-754q-47 0 -78 30t-31 76v37q0 53 28.5 82t80.5 29q67 0 103.5 15.5t48 39.5t12.5 66v200q0 45 -10 87.5t-34.5 83.5t-61.5 69q-36 28 -96 40 q-31 6 -67 6q-32 0 -67 -5q-84 -12 -154 -54.5t-111.5 -98.5t-64.5 -112.5t-24 -103.5v-112q1 -42 12 -66t47 -39.5t102 -15.5q54 0 82.5 -29t28.5 -82v-37q0 -46 -31 -76t-80 -30h-751q-49 0 -80 30t-31 76z" />
<glyph unicode="o" horiz-adv-x="1681" d="M82 569q0 87 24.5 170.5t81.5 163.5t142 140t216.5 96.5t293.5 36.5q163 0 294.5 -36.5t216.5 -96.5t142.5 -140t81.5 -163.5t24 -170.5q0 -85 -29 -169.5t-91 -163t-149.5 -138t-214 -95.5t-275.5 -36t-275.5 36t-214 95.5t-149 138t-90.5 163t-29 169.5zM489 582 q0 -105 50.5 -184t129 -117.5t171.5 -38.5t171.5 38.5t128.5 117.5t50 184q0 109 -50 189.5t-128 118.5t-172 38t-172.5 -38t-128.5 -118.5t-50 -189.5z" />
<glyph unicode="p" horiz-adv-x="1882" d="M45 -231q0 53 28.5 80.5t82.5 27.5q66 0 102 15.5t47 39.5t12 66v776q-1 41 -12 64.5t-47 39t-102 15.5q-54 0 -82.5 29t-28.5 82v36q0 46 31 76.5t80 30.5h483q46 0 76 -32t30 -79v-30q90 95 247 138q97 27 196 27q61 0 123 -10q119 -21 213.5 -77t154 -136t90.5 -178 t31 -207q0 -223 -134.5 -381t-358.5 -202q-64 -12 -129 -12q-89 0 -179 23q-155 40 -254 120v-113q1 -42 12.5 -66t47.5 -39.5t102 -15.5q54 0 82.5 -27.5t28.5 -80.5v-37q0 -46 -31 -76.5t-80 -30.5h-751q-49 0 -80 30.5t-31 76.5v37zM745 440q0 -63 69 -129.5t155 -81.5 q37 -7 73 -7q38 0 74 8q69 15 123.5 55.5t86.5 113.5t32 168q0 96 -33 169.5t-88 114t-124 55.5q-36 8 -73 8q-35 0 -71 -7q-91 -18 -157.5 -83t-66.5 -128v-256z" />
<glyph unicode="q" horiz-adv-x="1849" d="M82 580q0 220 131.5 372.5t357.5 200.5q76 17 152 17l188 -26q170 -45 271 -128q128 131 278 131q51 0 79 -30t28 -79v-1040q1 -42 12.5 -66t47.5 -39.5t102 -15.5q53 0 81.5 -28t28.5 -80v-37q0 -46 -31.5 -76.5t-78.5 -30.5h-754q-47 0 -79 30.5t-32 76.5v37 q0 52 29 80t82 28q96 0 129 29t33 92l2 104q-106 -80 -261 -116q-85 -19 -169 -19q-69 0 -136 13q-237 44 -364 209t-127 391zM524 569q0 -124 55.5 -206t142.5 -112q57 -20 123 -20q33 0 68 5q94 13 159 67.5t65 116.5v301q0 60 -68 115t-156 67q-34 5 -67 5q-41 0 -79 -8 q-69 -15 -123.5 -54.5t-87 -111t-32.5 -165.5z" />
<glyph unicode="r" horiz-adv-x="1550" d="M51 109v36q0 53 29.5 82t81.5 29q97 0 129 28.5t35 90.5v397q-3 64 -35 92.5t-129 28.5q-52 0 -81.5 29.5t-29.5 81.5v36q0 46 32 76.5t79 30.5h485q46 0 76.5 -32t30.5 -79v-30q64 73 166 118t231 45q164 0 254 -81t90 -207q0 -125 -186 -125q-90 0 -134.5 26.5 t-44.5 85.5q0 52 -63 60q-11 1 -23 1q-54 0 -118 -28q-79 -34 -125.5 -92t-46.5 -123v-311q1 -41 12 -64.5t47 -39t102 -15.5q53 0 82 -29t29 -82v-36q0 -46 -32 -76.5t-79 -30.5h-753q-47 0 -79 30.5t-32 76.5z" />
<glyph unicode="s" horiz-adv-x="1619" d="M92 113v247q0 54 28.5 82.5t82.5 28.5h22q31 0 64 -20t71.5 -51t88 -63.5t133.5 -63t188 -44.5q100 -13 173 -13h31q82 4 122.5 21.5t40.5 45.5q0 25 -29.5 44.5t-79.5 32t-117 25.5t-142 23.5t-154.5 27t-154.5 36t-142 51t-117 70t-79.5 96t-29.5 126.5q0 175 180 274 q151 83 384 83q45 0 92 -3q120 -6 227.5 -37.5t158.5 -58t91 -55.5v20q0 53 29 82t83 29h21q46 0 76 -32t30 -79v-198q0 -47 -30 -79t-76 -32h-21q-37 0 -71 18.5t-70.5 46.5t-84.5 57.5t-133.5 55t-195.5 35.5q-61 5 -110 5q-78 0 -127 -12q-71 -17 -71 -62q0 -5 1 -11 q4 -27 44 -45t103.5 -29t145 -20.5t169.5 -22.5t176 -30.5t166 -49.5t137 -75q58 -42 92 -110q30 -60 30 -136v-18q-3 -61 -28 -113.5t-66.5 -89.5t-96.5 -67t-117.5 -46.5t-129.5 -28t-133.5 -11.5t-128.5 3q-312 23 -506 181v-41q0 -47 -30.5 -79t-76.5 -32h-22 q-54 0 -82.5 29t-28.5 82z" />
<glyph unicode="t" horiz-adv-x="1304" d="M41 993v49q0 46 32 76.5t79 30.5h235v151q0 52 29.5 81.5t81.5 29.5h211q47 0 76.5 -31.5t29.5 -79.5v-151h287q47 0 78.5 -30.5t31.5 -76.5v-49q0 -54 -28.5 -82t-81.5 -28h-287v-541q0 -42 25.5 -62t60 -15t62.5 32l26 27q38 38 81.5 38t86.5 -43l6 -6l5 -5l-3 3 q43 -43 43 -89t-43 -95q-74 -82 -198 -129q-82 -28 -175 -28q-38 0 -77 5q-165 20 -246.5 123t-81.5 279v506h-235q-53 0 -82 28t-29 82z" />
<glyph unicode="u" horiz-adv-x="2148" d="M41 1004v36q0 46 31 76.5t78 30.5h485q46 0 76 -31t30 -80v-465q0 -45 9.5 -87.5t33.5 -83.5t60 -69q34 -29 92 -41q31 -7 65 -6q30 0 64 5q81 12 148.5 55t107.5 98.5t62 112t22 104.5v115q-1 42 -12.5 66t-47.5 39.5t-102 15.5q-53 0 -81.5 28.5t-28.5 80.5v36 q0 46 31.5 76.5t78.5 30.5h486q46 0 76 -31t30 -80v-661q1 -42 12.5 -66t47.5 -39.5t102 -15.5q53 0 81.5 -28.5t28.5 -82.5v-37q0 -46 -31.5 -76t-78.5 -30l-486 2q-46 0 -76 31t-30 78v114q-51 -75 -154 -146.5t-239 -96.5q-75 -14 -144 -14q-76 0 -146 17 q-133 32 -221.5 112t-138 197.5t-49.5 258.5v221q-1 42 -12 66t-47.5 39.5t-103.5 15.5q-52 0 -80.5 28.5t-28.5 80.5z" />
<glyph unicode="v" horiz-adv-x="2123" d="M25 1004v36q0 46 31.5 76.5t78.5 30.5h828q47 0 78.5 -30.5t31.5 -76.5v-36q0 -53 -29 -82t-81 -29h-123q-16 0 -29 -3t-23 -10t-9.5 -20.5t12.5 -32.5l346 -493q317 489 321 495q19 37 6 50.5t-47 13.5h-112q-53 0 -82 29.5t-29 81.5v36q0 46 32 76.5t79 30.5h684 q47 0 78.5 -30.5t31.5 -76.5v-36q0 -53 -29 -82t-81 -29q-92 0 -135 -16t-82 -76l-476 -740q-29 -38 -46.5 -49.5t-55.5 -11.5h-240q-35 0 -50.5 10.5t-47.5 50.5l-514 738q-35 51 -80.5 72.5t-126.5 21.5q-52 0 -81 29t-29 82z" />
<glyph unicode="w" horiz-adv-x="3291" d="M25 1004v36q0 46 30.5 76.5t79.5 30.5h828q47 0 78.5 -30.5t31.5 -76.5v-36q0 -53 -29 -82t-81 -29h-136q-53 0 -53 -27q0 -15 17 -39l346 -493l323 495q14 21 14 36q0 28 -57 28h-112q-54 0 -82.5 29t-28.5 82v36q0 46 31 76.5t80 30.5h815q47 0 77.5 -30.5t30.5 -76.5 v-36q0 -53 -28 -82t-80 -29h-123q-22 0 -35 -5.5t-17.5 -20t15.5 -40.5l346 -493q318 487 322 493q19 37 6 51.5t-47 14.5h-113q-52 0 -81.5 29.5t-29.5 81.5v36q0 46 32 76.5t79 30.5h684q47 0 78 -30.5t31 -76.5v-36q0 -53 -28.5 -82t-80.5 -29q-92 0 -135 -16t-82 -76 l-475 -740q-29 -38 -47 -49.5t-56 -11.5h-241q-35 0 -51.5 11t-47.5 50l-378 543l-349 -543q-29 -38 -46.5 -49.5t-55.5 -11.5h-242q-35 0 -50.5 10.5t-47.5 50.5l-512 738q-35 51 -81 72.5t-126 21.5q-54 0 -82 29t-28 82z" />
<glyph unicode="x" horiz-adv-x="1888" d="M45 106v37q0 53 28.5 82t82.5 29q89 0 155.5 19.5t137.5 70.5l292 213l-301 246q-63 53 -126 71.5t-158 18.5q-54 0 -82.5 29t-28.5 82v36q0 46 31 76.5t80 30.5h657q47 0 79 -30.5t32 -76.5v-36q0 -52 -29 -81.5t-82 -29.5h-33l201 -164l227 164h-51q-52 0 -81 29 t-29 82v36q0 46 31.5 76.5t78.5 30.5h580q47 0 77.5 -30.5t30.5 -76.5v-36q0 -53 -28 -82t-80 -29q-70 0 -148.5 -23t-140.5 -67l-295 -215l297 -244q111 -90 287 -90q52 0 80 -29t28 -82v-37q0 -46 -30.5 -76t-77.5 -30h-660q-47 0 -78.5 30t-31.5 76v37q0 53 29 82t81 29 h37l-199 160l-221 -160h39q53 0 82 -29t29 -82v-37q0 -46 -32 -76t-79 -30h-577q-49 0 -80 30t-31 76z" />
<glyph unicode="y" horiz-adv-x="2121" d="M25 1004v36q0 46 31.5 76.5t78.5 30.5h828q47 0 78.5 -30.5t31.5 -76.5v-36q0 -53 -29 -82t-81 -29h-123q-16 0 -29 -3t-23 -10t-9.5 -20.5t12.5 -32.5q9 -16 348 -497q316 496 319 499q19 37 6 50.5t-47 13.5h-112q-53 0 -82 29.5t-29 81.5v36q0 46 32 76.5t79 30.5h684 q47 0 77.5 -30.5t30.5 -76.5v-36q0 -53 -28 -82t-80 -29q-92 0 -135 -16t-82 -76q-449 -709 -564 -883q-68 -101 -107 -143q-167 -181 -468 -181q-232 0 -369 83t-137 206q0 31 10 51q37 72 176 72q91 0 136 -26t45 -84q0 -49 50 -70q40 -17 94 -17q16 0 32 1 q141 12 241 167l-569 822q-35 51 -81 72.5t-126 21.5q-52 0 -81 29t-29 82z" />
<glyph unicode="z" horiz-adv-x="1480" d="M55 86v51q0 33 18 59.5t60 65.5l719 651h-432q-40 0 -62 -22t-22 -62q0 -42 -32 -72t-75 -30h-22q-53 0 -82 29.5t-29 81.5v198q0 54 29 82.5t82 28.5h1104q38 0 63 -24t25 -62v-53q0 -34 -18 -57.5t-78 -80.5l-697 -637h469q84 0 84 86q0 42 31 72.5t76 30.5h22 q54 0 82.5 -29t28.5 -82v-200q0 -53 -28.5 -82t-82.5 -29h-1145q-38 0 -63 24.5t-25 61.5z" />
<glyph unicode="|" horiz-adv-x="634" d="M164 -53v1603q0 52 28.5 80.5t81.5 28.5h50q46 0 76 -31t30 -78v-1603q0 -53 -28 -81t-80 -28h-52q-46 0 -76 31t-30 78z" />
<glyph unicode="&#xa1;" horiz-adv-x="571" d="M72 1321q0 76 60.5 118t154.5 42q92 0 152.5 -42t60.5 -118t-60.5 -118t-152.5 -42q-94 0 -154.5 42t-60.5 118zM88 264q0 187 135 697q5 24 10 37.5t19.5 27.5t36.5 14q13 0 23.5 -6t16 -11t11.5 -20t7.5 -19.5t6.5 -22.5q133 -502 133 -697q0 -139 -60.5 -218 t-137.5 -79q-78 0 -139.5 79t-61.5 218z" />
<glyph unicode="&#xa8;" d="M367 1468q0 78 60 119t153 41h2q93 0 153 -41t60 -119q0 -76 -60.5 -117.5t-152.5 -41.5h-2q-92 0 -152.5 41.5t-60.5 117.5zM1063 1468q0 78 60 119t153 41h2q93 0 153 -41t60 -119q0 -76 -60.5 -117.5t-152.5 -41.5h-2q-92 0 -152.5 41.5t-60.5 117.5z" />
<glyph unicode="&#xad;" horiz-adv-x="851" d="M76 643v51q0 46 30.5 76.5t77.5 30.5h482q52 0 81 -29t29 -82v-51q0 -46 -31.5 -76.5t-78.5 -30.5h-482q-52 0 -80 29t-28 82z" />
<glyph unicode="&#xb4;" d="M539 1305q-17 33 30 75q75 75 225 204t230 175q64 37 123.5 43t97.5 -11.5t58 -49.5q14 -24 14.5 -55t-12.5 -65t-45.5 -69t-81.5 -63q-79 -46 -266.5 -111.5t-288.5 -91.5q-20 -8 -46 -6.5t-38 25.5z" />
<glyph unicode="&#xb8;" horiz-adv-x="1585" d="M522 -307q0 59 78 59q80 0 80 -51q0 -32 33.5 -52t95.5 -20q69 0 104 16.5t35 55.5q0 24 -22.5 42.5t-55 32.5t-65 31.5t-56 50.5t-24.5 79v36q0 24 14 39t37 15h23q53 0 53 -54q0 -36 28.5 -61t70 -41t83.5 -33.5t73.5 -49.5t35.5 -77q8 -91 -72.5 -153t-243.5 -62 q-158 0 -231.5 57t-73.5 140z" />
<glyph unicode="&#xc0;" horiz-adv-x="2639" d="M31 106v76q0 53 28 81t80 28q127 0 182.5 25t116.5 116l619 926q31 47 55 62.5t74 15.5h239q44 0 66.5 -15t56.5 -63l664 -922q21 -28 34.5 -43.5t40 -38t53 -34t68 -20.5t91.5 -9q53 0 81.5 -28.5t28.5 -80.5v-76q0 -46 -31.5 -76t-78.5 -30h-1057q-49 0 -80 30t-31 76 v76q0 52 28.5 80.5t80.5 28.5h194q28 0 47.5 8.5t27 31.5t-20.5 62l-80 123h-738q-80 -131 -84 -139q-21 -28 -17.5 -57t42.5 -29h209q52 0 80 -28t28 -81v-76q0 -46 -30.5 -76t-77.5 -30h-879q-49 0 -79.5 30t-30.5 76zM851.5 1970q0.5 31 14.5 55q20 32 58 50t97.5 12 t123.5 -43q80 -46 229 -174.5t225 -204.5q48 -43 31 -76q-12 -24 -38 -25t-46 7q-101 26 -288.5 91.5t-266.5 111.5q-49 28 -81.5 63t-45.5 68.5t-12.5 64.5zM1042 758h381q-38 50 -79 104.5t-74.5 99t-42.5 56.5z" />
<glyph unicode="&#xc1;" horiz-adv-x="2639" d="M31 106v76q0 53 28 81t80 28q127 0 182.5 25t116.5 116l619 926q31 47 55 62.5t74 15.5h239q44 0 66.5 -15t56.5 -63l664 -922q21 -28 34.5 -43.5t40 -38t53 -34t68 -20.5t91.5 -9q53 0 81.5 -28.5t28.5 -80.5v-76q0 -46 -31.5 -76t-78.5 -30h-1057q-49 0 -80 30t-31 76 v76q0 52 28.5 80.5t80.5 28.5h194q28 0 47.5 8.5t27 31.5t-20.5 62l-80 123h-738q-80 -131 -84 -139q-21 -28 -17.5 -57t42.5 -29h209q52 0 80 -28t28 -81v-76q0 -46 -30.5 -76t-77.5 -30h-879q-49 0 -79.5 30t-30.5 76zM989 1589q-17 33 31 76q75 75 225 204t230 175 q64 37 123 43t97 -12t58 -50q14 -24 14.5 -55t-12.5 -64.5t-45.5 -68.5t-81.5 -63q-79 -46 -266.5 -111.5t-288.5 -91.5q-20 -8 -46 -7t-38 25zM1042 758h381q-38 50 -79 104.5t-74.5 99t-42.5 56.5z" />
<glyph unicode="&#xc2;" horiz-adv-x="2639" d="M31 106v76q0 53 28 81t80 28q127 0 182.5 25t116.5 116l619 926q31 47 55 62.5t74 15.5h239q44 0 66.5 -15t56.5 -63l664 -922q21 -28 34.5 -43.5t40 -38t53 -34t68 -20.5t91.5 -9q53 0 81.5 -28.5t28.5 -80.5v-76q0 -46 -31.5 -76t-78.5 -30h-1057q-49 0 -80 30t-31 76 v76q0 52 28.5 80.5t80.5 28.5h194q28 0 47.5 8.5t27 31.5t-20.5 62l-80 123h-738q-80 -131 -84 -139q-21 -28 -17.5 -57t42.5 -29h209q52 0 80 -28t28 -81v-76q0 -46 -30.5 -76t-77.5 -30h-879q-49 0 -79.5 30t-30.5 76zM761 1566.5q0 9.5 1 16t9 17t10 13t12 13.5 q262 286 381 352q74 45 131 45t131 -45q119 -66 381 -352q9 -9 12 -13t9.5 -14t8.5 -16.5t1.5 -16t-5.5 -18.5q-12 -23 -36.5 -23.5t-45.5 7.5q-59 16 -203.5 82.5t-252.5 124.5q-108 -58 -253 -124.5t-204 -82.5q-21 -8 -45.5 -7.5t-36.5 23.5q-5 9 -5 18.5zM1042 758h381 q-38 50 -79 104.5t-74.5 99t-42.5 56.5z" />
<glyph unicode="&#xc3;" horiz-adv-x="2639" d="M31 106v76q0 53 28 81t80 28q127 0 182.5 25t116.5 116l619 926q31 47 55 62.5t74 15.5h239q44 0 66.5 -15t56.5 -63l664 -922q21 -28 34.5 -43.5t40 -38t53 -34t68 -20.5t91.5 -9q53 0 81.5 -28.5t28.5 -80.5v-76q0 -46 -31.5 -76t-78.5 -30h-1057q-49 0 -80 30t-31 76 v76q0 52 28.5 80.5t80.5 28.5h194q28 0 47.5 8.5t27 31.5t-20.5 62l-80 123h-738q-80 -131 -84 -139q-21 -28 -17.5 -57t42.5 -29h209q52 0 80 -28t28 -81v-76q0 -46 -30.5 -76t-77.5 -30h-879q-49 0 -79.5 30t-30.5 76zM786 1649q0 155 75.5 255.5t221.5 100.5 q58 0 117 -17.5t107 -42.5t93 -50t93 -42.5t90 -17.5q91 0 127 96q2 5 7 18t6.5 17t6.5 14t8 13.5t8.5 9.5t11.5 8t14 4t18 2q31 0 46 -22t15 -72q0 -155 -75.5 -255.5t-221.5 -100.5q-71 0 -145 26.5t-126 58.5t-114.5 58.5t-113.5 26.5q-90 0 -127 -97q-2 -5 -7 -18 t-6.5 -17t-6.5 -14t-8 -13.5t-8.5 -9.5t-11.5 -8t-14 -4t-18 -2q-62 0 -62 95zM1042 758h381q-38 50 -79 104.5t-74.5 99t-42.5 56.5z" />
<glyph unicode="&#xc4;" horiz-adv-x="2639" d="M31 106v76q0 53 28 81t80 28q127 0 182.5 25t116.5 116l619 926q31 47 55 62.5t74 15.5h239q44 0 66.5 -15t56.5 -63l664 -922q21 -28 34.5 -43.5t40 -38t53 -34t68 -20.5t91.5 -9q53 0 81.5 -28.5t28.5 -80.5v-76q0 -46 -31.5 -76t-78.5 -30h-1057q-49 0 -80 30t-31 76 v76q0 52 28.5 80.5t80.5 28.5h194q28 0 47.5 8.5t27 31.5t-20.5 62l-80 123h-738q-80 -131 -84 -139q-21 -28 -17.5 -57t42.5 -29h209q52 0 80 -28t28 -81v-76q0 -46 -30.5 -76t-77.5 -30h-879q-49 0 -79.5 30t-30.5 76zM741 1712q0 78 60 119t153 41h2q93 0 153 -41 t60 -119q0 -76 -60.5 -118t-152.5 -42h-2q-92 0 -152.5 42t-60.5 118zM1042 758h381q-38 50 -79 104.5t-74.5 99t-42.5 56.5zM1438 1712q0 78 60 119t153 41h2q93 0 153 -41t60 -119q0 -76 -60.5 -118t-152.5 -42h-2q-92 0 -152.5 42t-60.5 118z" />
<glyph unicode="&#xc5;" horiz-adv-x="2639" d="M31 106v76q0 53 28 81t80 28q127 0 182.5 25t116.5 116l619 926q31 47 55 62.5t74 15.5h239q44 0 66.5 -15t56.5 -63l664 -922q21 -28 34.5 -43.5t40 -38t53 -34t68 -20.5t91.5 -9q53 0 81.5 -28.5t28.5 -80.5v-76q0 -46 -31.5 -76t-78.5 -30h-1057q-49 0 -80 30t-31 76 v76q0 52 28.5 80.5t80.5 28.5h194q28 0 47.5 8.5t27 31.5t-20.5 62l-80 123h-738q-80 -131 -84 -139q-21 -28 -17.5 -57t42.5 -29h209q52 0 80 -28t28 -81v-76q0 -46 -30.5 -76t-77.5 -30h-879q-49 0 -79.5 30t-30.5 76zM934 1794q0 132 102 202t260 70h4q158 0 260.5 -70 t102.5 -202q0 -131 -103 -201.5t-260 -70.5h-4q-157 0 -259.5 70.5t-102.5 201.5zM1042 758h381q-38 50 -79 104.5t-74.5 99t-42.5 56.5zM1112 1794q0 -68 51.5 -103.5t132.5 -35.5h2q81 0 133 35.5t52 103.5q0 69 -52 104t-133 35h-2q-81 0 -132.5 -35t-51.5 -104z" />
<glyph unicode="&#xc6;" horiz-adv-x="3817" d="M31 106v76q0 53 28 81t80 28q127 0 182.5 25t116.5 116l619 924q31 47 55 62.5t74 15.5h2353q47 0 77.5 -30.5t30.5 -76.5v-301q0 -49 -30 -80t-76 -31h-74q-54 0 -82 28t-28 81q0 59 -23 88t-90 29h-752q-72 0 -101.5 -36t-29.5 -106v-159h349q42 0 77 17t35 50 q0 52 29 80.5t82 28.5h73q46 0 76.5 -31t30.5 -80v-377q0 -47 -30.5 -77.5t-76.5 -30.5h-73q-53 0 -82 28t-29 80q0 25 -21 41.5t-44 21.5t-47 5h-349v-160q0 -75 23 -110t90 -35h795q67 0 89.5 29.5t22.5 89.5q0 51 28.5 79.5t82.5 28.5h74q46 0 76 -31.5t30 -78.5l2 -302 q0 -46 -31.5 -76t-78.5 -30h-1950q-47 0 -79 30t-32 76v76q0 52 29 80.5t82 28.5q53 1 94 3.5t70.5 8.5t50.5 11.5t34 17t20.5 19.5t10.5 25.5t3.5 27.5t0.5 32v162h-962l-150 -221q-21 -28 -17.5 -57t42.5 -29h209q52 0 80 -28t28 -81v-76q0 -46 -30.5 -76t-77.5 -30h-879 q-49 0 -79.5 30t-30.5 76zM1098 840h800v159q0 70 -29.5 106t-101.5 36h-399q-32 0 -54.5 -10.5t-41.5 -38.5z" />
<glyph unicode="&#xc7;" horiz-adv-x="2140" d="M102 725q0 140 55 262.5t149.5 211t219.5 153t266.5 96t288.5 31.5q91 0 176.5 -11t150 -29t121 -39.5t95 -42.5t66 -39t40.5 -29l13 -11l-2 43q-3 53 27 83t83 30h74q46 0 76.5 -33t30.5 -80v-387q0 -49 -30.5 -81t-76.5 -32h-63q-38 0 -64.5 6.5t-44 23t-27.5 31 t-27 43.5t-30 48q-68 95 -202 149t-306 54q-79 0 -158.5 -16.5t-154.5 -51.5t-133 -85t-93.5 -123t-35.5 -159q0 -89 34.5 -165.5t93.5 -131t136.5 -93.5t164.5 -58t177 -19q78 0 149 11t116 23t101 38.5t76.5 39t69.5 44.5q11 7 16 10q21 13 33 19t36.5 14t51 4t55.5 -18 q74 -41 82 -45q44 -27 56 -68.5t-25 -83.5q-79 -81 -186 -140.5t-222.5 -92t-225.5 -47.5t-218 -15q-37 0 -53 2q2 -34 31 -58.5t70 -40.5t82.5 -33.5t72.5 -49t35 -76.5q8 -89 -71 -141.5t-245 -52.5q-160 0 -232.5 48t-72.5 128q0 59 78 59q80 0 80 -51q0 -32 33.5 -52 t95.5 -20q69 0 104 16.5t35 55.5q0 24 -22.5 42.5t-55 34.5t-65 37.5t-56 63t-24.5 98.5q-183 20 -341 79.5t-277.5 153t-188 226.5t-68.5 289z" />
<glyph unicode="&#xc8;" horiz-adv-x="2406" d="M51 106v76q0 52 29 80.5t82 28.5q53 1 94 3.5t70.5 8.5t50.5 11.5t34 17t20.5 19.5t10.5 25.5t3.5 27.5t0.5 32v563q0 20 -0.5 29t-2.5 25t-7 23t-14.5 18.5t-24 16.5t-36 12.5t-50 10.5t-66.5 5.5t-85 3.5q-52 0 -80.5 28.5t-28.5 81.5v74q0 46 32 76.5t79 30.5h1966 q47 0 77.5 -30.5t30.5 -76.5v-301q0 -49 -30 -80t-76 -31h-74q-54 0 -82 28t-28 81q0 59 -23 88t-90 29h-793q-72 0 -101.5 -36t-29.5 -106v-159h389q42 0 77.5 17t35.5 50q0 52 29 80.5t82 28.5h73q46 0 76.5 -31t30.5 -80v-377q0 -47 -30.5 -77.5t-76.5 -30.5h-73 q-53 0 -82 28t-29 80q0 36 -36.5 52t-76.5 16h-389v-160q0 -75 23 -110t90 -35h836q67 0 89.5 29.5t22.5 89.5q0 51 28.5 79.5t82.5 28.5h73q46 0 76.5 -31.5t30.5 -78.5l2 -302q0 -46 -32 -76t-79 -30h-1990q-47 0 -79 30t-32 76zM776 1970q1 31 15 55q20 32 58 50t97 12 t123 -43q80 -46 230 -175t225 -204q47 -43 30 -76q-12 -24 -38 -25t-46 7q-101 26 -288.5 91.5t-266.5 111.5q-49 28 -81.5 63t-45.5 68.5t-12 64.5z" />
<glyph unicode="&#xc9;" horiz-adv-x="2406" d="M51 106v76q0 52 29 80.5t82 28.5q53 1 94 3.5t70.5 8.5t50.5 11.5t34 17t20.5 19.5t10.5 25.5t3.5 27.5t0.5 32v563q0 20 -0.5 29t-2.5 25t-7 23t-14.5 18.5t-24 16.5t-36 12.5t-50 10.5t-66.5 5.5t-85 3.5q-52 0 -80.5 28.5t-28.5 81.5v74q0 46 32 76.5t79 30.5h1966 q47 0 77.5 -30.5t30.5 -76.5v-301q0 -49 -30 -80t-76 -31h-74q-54 0 -82 28t-28 81q0 59 -23 88t-90 29h-793q-72 0 -101.5 -36t-29.5 -106v-159h389q42 0 77.5 17t35.5 50q0 52 29 80.5t82 28.5h73q46 0 76.5 -31t30.5 -80v-377q0 -47 -30.5 -77.5t-76.5 -30.5h-73 q-53 0 -82 28t-29 80q0 36 -36.5 52t-76.5 16h-389v-160q0 -75 23 -110t90 -35h836q67 0 89.5 29.5t22.5 89.5q0 51 28.5 79.5t82.5 28.5h73q46 0 76.5 -31.5t30.5 -78.5l2 -302q0 -46 -32 -76t-79 -30h-1990q-47 0 -79 30t-32 76zM893 1589q-17 33 31 76q76 76 225 204.5 t229 174.5q64 37 123.5 43t97.5 -12t58 -50q14 -24 14.5 -55t-12.5 -64.5t-45.5 -68.5t-81.5 -63q-79 -46 -266.5 -111.5t-288.5 -91.5q-20 -8 -46 -7t-38 25z" />
<glyph unicode="&#xca;" horiz-adv-x="2406" d="M51 106v76q0 52 29 80.5t82 28.5q53 1 94 3.5t70.5 8.5t50.5 11.5t34 17t20.5 19.5t10.5 25.5t3.5 27.5t0.5 32v563q0 20 -0.5 29t-2.5 25t-7 23t-14.5 18.5t-24 16.5t-36 12.5t-50 10.5t-66.5 5.5t-85 3.5q-52 0 -80.5 28.5t-28.5 81.5v74q0 46 32 76.5t79 30.5h1966 q47 0 77.5 -30.5t30.5 -76.5v-301q0 -49 -30 -80t-76 -31h-74q-54 0 -82 28t-28 81q0 59 -23 88t-90 29h-793q-72 0 -101.5 -36t-29.5 -106v-159h389q42 0 77.5 17t35.5 50q0 52 29 80.5t82 28.5h73q46 0 76.5 -31t30.5 -80v-377q0 -47 -30.5 -77.5t-76.5 -30.5h-73 q-53 0 -82 28t-29 80q0 36 -36.5 52t-76.5 16h-389v-160q0 -75 23 -110t90 -35h836q67 0 89.5 29.5t22.5 89.5q0 51 28.5 79.5t82.5 28.5h73q46 0 76.5 -31.5t30.5 -78.5l2 -302q0 -46 -32 -76t-79 -30h-1990q-47 0 -79 30t-32 76zM679 1607.5q0 9.5 1 16t9 17t10 13 t12 13.5q262 286 381 352q74 45 131 45t131 -45q119 -66 381 -352q9 -9 12 -13t9.5 -14t8.5 -16.5t1.5 -16t-5.5 -18.5q-12 -23 -36.5 -23.5t-45.5 7.5q-59 16 -203.5 82.5t-252.5 124.5q-108 -58 -253 -124.5t-204 -82.5q-21 -8 -45.5 -7.5t-36.5 23.5q-5 9 -5 18.5z" />
<glyph unicode="&#xcb;" horiz-adv-x="2406" d="M51 106v76q0 52 29 80.5t82 28.5q53 1 94 3.5t70.5 8.5t50.5 11.5t34 17t20.5 19.5t10.5 25.5t3.5 27.5t0.5 32v563q0 20 -0.5 29t-2.5 25t-7 23t-14.5 18.5t-24 16.5t-36 12.5t-50 10.5t-66.5 5.5t-85 3.5q-52 0 -80.5 28.5t-28.5 81.5v74q0 46 32 76.5t79 30.5h1966 q47 0 77.5 -30.5t30.5 -76.5v-301q0 -49 -30 -80t-76 -31h-74q-54 0 -82 28t-28 81q0 59 -23 88t-90 29h-793q-72 0 -101.5 -36t-29.5 -106v-159h389q42 0 77.5 17t35.5 50q0 52 29 80.5t82 28.5h73q46 0 76.5 -31t30.5 -80v-377q0 -47 -30.5 -77.5t-76.5 -30.5h-73 q-53 0 -82 28t-29 80q0 36 -36.5 52t-76.5 16h-389v-160q0 -75 23 -110t90 -35h836q67 0 89.5 29.5t22.5 89.5q0 51 28.5 79.5t82.5 28.5h73q46 0 76.5 -31.5t30.5 -78.5l2 -302q0 -46 -32 -76t-79 -30h-1990q-47 0 -79 30t-32 76zM682 1753q0 78 60 119t153 41h2 q93 0 153 -41t60 -119q0 -76 -60.5 -118t-152.5 -42h-2q-92 0 -152.5 42t-60.5 118zM1378 1753q0 78 60 119t153 41h2q93 0 153 -41t60 -119q0 -76 -60.5 -118t-152.5 -42h-2q-92 0 -152.5 42t-60.5 118z" />
<glyph unicode="&#xcc;" horiz-adv-x="1355" d="M51 106v76q0 53 28.5 81t82.5 28q53 1 94 3.5t70.5 8.5t50.5 11.5t34 17t20.5 19.5t10.5 25.5t3.5 27.5t0.5 32v563q0 20 -0.5 29t-2.5 25t-7 23t-14.5 18.5t-24 16.5t-36 12.5t-50 10.5t-66.5 5.5t-85 3.5q-53 0 -81 28t-28 82v74q0 46 31 76.5t80 30.5h1032 q47 0 79 -30.5t32 -76.5v-74q0 -54 -29 -82t-82 -28q-61 -1 -106.5 -5t-76 -9t-51 -16.5t-31 -20t-15.5 -27t-6 -30t-1 -36.5v-563q0 -25 1 -36.5t6 -30.5t15.5 -27.5t31 -20t51 -16.5t76 -9t106.5 -5q53 0 82 -28.5t29 -80.5v-76q0 -46 -32 -76t-79 -30h-1032q-49 0 -80 30 t-31 76zM190.5 1970q0.5 31 14.5 55q20 32 58 50t97 12t123 -43q80 -46 230 -175t225 -204q48 -43 31 -76q-12 -24 -38 -25t-46 7q-101 26 -288.5 91.5t-266.5 111.5q-49 28 -81.5 63t-45.5 68.5t-12.5 64.5z" />
<glyph unicode="&#xcd;" horiz-adv-x="1355" d="M51 106v76q0 53 28.5 81t82.5 28q53 1 94 3.5t70.5 8.5t50.5 11.5t34 17t20.5 19.5t10.5 25.5t3.5 27.5t0.5 32v563q0 20 -0.5 29t-2.5 25t-7 23t-14.5 18.5t-24 16.5t-36 12.5t-50 10.5t-66.5 5.5t-85 3.5q-53 0 -81 28t-28 82v74q0 46 31 76.5t80 30.5h1032 q47 0 79 -30.5t32 -76.5v-74q0 -54 -29 -82t-82 -28q-61 -1 -106.5 -5t-76 -9t-51 -16.5t-31 -20t-15.5 -27t-6 -30t-1 -36.5v-563q0 -25 1 -36.5t6 -30.5t15.5 -27.5t31 -20t51 -16.5t76 -9t106.5 -5q53 0 82 -28.5t29 -80.5v-76q0 -46 -32 -76t-79 -30h-1032q-49 0 -80 30 t-31 76zM389 1589q-17 33 31 76q76 76 225 204.5t229 174.5q64 37 123.5 43t97.5 -12t58 -50q14 -24 14.5 -55t-12.5 -64.5t-45.5 -68.5t-81.5 -63q-79 -46 -266.5 -111.5t-288.5 -91.5q-20 -8 -46 -7t-38 25z" />
<glyph unicode="&#xce;" horiz-adv-x="1355" d="M51 106v76q0 53 28.5 81t82.5 28q53 1 94 3.5t70.5 8.5t50.5 11.5t34 17t20.5 19.5t10.5 25.5t3.5 27.5t0.5 32v563q0 20 -0.5 29t-2.5 25t-7 23t-14.5 18.5t-24 16.5t-36 12.5t-50 10.5t-66.5 5.5t-85 3.5q-53 0 -81 28t-28 82v74q0 46 31 76.5t80 30.5h1032 q47 0 79 -30.5t32 -76.5v-74q0 -54 -29 -82t-82 -28q-61 -1 -106.5 -5t-76 -9t-51 -16.5t-31 -20t-15.5 -27t-6 -30t-1 -36.5v-563q0 -25 1 -36.5t6 -30.5t15.5 -27.5t31 -20t51 -16.5t76 -9t106.5 -5q53 0 82 -28.5t29 -80.5v-76q0 -46 -32 -76t-79 -30h-1032q-49 0 -80 30 t-31 76zM134 1607.5q0 9.5 1 16t9 17t10 13t12 13.5q262 286 381 352q74 45 131 45t131 -45q119 -66 381 -352q31 -35 33 -54q1 -12 -6 -24q-12 -23 -36.5 -23.5t-45.5 7.5q-59 16 -204 82.5t-253 124.5q-108 -58 -253 -124.5t-204 -82.5q-21 -8 -45.5 -7.5t-36.5 23.5 q-5 9 -5 18.5z" />
<glyph unicode="&#xcf;" horiz-adv-x="1355" d="M51 106v76q0 53 28.5 81t82.5 28q53 1 94 3.5t70.5 8.5t50.5 11.5t34 17t20.5 19.5t10.5 25.5t3.5 27.5t0.5 32v563q0 20 -0.5 29t-2.5 25t-7 23t-14.5 18.5t-24 16.5t-36 12.5t-50 10.5t-66.5 5.5t-85 3.5q-53 0 -81 28t-28 82v74q0 46 31 76.5t80 30.5h1032 q47 0 79 -30.5t32 -76.5v-74q0 -54 -29 -82t-82 -28q-61 -1 -106.5 -5t-76 -9t-51 -16.5t-31 -20t-15.5 -27t-6 -30t-1 -36.5v-563q0 -25 1 -36.5t6 -30.5t15.5 -27.5t31 -20t51 -16.5t76 -9t106.5 -5q53 0 82 -28.5t29 -80.5v-76q0 -46 -32 -76t-79 -30h-1032q-49 0 -80 30 t-31 76zM117 1753q0 78 60 119t153 41h2q93 0 153 -41t60 -119q0 -76 -60.5 -118t-152.5 -42h-2q-92 0 -152.5 42t-60.5 118zM813 1753q0 78 60 119t153 41h2q93 0 153 -41t60 -119q0 -76 -60.5 -118t-152.5 -42h-2q-92 0 -152.5 42t-60.5 118z" />
<glyph unicode="&#xd1;" horiz-adv-x="2656" d="M51 106v76q0 52 29 80.5t82 28.5q53 1 94 3.5t70.5 8.5t50.5 11.5t34 17t20.5 19.5t10.5 25.5t3.5 27.5t0.5 32v563q0 20 -0.5 29t-2.5 25t-7 23t-14.5 18.5t-24 16.5t-36 12.5t-50 10.5t-66.5 5.5t-85 3.5q-52 0 -80.5 28.5t-28.5 81.5v74q0 46 32 76.5t79 30.5h588 q21 0 39 -2t34.5 -9.5t26 -11t25.5 -17.5t20.5 -18.5t22.5 -23.5t22 -23l922 -870v540q0 25 -1 36.5t-6 30t-15.5 27t-31 20t-51 16.5t-76 9t-106.5 5q-53 0 -81 28t-28 82v74q0 46 31 76.5t78 30.5h936q47 0 77.5 -30.5t30.5 -76.5v-74q0 -110 -108 -110q-61 -1 -106.5 -5 t-76 -9t-51 -16.5t-31 -20t-15.5 -27t-6 -30t-1 -36.5l2 -893q0 -46 -31.5 -76t-78.5 -30h-295q-17 0 -32.5 1t-28 4t-22.5 5.5t-20 7.5t-15.5 8t-14 9.5t-11 8.5t-10 9t-8.5 8l-850 803v-428q0 -25 1 -36.5t6 -30.5t15.5 -27.5t31 -20t51 -16.5t76 -9t106.5 -5 q53 0 81.5 -28.5t28.5 -80.5v-76q0 -46 -31.5 -76t-78.5 -30h-934q-47 0 -79 30t-32 76zM768 1649q0 155 75.5 255.5t221.5 100.5q58 0 117 -17.5t107 -42.5t93 -50t93 -42.5t90 -17.5q91 0 127 96q2 5 7 18t6.5 17t6.5 14t8 13.5t8.5 9.5t11.5 8t14 4t18 2q31 0 46 -22 t15 -72q0 -155 -75.5 -255.5t-221.5 -100.5q-58 0 -117 17.5t-107 42.5t-93 50t-93 42.5t-90 17.5q-90 0 -127 -97q-2 -5 -7 -18t-6.5 -17t-6.5 -14t-8 -13.5t-8.5 -9.5t-11.5 -8t-14 -4t-18 -2q-31 0 -46 22.5t-15 72.5z" />
<glyph unicode="&#xd2;" horiz-adv-x="2297" d="M102 723q0 109 37 214.5t119 205t201 174.5t297.5 120.5t392.5 45.5t391.5 -45.5t296.5 -120.5t201.5 -174.5t119.5 -205t37 -214.5q0 -108 -36.5 -212.5t-118.5 -203.5t-201 -174t-297 -120.5t-393 -45.5q-181 0 -336 31.5t-267.5 87.5t-199 128.5t-139 158t-79 173.5 t-26.5 177zM575 739q0 -93 33 -168.5t88.5 -124.5t130.5 -82t155 -47t167 -14q86 0 166 14t155 47t130 82t88.5 124t33.5 167q0 93 -33.5 168.5t-88.5 124.5t-130 82.5t-155 47.5t-166 14q-87 0 -167 -14.5t-155 -47.5t-130.5 -82t-88.5 -123.5t-33 -167.5zM761.5 1970 q0.5 31 14.5 55q20 32 58 50t97.5 12t123.5 -43q80 -46 229 -174.5t225 -204.5q48 -43 31 -76q-12 -24 -38 -25t-46 7q-101 26 -288.5 91.5t-266.5 111.5q-49 28 -81.5 63t-45.5 68.5t-12.5 64.5z" />
<glyph unicode="&#xd3;" horiz-adv-x="2297" d="M102 723q0 109 37 214.5t119 205t201 174.5t297.5 120.5t392.5 45.5t391.5 -45.5t296.5 -120.5t201.5 -174.5t119.5 -205t37 -214.5q0 -108 -36.5 -212.5t-118.5 -203.5t-201 -174t-297 -120.5t-393 -45.5q-181 0 -336 31.5t-267.5 87.5t-199 128.5t-139 158t-79 173.5 t-26.5 177zM575 739q0 -93 33 -168.5t88.5 -124.5t130.5 -82t155 -47t167 -14q86 0 166 14t155 47t130 82t88.5 124t33.5 167q0 93 -33.5 168.5t-88.5 124.5t-130 82.5t-155 47.5t-166 14q-87 0 -167 -14.5t-155 -47.5t-130.5 -82t-88.5 -123.5t-33 -167.5zM756 1589 q-17 33 30 76q75 75 225 204t230 175q64 37 123.5 43t97.5 -12t58 -50q14 -24 14.5 -55t-12.5 -64.5t-45.5 -68.5t-81.5 -63q-79 -46 -266.5 -111.5t-288.5 -91.5q-20 -8 -46 -7t-38 25z" />
<glyph unicode="&#xd4;" horiz-adv-x="2297" d="M102 723q0 109 37 214.5t119 205t201 174.5t297.5 120.5t392.5 45.5t391.5 -45.5t296.5 -120.5t201.5 -174.5t119.5 -205t37 -214.5q0 -108 -36.5 -212.5t-118.5 -203.5t-201 -174t-297 -120.5t-393 -45.5q-181 0 -336 31.5t-267.5 87.5t-199 128.5t-139 158t-79 173.5 t-26.5 177zM575 739q0 -93 33 -168.5t88.5 -124.5t130.5 -82t155 -47t167 -14q86 0 166 14t155 47t130 82t88.5 124t33.5 167q0 93 -33.5 168.5t-88.5 124.5t-130 82.5t-155 47.5t-166 14q-87 0 -167 -14.5t-155 -47.5t-130.5 -82t-88.5 -123.5t-33 -167.5zM605 1607.5 q0 9.5 1 16t9 17t10 13t12 13.5q262 286 381 352q74 45 131 45t131 -45q119 -66 381 -352q31 -35 33 -54q1 -12 -6 -24q-12 -23 -36.5 -23.5t-45.5 7.5q-59 16 -204 82.5t-253 124.5q-108 -58 -253 -124.5t-204 -82.5q-21 -8 -45.5 -7.5t-36.5 23.5q-5 9 -5 18.5z" />
<glyph unicode="&#xd5;" horiz-adv-x="2297" d="M102 723q0 109 37 214.5t119 205t201 174.5t297.5 120.5t392.5 45.5t391.5 -45.5t296.5 -120.5t201.5 -174.5t119.5 -205t37 -214.5q0 -108 -36.5 -212.5t-118.5 -203.5t-201 -174t-297 -120.5t-393 -45.5q-181 0 -336 31.5t-267.5 87.5t-199 128.5t-139 158t-79 173.5 t-26.5 177zM575 739q0 -93 33 -168.5t88.5 -124.5t130.5 -82t155 -47t167 -14q86 0 166 14t155 47t130 82t88.5 124t33.5 167q0 93 -33.5 168.5t-88.5 124.5t-130 82.5t-155 47.5t-166 14q-87 0 -167 -14.5t-155 -47.5t-130.5 -82t-88.5 -123.5t-33 -167.5zM627 1649 q0 155 75.5 255.5t221.5 100.5q71 0 145 -26.5t126 -58.5t114.5 -58.5t113.5 -26.5q91 0 127 96q2 5 7 18t6.5 17t6.5 14t8 13.5t8.5 9.5t11.5 8t14 4t18 2q62 0 62 -94q0 -155 -75.5 -255.5t-221.5 -100.5q-58 0 -117 17.5t-107 42.5t-93 50t-93 42.5t-90 17.5 q-90 0 -127 -97q-2 -5 -7 -18t-6.5 -17t-6.5 -14t-8 -13.5t-8.5 -9.5t-11.5 -8t-14 -4t-18 -2q-31 0 -46 22.5t-15 72.5z" />
<glyph unicode="&#xd6;" horiz-adv-x="2297" d="M102 723q0 109 37 214.5t119 205t201 174.5t297.5 120.5t392.5 45.5t391.5 -45.5t296.5 -120.5t201.5 -174.5t119.5 -205t37 -214.5q0 -108 -36.5 -212.5t-118.5 -203.5t-201 -174t-297 -120.5t-393 -45.5q-181 0 -336 31.5t-267.5 87.5t-199 128.5t-139 158t-79 173.5 t-26.5 177zM575 739q0 -93 33 -168.5t88.5 -124.5t130.5 -82t155 -47t167 -14q86 0 166 14t155 47t130 82t88.5 124t33.5 167q0 93 -33.5 168.5t-88.5 124.5t-130 82.5t-155 47.5t-166 14q-87 0 -167 -14.5t-155 -47.5t-130.5 -82t-88.5 -123.5t-33 -167.5zM586 1753 q0 78 60 119t153 41h2q93 0 153 -41t60 -119q0 -76 -60.5 -118t-152.5 -42h-2q-92 0 -152.5 42t-60.5 118zM1282 1753q0 78 60 119t153 41h2q93 0 153 -41t60 -119q0 -76 -60.5 -118t-152.5 -42h-2q-92 0 -152.5 42t-60.5 118z" />
<glyph unicode="&#xd8;" horiz-adv-x="2297" d="M102 723q0 109 37 214.5t119 205t201 174.5t297.5 120.5t392.5 45.5q206 0 375 -41l78 98q40 51 78.5 71.5t111.5 20.5h84q63 0 84 -40t-14 -83l-138 -176q192 -109 289.5 -272.5t97.5 -337.5q0 -108 -36.5 -212.5t-118.5 -203.5t-201 -174t-297 -120.5t-393 -45.5 q-200 0 -373 39l-82 -106q-40 -52 -78 -72.5t-110 -20.5h-84q-63 0 -84.5 40t14.5 83l142 183q-131 72 -221.5 175.5t-130.5 212.5t-40 222zM575 739q0 -205 156 -321l576 741q-80 15 -158 15q-87 0 -167 -14.5t-155 -47.5t-130.5 -82t-88.5 -123.5t-33 -167.5zM1014 311 q60 -8 135 -8q86 0 166 14t155 47t130 82t88.5 124t33.5 167q0 191 -139 307z" />
<glyph unicode="&#xd9;" horiz-adv-x="2686" d="M37 1253v74q0 46 30.5 76.5t79.5 30.5h893q47 0 79 -30.5t32 -76.5v-74q0 -54 -29 -82t-82 -28q-114 0 -155 -32.5t-41 -111.5v-292q0 -76 24.5 -139.5t66.5 -107t95 -76.5t114.5 -51t119 -27t114.5 -9q70 0 139.5 11.5t142 41t128 74t90.5 116.5t35 162v297 q0 79 -41 111.5t-156 32.5q-53 0 -81.5 28t-28.5 82v74q0 46 31.5 76.5t78.5 30.5h824q47 0 78.5 -30.5t31.5 -76.5v-74q0 -53 -29 -81.5t-81 -28.5q-96 0 -154.5 -37t-58.5 -107v-266q0 -76 -15.5 -150.5t-51 -150.5t-89 -143.5t-133 -126.5t-178.5 -101.5t-231.5 -67 t-285.5 -24.5q-154 0 -286.5 24.5t-231.5 67t-179 101.5t-133 126.5t-88.5 143.5t-51 150.5t-15.5 150.5v266q0 71 -50 107.5t-163 36.5q-52 0 -80 28.5t-28 81.5zM853.5 1970q0.5 31 14.5 55q20 32 58 50t97.5 12t123.5 -43q80 -46 230 -175t225 -204q47 -43 30 -76 q-12 -24 -38 -25t-46 7q-101 26 -288.5 91.5t-266.5 111.5q-49 28 -81.5 63t-45.5 68.5t-12.5 64.5z" />
<glyph unicode="&#xda;" horiz-adv-x="2686" d="M37 1253v74q0 46 30.5 76.5t79.5 30.5h893q47 0 79 -30.5t32 -76.5v-74q0 -54 -29 -82t-82 -28q-114 0 -155 -32.5t-41 -111.5v-292q0 -76 24.5 -139.5t66.5 -107t95 -76.5t114.5 -51t119 -27t114.5 -9q70 0 139.5 11.5t142 41t128 74t90.5 116.5t35 162v297 q0 79 -41 111.5t-156 32.5q-53 0 -81.5 28t-28.5 82v74q0 46 31.5 76.5t78.5 30.5h824q47 0 78.5 -30.5t31.5 -76.5v-74q0 -53 -29 -81.5t-81 -28.5q-96 0 -154.5 -37t-58.5 -107v-266q0 -76 -15.5 -150.5t-51 -150.5t-89 -143.5t-133 -126.5t-178.5 -101.5t-231.5 -67 t-285.5 -24.5q-154 0 -286.5 24.5t-231.5 67t-179 101.5t-133 126.5t-88.5 143.5t-51 150.5t-15.5 150.5v266q0 71 -50 107.5t-163 36.5q-52 0 -80 28.5t-28 81.5zM1053 1589q-17 33 30 76q75 75 225 204t230 175q64 37 123.5 43t97.5 -12t58 -50q14 -24 14.5 -55 t-12.5 -64.5t-45.5 -68.5t-81.5 -63q-79 -46 -266.5 -111.5t-288.5 -91.5q-20 -8 -46 -7t-38 25z" />
<glyph unicode="&#xdb;" horiz-adv-x="2686" d="M37 1253v74q0 46 30.5 76.5t79.5 30.5h893q47 0 79 -30.5t32 -76.5v-74q0 -54 -29 -82t-82 -28q-114 0 -155 -32.5t-41 -111.5v-292q0 -76 24.5 -139.5t66.5 -107t95 -76.5t114.5 -51t119 -27t114.5 -9q70 0 139.5 11.5t142 41t128 74t90.5 116.5t35 162v297 q0 79 -41 111.5t-156 32.5q-53 0 -81.5 28t-28.5 82v74q0 46 31.5 76.5t78.5 30.5h824q47 0 78.5 -30.5t31.5 -76.5v-74q0 -53 -29 -81.5t-81 -28.5q-96 0 -154.5 -37t-58.5 -107v-266q0 -76 -15.5 -150.5t-51 -150.5t-89 -143.5t-133 -126.5t-178.5 -101.5t-231.5 -67 t-285.5 -24.5q-154 0 -286.5 24.5t-231.5 67t-179 101.5t-133 126.5t-88.5 143.5t-51 150.5t-15.5 150.5v266q0 71 -50 107.5t-163 36.5q-52 0 -80 28.5t-28 81.5zM799.5 1607.5q-0.5 9.5 1.5 16t8.5 16.5t9.5 14t12 13q262 286 381 352q74 45 131 45q58 0 132 -45 q118 -66 368 -339q8 -9 12 -13q31 -35 33 -54q1 -12 -6 -24q-12 -23 -36.5 -23.5t-45.5 7.5q-59 16 -204 82.5t-253 124.5q-108 -58 -252.5 -124.5t-203.5 -82.5q-21 -8 -45.5 -7.5t-36.5 23.5q-5 9 -5.5 18.5z" />
<glyph unicode="&#xdc;" horiz-adv-x="2686" d="M37 1253v74q0 46 30.5 76.5t79.5 30.5h893q47 0 79 -30.5t32 -76.5v-74q0 -54 -29 -82t-82 -28q-114 0 -155 -32.5t-41 -111.5v-292q0 -76 24.5 -139.5t66.5 -107t95 -76.5t114.5 -51t119 -27t114.5 -9q70 0 139.5 11.5t142 41t128 74t90.5 116.5t35 162v297 q0 79 -41 111.5t-156 32.5q-53 0 -81.5 28t-28.5 82v74q0 46 31.5 76.5t78.5 30.5h824q47 0 78.5 -30.5t31.5 -76.5v-74q0 -53 -29 -81.5t-81 -28.5q-96 0 -154.5 -37t-58.5 -107v-266q0 -76 -15.5 -150.5t-51 -150.5t-89 -143.5t-133 -126.5t-178.5 -101.5t-231.5 -67 t-285.5 -24.5q-154 0 -286.5 24.5t-231.5 67t-179 101.5t-133 126.5t-88.5 143.5t-51 150.5t-15.5 150.5v266q0 71 -50 107.5t-163 36.5q-52 0 -80 28.5t-28 81.5zM815 1753q0 78 60 119t153 41h2q93 0 153 -41t60 -119q0 -76 -60.5 -118t-152.5 -42h-2q-92 0 -152.5 42 t-60.5 118zM1511 1753q0 78 60 119t153 41h2q93 0 153 -41t60 -119q0 -76 -60.5 -118t-152.5 -42h-2q-92 0 -152.5 42t-60.5 118z" />
<glyph unicode="&#xdd;" horiz-adv-x="2484" d="M41 1253v74q0 46 31 76.5t80 30.5h952q47 0 78.5 -30.5t31.5 -76.5v-74q0 -54 -28.5 -82t-81.5 -28h-74q-49 0 -61.5 -30t22.5 -56l301 -211l297 211q34 29 22 57.5t-59 28.5h-73q-53 0 -82 28t-29 82v74q0 46 32 76.5t79 30.5h854q49 0 79.5 -30.5t30.5 -76.5v-74 q0 -110 -108 -110q-124 0 -222 -36t-192 -110q-31 -25 -192.5 -147t-180.5 -137q-28 -23 -42 -45.5t-17 -40.5t-4 -56v-135q0 -25 1 -36.5t6 -30.5t15.5 -27.5t31 -20t51 -16.5t76 -9t106.5 -5q53 0 81.5 -28.5t28.5 -80.5v-76q0 -46 -31.5 -76t-78.5 -30h-1059 q-47 0 -78 30t-31 76v76q0 52 28 80.5t81 28.5q53 1 94.5 3.5t71.5 8.5t51 11.5t34 17t20.5 19.5t10.5 25.5t3.5 27.5t0.5 32v135q0 41 -2.5 59.5t-15.5 41t-43 45.5q-335 255 -371 282q-197 144 -417 144q-49 0 -79 28.5t-30 81.5zM1034 1589q-17 33 31 76q75 75 225 204 t230 175q64 37 123 43t97 -12t58 -50q14 -24 14.5 -55t-12.5 -64.5t-45.5 -68.5t-81.5 -63q-79 -46 -266.5 -111.5t-288.5 -91.5q-20 -8 -46 -7t-38 25z" />
<glyph unicode="&#xe0;" d="M88 336q-9 165 111 250t366 94q245 8 314 23q92 19 110 75q6 18 6 41q0 65 -49 113.5t-149 48.5q-83 0 -136 -30t-53 -91q0 -115 -200 -115q-44 0 -78.5 6.5t-56 15t-37 22.5t-22.5 24.5t-10.5 25t-4 20t-0.5 13.5q0 126 153 210.5t408 93.5q684 20 684 -461v-365 q0 -42 25.5 -62t60 -14.5t61.5 31.5l27 27q79 79 168 -4l6 -9q87 -84 0 -184q-63 -73 -185.5 -126t-281.5 -38q-57 5 -126.5 32.5t-115.5 70.5q-58 -44 -163.5 -74t-245.5 -33q-271 -6 -424 99t-162 270zM358.5 1686q0.5 31 14.5 55q20 32 58 49.5t97 11.5t123 -43 q80 -46 230 -175t225 -204q48 -43 31 -75q-12 -24 -38 -25.5t-46 6.5q-101 26 -288.5 91.5t-266.5 111.5q-49 28 -81.5 63t-45.5 69t-12.5 65zM508 338q9 -73 95.5 -106t209.5 -25q50 3 95.5 14.5t78 32.5t31.5 47q-2 68 -2 221q-64 -27 -221 -39q-48 -3 -77.5 -6t-68.5 -9 t-62 -16t-44.5 -25t-29.5 -37.5t-5 -51.5z" />
<glyph unicode="&#xe1;" d="M88 336q-9 165 111 250t366 94q245 8 314 23q92 19 110 75q6 18 6 41q0 65 -49 113.5t-149 48.5q-83 0 -136 -30t-53 -91q0 -115 -200 -115q-44 0 -78.5 6.5t-56 15t-37 22.5t-22.5 24.5t-10.5 25t-4 20t-0.5 13.5q0 126 153 210.5t408 93.5q684 20 684 -461v-365 q0 -42 25.5 -62t60 -14.5t61.5 31.5l27 27q79 79 168 -4l6 -9q87 -84 0 -184q-63 -73 -185.5 -126t-281.5 -38q-57 5 -126.5 32.5t-115.5 70.5q-58 -44 -163.5 -74t-245.5 -33q-271 -6 -424 99t-162 270zM475 1305q-17 32 31 75q75 75 225 204t230 175q64 37 123 43 t97 -11.5t58 -49.5q14 -24 14.5 -55t-12.5 -65t-45.5 -69t-81.5 -63q-79 -46 -266.5 -111.5t-288.5 -91.5q-20 -8 -46 -6.5t-38 25.5zM508 338q9 -73 95.5 -106t209.5 -25q50 3 95.5 14.5t78 32.5t31.5 47q-2 68 -2 221q-64 -27 -221 -39q-48 -3 -77.5 -6t-68.5 -9t-62 -16 t-44.5 -25t-29.5 -37.5t-5 -51.5z" />
<glyph unicode="&#xe2;" d="M88 336q-9 165 111 250t366 94q245 8 314 23q92 19 110 75q6 18 6 41q0 65 -49 113.5t-149 48.5q-83 0 -136 -30t-53 -91q0 -115 -200 -115q-44 0 -78.5 6.5t-56 15t-37 22.5t-22.5 24.5t-10.5 25t-4 20t-0.5 13.5q0 126 153 210.5t408 93.5q684 20 684 -461v-365 q0 -42 25.5 -62t60 -14.5t61.5 31.5l27 27q79 79 168 -4l6 -9q87 -84 0 -184q-63 -73 -185.5 -126t-281.5 -38q-57 5 -126.5 32.5t-115.5 70.5q-58 -44 -163.5 -74t-245.5 -33q-271 -6 -424 99t-162 270zM270 1305q-17 29 23 73l4 4q264 288 381 353q74 45 131 45t131 -45 q117 -65 381 -353q30 -33 33 -51q1 -13 -6 -26q-12 -23 -36.5 -24t-45.5 7q-59 16 -204 82.5t-253 124.5q-108 -58 -253 -124.5t-204 -82.5q-21 -8 -45.5 -7t-36.5 24zM508 338q9 -73 95.5 -106t209.5 -25q50 3 95.5 14.5t78 32.5t31.5 47q-2 68 -2 221q-64 -27 -221 -39 q-48 -3 -77.5 -6t-68.5 -9t-62 -16t-44.5 -25t-29.5 -37.5t-5 -51.5z" />
<glyph unicode="&#xe3;" d="M88 336q-9 165 111 250t366 94q245 8 314 23q92 19 110 75q6 18 6 41q0 65 -49 113.5t-149 48.5q-83 0 -136 -30t-53 -91q0 -115 -200 -115q-44 0 -78.5 6.5t-56 15t-37 22.5t-22.5 24.5t-10.5 25t-4 20t-0.5 13.5q0 126 153 210.5t408 93.5q684 20 684 -461v-365 q0 -42 25.5 -62t60 -14.5t61.5 31.5l27 27q79 79 168 -4l6 -9q87 -84 0 -184q-63 -73 -185.5 -126t-281.5 -38q-57 5 -126.5 32.5t-115.5 70.5q-58 -44 -163.5 -74t-245.5 -33q-271 -6 -424 99t-162 270zM274 1364q0 155 75.5 255.5t221.5 100.5q58 0 117 -17.5t107 -42.5 t93 -50t93 -42.5t90 -17.5q90 0 127 97q2 5 7 18t6.5 17t6.5 14t8 13.5t8.5 9.5t11.5 8t14 4t18 2q31 0 46 -22.5t15 -72.5q0 -155 -75.5 -255.5t-221.5 -100.5q-71 0 -145 26.5t-126 58.5t-114.5 58.5t-113.5 26.5q-91 0 -127 -96q-2 -5 -7 -18t-6.5 -17t-6.5 -14t-8 -13.5 t-8.5 -9.5t-11.5 -8t-14 -4t-18 -2q-62 0 -62 94zM508 338q9 -73 95.5 -106t209.5 -25q50 3 95.5 14.5t78 32.5t31.5 47q-2 68 -2 221q-64 -27 -221 -39q-48 -3 -77.5 -6t-68.5 -9t-62 -16t-44.5 -25t-29.5 -37.5t-5 -51.5z" />
<glyph unicode="&#xe4;" d="M88 336q-9 165 111 250t366 94q245 8 314 23q92 19 110 75q6 18 6 41q0 65 -49 113.5t-149 48.5q-83 0 -136 -30t-53 -91q0 -115 -200 -115q-44 0 -78.5 6.5t-56 15t-37 22.5t-22.5 24.5t-10.5 25t-4 20t-0.5 13.5q0 126 153 210.5t408 93.5q684 20 684 -461v-365 q0 -42 25.5 -62t60 -14.5t61.5 31.5l27 27q79 79 168 -4l6 -9q87 -84 0 -184q-63 -73 -185.5 -126t-281.5 -38q-57 5 -126.5 32.5t-115.5 70.5q-58 -44 -163.5 -74t-245.5 -33q-271 -6 -424 99t-162 270zM248 1468q0 78 60 119t153 41h2q93 0 153 -41t60 -119 q0 -76 -60.5 -117.5t-152.5 -41.5h-2q-92 0 -152.5 41.5t-60.5 117.5zM508 338q9 -73 95.5 -106t209.5 -25q50 3 95.5 14.5t78 32.5t31.5 47q-2 68 -2 221q-64 -27 -221 -39q-48 -3 -77.5 -6t-68.5 -9t-62 -16t-44.5 -25t-29.5 -37.5t-5 -51.5zM944 1468q0 78 60 119t153 41 h2q93 0 153 -41t60 -119q0 -76 -60.5 -117.5t-152.5 -41.5h-2q-92 0 -152.5 41.5t-60.5 117.5z" />
<glyph unicode="&#xe5;" d="M88 336q-9 165 111 250t366 94q245 8 314 23q92 19 110 75q6 18 6 41q0 65 -49 113.5t-149 48.5q-83 0 -136 -30t-53 -91q0 -115 -200 -115q-44 0 -78.5 6.5t-56 15t-37 22.5t-22.5 24.5t-10.5 25t-4 20t-0.5 13.5q0 126 153 210.5t408 93.5q684 20 684 -461v-365 q0 -42 25.5 -62t60 -14.5t61.5 31.5l27 27q79 79 168 -4l6 -9q87 -84 0 -184q-63 -73 -185.5 -126t-281.5 -38q-57 5 -126.5 32.5t-115.5 70.5q-58 -44 -163.5 -74t-245.5 -33q-271 -6 -424 99t-162 270zM444 1509q0 132 102.5 202.5t260.5 70.5h4q158 0 260.5 -70.5 t102.5 -202.5q0 -131 -103 -201.5t-260 -70.5h-4q-157 0 -260 70.5t-103 201.5zM508 338q9 -73 95.5 -106t209.5 -25q50 3 95.5 14.5t78 32.5t31.5 47q-2 68 -2 221q-64 -27 -221 -39q-48 -3 -77.5 -6t-68.5 -9t-62 -16t-44.5 -25t-29.5 -37.5t-5 -51.5zM623 1509 q0 -68 51.5 -103.5t132.5 -35.5h2q81 0 132.5 35.5t51.5 103.5q0 69 -51.5 104.5t-132.5 35.5h-2q-81 0 -132.5 -35.5t-51.5 -104.5z" />
<glyph unicode="&#xe6;" horiz-adv-x="2611" d="M88 336q-9 165 111 250t366 94q245 8 314 23q92 19 110 75q6 18 6 41q0 65 -49 113.5t-149 48.5q-83 0 -136 -30t-53 -91q0 -115 -200 -115q-44 0 -78.5 6.5t-56 15t-37 22.5t-22.5 24.5t-10.5 25t-4 20t-0.5 13.5q0 126 153.5 211.5t407.5 92.5q365 12 526 -125 q189 125 488 125q344 0 546.5 -162t208.5 -426q0 -47 -30 -79t-76 -32h-973q35 -115 141 -175t234 -60q65 0 127.5 15.5t107.5 39.5t68.5 39.5t38.5 28.5q70 60 153 16q62 -34 72 -39q37 -23 46 -58.5t-19 -74.5q-17 -21 -40.5 -44.5t-77.5 -61t-117 -66t-160.5 -49.5 t-206.5 -21q-407 0 -615 211q-208 -205 -528 -211q-271 -6 -424 99t-162 270zM508 338q17 -141 264 -131q85 3 177.5 47.5t133.5 103.5q-36 89 -43 179q-68 -40 -245 -54q-48 -3 -77.5 -6t-68.5 -9t-62 -16t-44.5 -25t-29.5 -37.5t-5 -51.5zM1456 719h674 q-41 101 -134.5 156t-203.5 55t-202.5 -54.5t-133.5 -156.5z" />
<glyph unicode="&#xe7;" horiz-adv-x="1585" d="M82 571q0 133 51 244t147.5 191.5t245 125t334.5 44.5q165 0 310 -41.5t237 -121t92 -179.5q0 -73 -53.5 -105.5t-155.5 -32.5q-101 0 -150.5 27.5t-49.5 87.5q0 49 -64 84.5t-162 34.5q-72 -2 -137 -23.5t-117.5 -63t-83 -108.5t-30.5 -151q0 -86 34.5 -153.5t92 -108 t125.5 -61.5t141 -21q184 0 340 122q70 60 153 19l72 -39q38 -21 46.5 -58.5t-19.5 -74.5q-15 -19 -42.5 -43.5t-83.5 -60.5t-122.5 -64.5t-166 -50t-208.5 -23.5h-24q2 -34 31.5 -58t70.5 -39.5t82 -33t71.5 -49t34.5 -76.5q8 -89 -71 -141.5t-244 -52.5q-160 0 -232.5 48 t-72.5 128q0 59 78 59q80 0 80 -51q0 -32 33.5 -52t95.5 -20q69 0 104 16.5t35 55.5q0 21 -16 37.5t-40.5 28t-53.5 28.5t-53.5 37.5t-41.5 57.5t-18 85q-118 14 -220 56q-78 33 -147 81t-128.5 114t-94.5 155.5t-35 189.5z" />
<glyph unicode="&#xe8;" horiz-adv-x="1673" d="M82 571q0 270 202.5 437.5t551.5 167.5q344 0 546.5 -162t208.5 -426q0 -47 -30 -79t-76 -32h-973q35 -115 141 -175t234 -60q65 0 127.5 15.5t107.5 39.5t68.5 39.5t38.5 28.5q70 60 153 16q61 -34 72 -39q37 -23 46 -58.5t-19 -74.5q-17 -21 -40.5 -44.5t-77.5 -61 t-117 -66t-160.5 -49.5t-206.5 -21q-125 0 -233.5 21t-188 56.5t-144.5 84.5t-107 103.5t-71 114t-41 115t-12 109.5zM409.5 1686q0.5 31 14.5 55q20 32 58 49.5t97 11.5t123 -43q80 -46 230 -175t225 -204q48 -43 31 -75q-12 -24 -38 -25.5t-46 6.5q-101 26 -288.5 91.5 t-266.5 111.5q-49 28 -81.5 63t-45.5 69t-12.5 65zM518 719h674q-41 101 -134.5 156t-203.5 55t-202.5 -54.5t-133.5 -156.5z" />
<glyph unicode="&#xe9;" horiz-adv-x="1673" d="M82 571q0 270 202.5 437.5t551.5 167.5q344 0 546.5 -162t208.5 -426q0 -47 -30 -79t-76 -32h-973q35 -115 141 -175t234 -60q65 0 127.5 15.5t107.5 39.5t68.5 39.5t38.5 28.5q70 60 153 16q61 -34 72 -39q37 -23 46 -58.5t-19 -74.5q-17 -21 -40.5 -44.5t-77.5 -61 t-117 -66t-160.5 -49.5t-206.5 -21q-125 0 -233.5 21t-188 56.5t-144.5 84.5t-107 103.5t-71 114t-41 115t-12 109.5zM485 1305q-17 32 31 75q75 75 225 204t230 175q64 37 123 43t97 -11.5t58 -49.5q14 -24 14.5 -55t-12.5 -65t-45.5 -69t-81.5 -63q-79 -46 -266.5 -111.5 t-288.5 -91.5q-20 -8 -46 -6.5t-38 25.5zM518 719h674q-41 101 -134.5 156t-203.5 55t-202.5 -54.5t-133.5 -156.5z" />
<glyph unicode="&#xea;" horiz-adv-x="1673" d="M82 571q0 270 202.5 437.5t551.5 167.5q344 0 546.5 -162t208.5 -426q0 -47 -30 -79t-76 -32h-973q35 -115 141 -175t234 -60q65 0 127.5 15.5t107.5 39.5t68.5 39.5t38.5 28.5q70 60 153 16q61 -34 72 -39q37 -23 46 -58.5t-19 -74.5q-17 -21 -40.5 -44.5t-77.5 -61 t-117 -66t-160.5 -49.5t-206.5 -21q-125 0 -233.5 21t-188 56.5t-144.5 84.5t-107 103.5t-71 114t-41 115t-12 109.5zM299 1305q-17 29 23 73l4 4q264 288 381 353q74 45 131 45t131 -45q117 -65 381 -353q31 -35 32 -54q1 -12 -6 -23q-12 -23 -36.5 -24t-45.5 7 q-59 16 -203.5 82.5t-252.5 124.5q-108 -58 -253 -124.5t-204 -82.5q-21 -8 -45.5 -7t-36.5 24zM518 719h674q-41 101 -134.5 156t-203.5 55t-202.5 -54.5t-133.5 -156.5z" />
<glyph unicode="&#xeb;" horiz-adv-x="1673" d="M82 571q0 270 202.5 437.5t551.5 167.5q344 0 546.5 -162t208.5 -426q0 -47 -30 -79t-76 -32h-973q35 -115 141 -175t234 -60q65 0 127.5 15.5t107.5 39.5t68.5 39.5t38.5 28.5q70 60 153 16q61 -34 72 -39q37 -23 46 -58.5t-19 -74.5q-17 -21 -40.5 -44.5t-77.5 -61 t-117 -66t-160.5 -49.5t-206.5 -21q-125 0 -233.5 21t-188 56.5t-144.5 84.5t-107 103.5t-71 114t-41 115t-12 109.5zM274 1468q0 78 60 119t153 41h2q93 0 153 -41t60 -119q0 -76 -60.5 -117.5t-152.5 -41.5h-2q-92 0 -152.5 41.5t-60.5 117.5zM518 719h674 q-41 101 -134.5 156t-203.5 55t-202.5 -54.5t-133.5 -156.5zM971 1468q0 78 60 119t153 41h2q93 0 153 -41t60 -119q0 -76 -60.5 -117.5t-152.5 -41.5h-2q-92 0 -152.5 41.5t-60.5 117.5z" />
<glyph unicode="&#xec;" horiz-adv-x="1077" d="M-14.5 1686q0.5 31 14.5 55q20 32 58 49.5t97.5 11.5t123.5 -43q80 -46 229 -174.5t225 -204.5q48 -43 31 -75q-12 -24 -38 -25.5t-46 6.5q-101 26 -288.5 91.5t-266.5 111.5q-49 28 -81.5 63t-45.5 69t-12.5 65zM61 109v36q0 53 29.5 82t81.5 29q96 0 129 29t33 90v397 q0 63 -33 92t-129 29q-52 0 -81.5 29.5t-29.5 81.5v36q0 46 32 76.5t79 30.5h485q46 0 76.5 -32t30.5 -79v-661q0 -61 33 -90t129 -29q52 0 81 -29t29 -82v-36q0 -46 -31.5 -76.5t-78.5 -30.5h-754q-47 0 -79 30.5t-32 76.5z" />
<glyph unicode="&#xed;" horiz-adv-x="1077" d="M61 109v36q0 53 29.5 82t81.5 29q96 0 129 29t33 90v397q0 63 -33 92t-129 29q-52 0 -81.5 29.5t-29.5 81.5v36q0 46 32 76.5t79 30.5h485q46 0 76.5 -32t30.5 -79v-661q0 -61 33 -90t129 -29q52 0 81 -29t29 -82v-36q0 -46 -31.5 -76.5t-78.5 -30.5h-754q-47 0 -79 30.5 t-32 76.5zM168 1305q-17 32 31 75q76 76 225 204.5t229 174.5q64 37 123.5 43t97.5 -11.5t58 -49.5q14 -24 14.5 -55t-12.5 -65t-45.5 -69t-81.5 -63q-79 -46 -266.5 -111.5t-288.5 -91.5q-20 -8 -46 -6.5t-38 25.5z" />
<glyph unicode="&#xee;" horiz-adv-x="1077" d="M-41 1305q-17 29 23 73l4 4q264 288 381 353q74 45 131 45t131 -45q117 -65 381 -353q31 -35 32 -54q1 -12 -6 -23q-12 -23 -36.5 -24t-45.5 7q-59 16 -203.5 82.5t-252.5 124.5q-108 -58 -253 -124.5t-204 -82.5q-21 -8 -45.5 -7t-36.5 24zM61 109v36q0 53 29.5 82 t81.5 29q96 0 129 29t33 90v397q0 63 -33 92t-129 29q-52 0 -81.5 29.5t-29.5 81.5v36q0 46 32 76.5t79 30.5h485q46 0 76.5 -32t30.5 -79v-661q0 -61 33 -90t129 -29q52 0 81 -29t29 -82v-36q0 -46 -31.5 -76.5t-78.5 -30.5h-754q-47 0 -79 30.5t-32 76.5z" />
<glyph unicode="&#xef;" horiz-adv-x="1077" d="M-74 1468q0 78 60 119t153 41h2q93 0 153 -41t60 -119q0 -76 -60.5 -117.5t-152.5 -41.5h-2q-92 0 -152.5 41.5t-60.5 117.5zM61 109v36q0 53 29.5 82t81.5 29q96 0 129 29t33 90v397q0 63 -33 92t-129 29q-52 0 -81.5 29.5t-29.5 81.5v36q0 46 32 76.5t79 30.5h485 q46 0 76.5 -32t30.5 -79v-661q0 -61 33 -90t129 -29q52 0 81 -29t29 -82v-36q0 -46 -31.5 -76.5t-78.5 -30.5h-754q-47 0 -79 30.5t-32 76.5zM623 1468q0 78 60 119t153 41h2q93 0 153 -41t60 -119q0 -76 -60.5 -117.5t-152.5 -41.5h-2q-92 0 -152.5 41.5t-60.5 117.5z" />
<glyph unicode="&#xf1;" horiz-adv-x="2183" d="M51 106v37q0 53 28.5 82t82.5 29q66 0 102 15.5t47.5 39.5t12.5 66v399q-2 62 -34 90.5t-128 28.5q-54 0 -82.5 29t-28.5 82v36q0 46 31 76.5t80 30.5h483q46 0 76.5 -32t30.5 -79v-121q52 76 157 148.5t246 97.5q161 28 297 -4t226.5 -111.5t141 -197t50.5 -258.5v-215 q1 -42 12.5 -66t47.5 -39.5t102 -15.5q52 0 81 -29t29 -82v-37q0 -46 -31.5 -76t-78.5 -30h-754q-47 0 -78 30t-31 76v37q0 53 28.5 82t80.5 29q67 0 103.5 15.5t48 39.5t12.5 66v200q0 45 -10 87.5t-34.5 83.5t-61.5 69t-96.5 40t-133.5 1q-84 -12 -154 -54.5t-111.5 -98.5 t-64.5 -112.5t-24 -103.5v-112q1 -42 12 -66t47 -39.5t102 -15.5q54 0 82.5 -29t28.5 -82v-37q0 -46 -31 -76t-80 -30h-751q-49 0 -80 30t-31 76zM559 1364q0 155 75.5 255.5t221.5 100.5q58 0 117 -17.5t107 -42.5t93 -50t93 -42.5t90 -17.5q90 0 127 97q2 5 7 18t6.5 17 t6.5 14t8 13.5t8.5 9.5t11.5 8t14 4t18 2q31 0 46 -22.5t15 -72.5q0 -155 -75.5 -255.5t-221.5 -100.5q-58 0 -117 17.5t-107 42.5t-93 50t-93 42.5t-90 17.5q-91 0 -127 -96q-2 -5 -7.5 -20t-7.5 -19.5t-7.5 -15t-9.5 -14t-11.5 -9t-16 -7t-19.5 -1.5q-62 0 -62 94z" />
<glyph unicode="&#xf2;" horiz-adv-x="1681" d="M82 569q0 87 24.5 170.5t81.5 163.5t142 140t216.5 96.5t293.5 36.5q163 0 294.5 -36.5t216.5 -96.5t142.5 -140t81.5 -163.5t24 -170.5q0 -85 -29 -169.5t-91 -163t-149.5 -138t-214 -95.5t-275.5 -36t-275.5 36t-214 95.5t-149 138t-90.5 163t-29 169.5zM393 1686 q1 31 15 55q20 32 58 49.5t97 11.5t123 -43q80 -46 230 -175t225 -204q47 -42 30 -75q-12 -24 -38 -25.5t-46 6.5q-101 26 -288.5 91.5t-266.5 111.5q-49 28 -81.5 63t-45.5 69t-12 65zM489 582q0 -105 50.5 -184t129 -117.5t171.5 -38.5t171.5 38.5t128.5 117.5t50 184 q0 109 -50 189.5t-128 118.5t-172 38t-172.5 -38t-128.5 -118.5t-50 -189.5z" />
<glyph unicode="&#xf3;" horiz-adv-x="1681" d="M82 569q0 87 24.5 170.5t81.5 163.5t142 140t216.5 96.5t293.5 36.5q163 0 294.5 -36.5t216.5 -96.5t142.5 -140t81.5 -163.5t24 -170.5q0 -85 -29 -169.5t-91 -163t-149.5 -138t-214 -95.5t-275.5 -36t-275.5 36t-214 95.5t-149 138t-90.5 163t-29 169.5zM489 582 q0 -105 50.5 -184t129 -117.5t171.5 -38.5t171.5 38.5t128.5 117.5t50 184q0 109 -50 189.5t-128 118.5t-172 38t-172.5 -38t-128.5 -118.5t-50 -189.5zM510 1305q-17 32 31 75q76 76 225 204.5t229 174.5q64 37 123.5 43t97.5 -11.5t58 -49.5q14 -24 14.5 -55t-12.5 -65 t-45.5 -69t-81.5 -63q-79 -46 -266.5 -111.5t-288.5 -91.5q-20 -8 -46 -6.5t-38 25.5z" />
<glyph unicode="&#xf4;" horiz-adv-x="1681" d="M82 569q0 87 24.5 170.5t81.5 163.5t142 140t216.5 96.5t293.5 36.5q163 0 294.5 -36.5t216.5 -96.5t142.5 -140t81.5 -163.5t24 -170.5q0 -85 -29 -169.5t-91 -163t-149.5 -138t-214 -95.5t-275.5 -36t-275.5 36t-214 95.5t-149 138t-90.5 163t-29 169.5zM303 1305 q-17 29 23 73l4 4q264 288 381 353q74 45 131 45t131 -45q117 -65 381 -353q31 -35 32 -54q1 -12 -6 -23q-12 -23 -36.5 -24t-45.5 7q-59 16 -203.5 82.5t-252.5 124.5q-108 -58 -253 -124.5t-204 -82.5q-21 -8 -45.5 -7t-36.5 24zM489 582q0 -105 50.5 -184t129 -117.5 t171.5 -38.5t171.5 38.5t128.5 117.5t50 184q0 109 -50 189.5t-128 118.5t-172 38t-172.5 -38t-128.5 -118.5t-50 -189.5z" />
<glyph unicode="&#xf5;" horiz-adv-x="1681" d="M82 569q0 87 24.5 170.5t81.5 163.5t142 140t216.5 96.5t293.5 36.5q163 0 294.5 -36.5t216.5 -96.5t142.5 -140t81.5 -163.5t24 -170.5q0 -85 -29 -169.5t-91 -163t-149.5 -138t-214 -95.5t-275.5 -36t-275.5 36t-214 95.5t-149 138t-90.5 163t-29 169.5zM309 1364 q0 155 75.5 255.5t221.5 100.5q58 0 117 -17.5t107 -42.5t93 -50t93 -42.5t90 -17.5q90 0 127 97q2 5 7 18t6.5 17t6.5 14t8 13.5t8.5 9.5t11.5 8t14 4t18 2q31 0 46 -22.5t15 -72.5q0 -155 -75.5 -255.5t-221.5 -100.5q-71 0 -145 26.5t-126 58.5t-114.5 58.5t-113.5 26.5 q-91 0 -127 -96q-2 -5 -7 -18t-6.5 -17t-6.5 -14t-8 -13.5t-8.5 -9.5t-11.5 -8t-14 -4t-18 -2q-62 0 -62 94zM489 582q0 -105 50.5 -184t129 -117.5t171.5 -38.5t171.5 38.5t128.5 117.5t50 184q0 109 -50 189.5t-128 118.5t-172 38t-172.5 -38t-128.5 -118.5t-50 -189.5z " />
<glyph unicode="&#xf6;" horiz-adv-x="1681" d="M82 569q0 87 24.5 170.5t81.5 163.5t142 140t216.5 96.5t293.5 36.5q163 0 294.5 -36.5t216.5 -96.5t142.5 -140t81.5 -163.5t24 -170.5q0 -85 -29 -169.5t-91 -163t-149.5 -138t-214 -95.5t-275.5 -36t-275.5 36t-214 95.5t-149 138t-90.5 163t-29 169.5zM279 1468 q0 78 60 119t153 41h2q93 0 153 -41t60 -119q0 -76 -60.5 -117.5t-152.5 -41.5h-2q-92 0 -152.5 41.5t-60.5 117.5zM489 582q0 -105 50.5 -184t129 -117.5t171.5 -38.5t171.5 38.5t128.5 117.5t50 184q0 109 -50 189.5t-128 118.5t-172 38t-172.5 -38t-128.5 -118.5 t-50 -189.5zM975 1468q0 78 60 119t153 41h2q93 0 153 -41t60 -119q0 -76 -60.5 -117.5t-152.5 -41.5h-2q-92 0 -152.5 41.5t-60.5 117.5z" />
<glyph unicode="&#xf8;" horiz-adv-x="1681" d="M82 569q0 87 24.5 170.5t81.5 163.5t142 140t216.5 96.5t293.5 36.5q169 0 303 -39l45 55q35 41 68 57.5t94 16.5h71q53 0 71 -32t-11 -67l-115 -137q118 -86 175.5 -208.5t57.5 -252.5q0 -85 -29 -169.5t-91 -163t-149.5 -138t-214 -95.5t-275.5 -36q-168 0 -314 47 l-41 -51q-35 -42 -66.5 -58t-92.5 -16h-70q-56 0 -73.5 32.5t14.5 66.5l114 139q-113 86 -171 203t-58 239zM489 582q0 -105 48 -181l419 508q-59 19 -116 19q-94 0 -172.5 -38t-128.5 -118.5t-50 -189.5zM727 256q52 -14 113 -14q93 0 171.5 38.5t128.5 117.5t50 184 q0 104 -45 180z" />
<glyph unicode="&#xf9;" horiz-adv-x="2148" d="M41 1004v36q0 46 31 76.5t78 30.5h485q46 0 76 -31t30 -80v-465q0 -45 9.5 -87.5t33.5 -83.5t59.5 -69t93 -40.5t128.5 -1.5q81 12 148.5 55t107.5 98.5t62 112t22 104.5v115q-1 42 -12.5 66t-47.5 39.5t-102 15.5q-53 0 -81.5 28.5t-28.5 80.5v36q0 46 31.5 76.5 t78.5 30.5h486q46 0 76 -31t30 -80v-661q1 -42 12.5 -66t47.5 -39.5t102 -15.5q53 0 81.5 -28.5t28.5 -82.5v-37q0 -46 -31.5 -76t-78.5 -30l-486 2q-46 0 -76 31t-30 78v114q-51 -75 -154 -146.5t-239 -96.5q-157 -29 -290 3t-221.5 112t-138 197.5t-49.5 258.5v221 q-1 42 -12 66t-47.5 39.5t-103.5 15.5q-52 0 -80.5 28.5t-28.5 80.5zM565.5 1686q0.5 31 14.5 55q20 32 58 49.5t97 11.5t123 -43q80 -46 230 -175t225 -204q47 -42 30 -75q-12 -24 -37.5 -25.5t-45.5 6.5q-101 26 -288.5 91.5t-266.5 111.5q-49 28 -81.5 63t-45.5 69 t-12.5 65z" />
<glyph unicode="&#xfa;" horiz-adv-x="2148" d="M41 1004v36q0 46 31 76.5t78 30.5h485q46 0 76 -31t30 -80v-465q0 -45 9.5 -87.5t33.5 -83.5t59.5 -69t93 -40.5t128.5 -1.5q81 12 148.5 55t107.5 98.5t62 112t22 104.5v115q-1 42 -12.5 66t-47.5 39.5t-102 15.5q-53 0 -81.5 28.5t-28.5 80.5v36q0 46 31.5 76.5 t78.5 30.5h486q46 0 76 -31t30 -80v-661q1 -42 12.5 -66t47.5 -39.5t102 -15.5q53 0 81.5 -28.5t28.5 -82.5v-37q0 -46 -31.5 -76t-78.5 -30l-486 2q-46 0 -76 31t-30 78v114q-51 -75 -154 -146.5t-239 -96.5q-157 -29 -290 3t-221.5 112t-138 197.5t-49.5 258.5v221 q-1 42 -12 66t-47.5 39.5t-103.5 15.5q-52 0 -80.5 28.5t-28.5 80.5zM764 1305q-17 32 31 75q76 76 225 204.5t229 174.5q64 37 123.5 43t97.5 -11.5t58 -49.5q14 -24 14.5 -55t-12.5 -65t-45.5 -69t-81.5 -63q-79 -46 -266.5 -111.5t-288.5 -91.5q-20 -8 -46 -6.5t-38 25.5 z" />
<glyph unicode="&#xfb;" horiz-adv-x="2148" d="M41 1004v36q0 46 31 76.5t78 30.5h485q46 0 76 -31t30 -80v-465q0 -45 9.5 -87.5t33.5 -83.5t59.5 -69t93 -40.5t128.5 -1.5q81 12 148.5 55t107.5 98.5t62 112t22 104.5v115q-1 42 -12.5 66t-47.5 39.5t-102 15.5q-53 0 -81.5 28.5t-28.5 80.5v36q0 46 31.5 76.5 t78.5 30.5h486q46 0 76 -31t30 -80v-661q1 -42 12.5 -66t47.5 -39.5t102 -15.5q53 0 81.5 -28.5t28.5 -82.5v-37q0 -46 -31.5 -76t-78.5 -30l-486 2q-46 0 -76 31t-30 78v114q-51 -75 -154 -146.5t-239 -96.5q-157 -29 -290 3t-221.5 112t-138 197.5t-49.5 258.5v221 q-1 42 -12 66t-47.5 39.5t-103.5 15.5q-52 0 -80.5 28.5t-28.5 80.5zM447 1319.5q-2 7.5 1 15.5t4 12t8.5 13.5t8.5 10.5t10 11q264 288 381 353q74 45 131 45t131 -45q117 -65 381 -353q30 -33 33 -51q1 -13 -6 -26q-12 -23 -36.5 -24t-45.5 7q-59 16 -204 82.5t-253 124.5 q-108 -58 -252.5 -124.5t-203.5 -82.5q-21 -8 -45.5 -7t-36.5 24q-4 7 -6 14.5z" />
<glyph unicode="&#xfc;" horiz-adv-x="2148" d="M41 1004v36q0 46 31 76.5t78 30.5h485q46 0 76 -31t30 -80v-465q0 -45 9.5 -87.5t33.5 -83.5t59.5 -69t93 -40.5t128.5 -1.5q81 12 148.5 55t107.5 98.5t62 112t22 104.5v115q-1 42 -12.5 66t-47.5 39.5t-102 15.5q-53 0 -81.5 28.5t-28.5 80.5v36q0 46 31.5 76.5 t78.5 30.5h486q46 0 76 -31t30 -80v-661q1 -42 12.5 -66t47.5 -39.5t102 -15.5q53 0 81.5 -28.5t28.5 -82.5v-37q0 -46 -31.5 -76t-78.5 -30l-486 2q-46 0 -76 31t-30 78v114q-51 -75 -154 -146.5t-239 -96.5q-157 -29 -290 3t-221.5 112t-138 197.5t-49.5 258.5v221 q-1 42 -12 66t-47.5 39.5t-103.5 15.5q-52 0 -80.5 28.5t-28.5 80.5zM410 1468q0 78 60 119t153 41h2q93 0 153 -41t60 -119q0 -76 -60.5 -117.5t-152.5 -41.5h-2q-92 0 -152.5 41.5t-60.5 117.5zM1106 1468q0 78 60 119t153 41h2q93 0 153 -41t60 -119q0 -76 -60.5 -117.5 t-152.5 -41.5h-2q-92 0 -152.5 41.5t-60.5 117.5z" />
<glyph unicode="&#xfd;" horiz-adv-x="2121" d="M25 1004v36q0 46 31.5 76.5t78.5 30.5h828q47 0 78.5 -30.5t31.5 -76.5v-36q0 -53 -29 -82t-81 -29h-123q-16 0 -29 -3t-23 -10t-9.5 -20.5t12.5 -32.5q9 -16 348 -497q316 496 319 499q19 37 6 50.5t-47 13.5h-112q-53 0 -82 29.5t-29 81.5v36q0 46 32 76.5t79 30.5h684 q47 0 77.5 -30.5t30.5 -76.5v-36q0 -53 -28 -82t-80 -29q-92 0 -135 -16t-82 -76q-449 -709 -564 -883q-68 -101 -107 -143q-167 -181 -468 -181q-232 0 -369 83t-137 206q0 31 10 51q37 72 176 72q91 0 136 -26t45 -84q0 -49 50.5 -70.5t125.5 -15.5q141 12 241 167 l-569 822q-35 51 -81 72.5t-126 21.5q-52 0 -81 29t-29 82zM872 1305q-17 32 31 75q75 75 225 204t230 175q64 37 123 43t97 -11.5t58 -49.5q14 -24 14.5 -55t-12.5 -65t-45.5 -69t-81.5 -63q-79 -46 -266.5 -111.5t-288.5 -91.5q-20 -8 -46 -6.5t-38 25.5z" />
<glyph unicode="&#xff;" horiz-adv-x="2121" d="M25 1004v36q0 46 31.5 76.5t78.5 30.5h828q47 0 78.5 -30.5t31.5 -76.5v-36q0 -53 -29 -82t-81 -29h-123q-16 0 -29 -3t-23 -10t-9.5 -20.5t12.5 -32.5q9 -16 348 -497q316 496 319 499q19 37 6 50.5t-47 13.5h-112q-53 0 -82 29.5t-29 81.5v36q0 46 32 76.5t79 30.5h684 q47 0 77.5 -30.5t30.5 -76.5v-36q0 -53 -28 -82t-80 -29q-92 0 -135 -16t-82 -76q-449 -709 -564 -883q-68 -101 -107 -143q-167 -181 -468 -181q-232 0 -369 83t-137 206q0 31 10 51q37 72 176 72q91 0 136 -26t45 -84q0 -49 50.5 -70.5t125.5 -15.5q141 12 241 167 l-569 822q-35 51 -81 72.5t-126 21.5q-52 0 -81 29t-29 82zM559 1468q0 78 60 119t153 41h2q93 0 153 -41t60 -119q0 -76 -60.5 -117.5t-152.5 -41.5h-2q-92 0 -152.5 41.5t-60.5 117.5zM1255 1468q0 78 60 119t153 41h2q93 0 153 -41t60 -119q0 -76 -60.5 -117.5 t-152.5 -41.5h-2q-92 0 -152.5 41.5t-60.5 117.5z" />
<glyph unicode="&#x152;" horiz-adv-x="3598" d="M102 725q0 109 34.5 214t114 204.5t195.5 174t292 120t390 45.5q193 0 590 -49h1602q47 0 77.5 -30.5t30.5 -76.5v-301q0 -49 -30 -80t-76 -31h-74q-54 0 -82 28t-28 81q0 59 -23 88t-90 29h-752q-72 0 -101.5 -36t-29.5 -106v-159h348q42 0 77.5 17t35.5 50 q0 52 29 80.5t82 28.5h73q46 0 76.5 -31t30.5 -80v-377q0 -47 -30.5 -77.5t-76.5 -30.5h-73q-53 0 -82 28t-29 80q0 36 -36.5 52t-76.5 16h-348v-160q0 -75 23 -110t90 -35h794q67 0 90 30t23 89q0 51 28.5 79.5t82.5 28.5h73q46 0 76.5 -31.5t30.5 -78.5l2 -302 q0 -46 -32 -76t-79 -30h-1626q-314 -33 -590 -33q-214 0 -390 45.5t-292 120t-195.5 174t-114 204.5t-34.5 214zM575 725q0 -116 45.5 -203t126 -138t179.5 -76t215 -25q257 0 538 71v742q-281 71 -538 71q-116 0 -215 -25t-179.5 -76t-126 -138t-45.5 -203z" />
<glyph unicode="&#x153;" horiz-adv-x="2781" d="M82 569q0 87 24.5 170.5t81.5 163.5t142 140t216.5 96.5t293.5 36.5q342 0 555 -175q97 81 237 128t312 47q344 0 546.5 -162t208.5 -426q0 -47 -30 -79t-76 -32h-973q35 -115 141 -175t234 -60q65 0 127.5 15.5t107.5 39.5t68.5 39.5t38.5 28.5q70 60 153 16 q62 -34 72 -39q37 -23 46 -58.5t-19 -74.5q-17 -21 -40.5 -44.5t-77.5 -61t-117 -66t-160.5 -49.5t-206.5 -21q-370 0 -592 191q-218 -191 -555 -191q-149 0 -275.5 36t-214 95.5t-149 138t-90.5 163t-29 169.5zM489 582q0 -105 50.5 -184t129 -117.5t171.5 -38.5 t171.5 38.5t128.5 117.5t50 184q0 109 -50 189.5t-128 118.5t-172 38t-172.5 -38t-128.5 -118.5t-50 -189.5zM1626 719h674q-41 101 -134.5 156t-203.5 55t-202.5 -54.5t-133.5 -156.5z" />
<glyph unicode="&#x178;" horiz-adv-x="2484" d="M41 1253v74q0 46 31 76.5t80 30.5h952q47 0 78.5 -30.5t31.5 -76.5v-74q0 -54 -28.5 -82t-81.5 -28h-74q-49 0 -61.5 -30t22.5 -56l301 -211l297 211q34 29 22 57.5t-59 28.5h-73q-53 0 -82 28t-29 82v74q0 46 32 76.5t79 30.5h854q49 0 79.5 -30.5t30.5 -76.5v-74 q0 -110 -108 -110q-124 0 -222 -36t-192 -110q-31 -25 -192.5 -147t-180.5 -137q-28 -23 -42 -45.5t-17 -40.5t-4 -56v-135q0 -25 1 -36.5t6 -30.5t15.5 -27.5t31 -20t51 -16.5t76 -9t106.5 -5q53 0 81.5 -28.5t28.5 -80.5v-76q0 -46 -31.5 -76t-78.5 -30h-1059 q-47 0 -78 30t-31 76v76q0 52 28 80.5t81 28.5q53 1 94.5 3.5t71.5 8.5t51 11.5t34 17t20.5 19.5t10.5 25.5t3.5 27.5t0.5 32v135q0 41 -2.5 59.5t-15.5 41t-43 45.5q-335 255 -371 282q-197 144 -417 144q-49 0 -79 28.5t-30 81.5zM725 1753q0 78 60 119t153 41h2 q93 0 153 -41t60 -119q0 -76 -60.5 -118t-152.5 -42h-2q-92 0 -152.5 42t-60.5 118zM1421 1753q0 78 60 119t153 41h2q93 0 153 -41t60 -119q0 -76 -60.5 -118t-152.5 -42h-2q-92 0 -152.5 42t-60.5 118z" />
<glyph unicode="&#x2c6;" d="M358 1305q-17 29 23 73l4 4q264 288 381 353q74 45 131 45t131 -45q117 -65 381 -353q30 -33 33 -51q1 -13 -6 -26q-12 -23 -36.5 -24t-45.5 7q-59 16 -204 82.5t-253 124.5q-108 -58 -253 -124.5t-204 -82.5q-21 -8 -45.5 -7t-36.5 24z" />
<glyph unicode="&#x2dc;" horiz-adv-x="1681" d="M309 1364q0 155 75.5 255.5t221.5 100.5q58 0 117 -17.5t107 -42.5t93 -50t93 -42.5t90 -17.5q90 0 127 97q2 5 7 18t6.5 17t6.5 14t8 13.5t8.5 9.5t11.5 8t14 4t18 2q31 0 46 -22.5t15 -72.5q0 -155 -75.5 -255.5t-221.5 -100.5q-71 0 -145 26.5t-126 58.5t-114.5 58.5 t-113.5 26.5q-91 0 -127 -96q-2 -5 -7 -18t-6.5 -17t-6.5 -14t-8 -13.5t-8.5 -9.5t-11.5 -8t-14 -4t-18 -2q-62 0 -62 94z" />
<glyph unicode="&#x2000;" horiz-adv-x="1044" />
<glyph unicode="&#x2001;" horiz-adv-x="2088" />
<glyph unicode="&#x2002;" horiz-adv-x="1044" />
<glyph unicode="&#x2003;" horiz-adv-x="2088" />
<glyph unicode="&#x2004;" horiz-adv-x="696" />
<glyph unicode="&#x2005;" horiz-adv-x="522" />
<glyph unicode="&#x2006;" horiz-adv-x="348" />
<glyph unicode="&#x2007;" horiz-adv-x="348" />
<glyph unicode="&#x2008;" horiz-adv-x="261" />
<glyph unicode="&#x2009;" horiz-adv-x="417" />
<glyph unicode="&#x200a;" horiz-adv-x="116" />
<glyph unicode="&#x2010;" horiz-adv-x="851" d="M76 643v51q0 46 30.5 76.5t77.5 30.5h482q52 0 81 -29t29 -82v-51q0 -46 -31.5 -76.5t-78.5 -30.5h-482q-52 0 -80 29t-28 82z" />
<glyph unicode="&#x2011;" horiz-adv-x="851" d="M76 643v51q0 46 30.5 76.5t77.5 30.5h482q52 0 81 -29t29 -82v-51q0 -46 -31.5 -76.5t-78.5 -30.5h-482q-52 0 -80 29t-28 82z" />
<glyph unicode="&#x2012;" horiz-adv-x="851" d="M76 643v51q0 46 30.5 76.5t77.5 30.5h482q52 0 81 -29t29 -82v-51q0 -46 -31.5 -76.5t-78.5 -30.5h-482q-52 0 -80 29t-28 82z" />
<glyph unicode="&#x2013;" horiz-adv-x="1390" d="M76 643v51q0 46 31.5 76.5t78.5 30.5h1020q52 0 80.5 -29t28.5 -82v-51q0 -46 -31 -76.5t-78 -30.5h-1020q-52 0 -81 29t-29 82z" />
<glyph unicode="&#x2014;" horiz-adv-x="1955" d="M76 643v51q0 46 31.5 76.5t78.5 30.5h1583q53 0 82 -29.5t29 -81.5v-51q0 -46 -32 -76.5t-79 -30.5h-1583q-52 0 -81 29t-29 82z" />
<glyph unicode="&#x2018;" horiz-adv-x="598" d="M86 1110q-6 63 6 129.5t43 129t94 102.5t148 40q59 0 59 -59v-20q0 -51 -53 -60q-15 -3 -31.5 -12.5t-34 -26.5t-29 -46t-12.5 -66h23q93 0 153 -41.5t60 -118.5q0 -79 -59.5 -122t-153.5 -40q-92 3 -147.5 56.5t-65.5 154.5z" />
<glyph unicode="&#x2019;" horiz-adv-x="600" d="M86 1321q0 79 59.5 122t153.5 40t149.5 -56.5t65.5 -154.5q5 -49 -1 -102t-26.5 -107t-53.5 -96.5t-88 -69.5t-124 -27q-28 0 -43.5 16t-15.5 44v20q0 51 55 60q15 3 31.5 12.5t34 26.5t29 46t12.5 66h-25q-92 0 -152.5 42t-60.5 118z" />
<glyph unicode="&#x201c;" horiz-adv-x="1087" d="M86 1110q-6 63 6 129.5t43 129t94 102.5t148 40q59 0 59 -59v-20q0 -51 -53 -60q-15 -3 -31.5 -12.5t-34 -26.5t-29 -46t-12.5 -66h23q93 0 153 -41.5t60 -118.5q0 -79 -59.5 -122t-153.5 -40q-93 3 -148 56t-65 155zM573 1110q-6 63 6.5 129t44 129t94.5 103t148 40 q28 0 44 -15.5t16 -43.5v-20q0 -50 -56 -60q-37 -8 -70.5 -45t-33.5 -106h22q92 0 152.5 -42t60.5 -118q0 -79 -59.5 -122t-153.5 -40t-149.5 56.5t-65.5 154.5z" />
<glyph unicode="&#x201d;" horiz-adv-x="1087" d="M86 1321q0 79 59.5 122t153.5 40t149.5 -56.5t65.5 -154.5q5 -49 -1 -102t-26.5 -107t-53.5 -96.5t-88 -69.5t-124 -27q-28 0 -43.5 16t-15.5 44v20q0 51 55 60q15 3 31.5 12.5t34 26.5t29 46t12.5 66h-25q-92 0 -152.5 42t-60.5 118zM575 1321q0 79 59.5 122t153.5 40 t149 -56.5t64 -154.5q5 -49 -0.5 -101.5t-26 -107t-53 -97t-87 -69.5t-123.5 -27q-29 0 -44.5 16t-15.5 44v20q0 50 56 60q35 9 69 45.5t35 105.5h-23q-92 0 -152.5 42t-60.5 118z" />
<glyph unicode="&#x2026;" horiz-adv-x="1800" d="M86 127q0 78 60 119t153 41h2q93 0 153 -41t60 -119q0 -76 -60.5 -118t-152.5 -42h-2q-92 0 -152.5 42t-60.5 118zM686 127q0 78 60 119t153 41h2q93 0 153 -41t60 -119q0 -76 -60.5 -118t-152.5 -42h-2q-92 0 -152.5 42t-60.5 118zM1286 127q0 78 60 119t153 41h2 q93 0 153 -41t60 -119q0 -76 -60.5 -118t-152.5 -42h-2q-92 0 -152.5 42t-60.5 118z" />
<glyph unicode="&#x202f;" horiz-adv-x="417" />
<glyph unicode="&#x205f;" horiz-adv-x="522" />
<glyph unicode="&#x25fc;" horiz-adv-x="1146" d="M0 0v1147h1147v-1147h-1147z" />
</font>
</defs>
</svg>
