<?xml version="1.0" encoding="utf-8"?>
<!-- Generator: Adobe Illustrator 19.2.1, SVG Export Plug-In . SVG Version: 6.00 Build 0)  -->
<svg version="1.1" id="Layer_1" xmlns="http://www.w3.org/2000/svg" xmlns:xlink="http://www.w3.org/1999/xlink" x="0px" y="0px"
	 viewBox="0 0 150 150" style="enable-background:new 0 0 150 150;" xml:space="preserve">
<style type="text/css">
	.st0{fill:#736868;}
	.st1{fill:url(#SVGID_1_);}
</style>
<g>
	<g>
		<path class="st0" d="M44.7,16.5h9.2V50h20.9v8.4H44.7V16.5z"/>
	</g>
	<path class="st0" d="M44.7,72.3h30.1v8.4H53.9v8.9h18.5v8.4H53.9v16.2h-9.2V72.3z"/>
	<g>
		<path class="st0" d="M102.9,80.8H90.2v-8.5h34.7v8.5h-12.7v33.4h-9.2V80.8z"/>
	</g>
	<path class="st0" d="M107.9,58.3c-11.4,0-20.7-9.3-20.7-20.7c0-11.4,9.3-20.7,20.7-20.7s20.7,9.3,20.7,20.7
		C128.5,49.1,119.2,58.3,107.9,58.3z M107.9,24.8c-7.1,0-12.8,5.8-12.8,12.8c0,7.1,5.8,12.8,12.8,12.8c7.1,0,12.8-5.8,12.8-12.8
		C120.7,30.6,114.9,24.8,107.9,24.8z"/>
	<g>
		<linearGradient id="SVGID_1_" gradientUnits="userSpaceOnUse" x1="5.103" y1="74.6338" x2="144.897" y2="74.6338">
			<stop  offset="0" style="stop-color:#FFD55B"/>
			<stop  offset="0.1964" style="stop-color:#FFD15A"/>
			<stop  offset="0.3748" style="stop-color:#FDC655"/>
			<stop  offset="0.5462" style="stop-color:#FBB44D"/>
			<stop  offset="0.7133" style="stop-color:#F89A43"/>
			<stop  offset="0.8757" style="stop-color:#F47935"/>
			<stop  offset="1" style="stop-color:#F05A28"/>
		</linearGradient>
		<polygon class="st1" points="144.9,133 19.2,133 19.2,2.1 5.1,16.3 5.1,147.1 131,147.1 144.9,133.2 		"/>
	</g>
</g>
</svg>
