<?xml version="1.0" encoding="utf-8"?>
<!-- Generator: Adobe Illustrator 18.1.1, SVG Export Plug-In . SVG Version: 6.00 Build 0)  -->
<svg version="1.1" id="Layer_1" xmlns="http://www.w3.org/2000/svg" xmlns:xlink="http://www.w3.org/1999/xlink" x="0px" y="0px"
	 viewBox="290 200 210 215" enable-background="new 0 0 400 400" xml:space="preserve">
<g>
	<g>
		<path fill="#9AAEA1" d="M313.1,261.7c-0.2-0.3-9.5-7.7-9.6-7.7c0.6,1.9,1.2,3.9,1.8,5.8c0.3,1,0.5,1.5,3.7,0.6
			c0.8-0.2,1.3,0.1,1.6,0.8c0.1,0.3,0.2,0.5,0.2,0.8c0.2,0.7-0.2,1.3-0.9,1.5c-3.4,1-6.8,2.1-10.2,3.2c-0.7,0.2-1.4-0.1-1.6-0.7
			c-0.1-0.3-0.2-0.5-0.3-0.8c-0.3-0.7,0.1-1.3,0.8-1.6c3.1-1.1,2.9-1.6,2.6-2.6c-0.6-2-1.3-4-1.9-6c-0.3-1-0.5-1.5-3.7-0.4
			c-0.8,0.3-1.4,0-1.6-0.8c-0.1-0.3-0.2-0.5-0.3-0.8c-0.2-0.6,0.2-1.3,0.9-1.6c2.9-1,5.9-1.9,8.8-2.8c1.2-0.4,1.8-0.2,2.5,0.5
			c2.5,2.1,5,4.1,7.5,6.3c1-3.1,2-6.1,3.1-9.2c0.3-0.8,0.7-1.4,1.9-1.7c3.1-0.8,6.1-1.5,9.2-2.2c0.7-0.2,1.4,0.2,1.5,0.9
			c0.1,0.3,0.1,0.5,0.2,0.8c0.2,0.8-0.2,1.3-1,1.5c-3.3,0.8-3.2,1.3-3,2.3c0.5,2,0.9,4.1,1.4,6.1c0.2,1,0.4,1.5,3.6,0.9
			c0.8-0.2,1.3,0.2,1.5,0.9c0.1,0.3,0.1,0.6,0.2,0.8c0.1,0.7-0.3,1.3-1,1.4c-3.8,0.8-7.7,1.8-11.5,2.8c-0.7,0.2-1.3-0.2-1.5-0.8
			c-0.1-0.3-0.1-0.5-0.2-0.8c-0.2-0.8,0.1-1.3,0.9-1.5c3.2-0.9,3.1-1.4,2.8-2.4c-0.5-2-1-3.9-1.5-5.9c-1.5,3.8-2.8,7.6-4.1,11.4
			c-0.2,0.7-0.4,1.1-1.3,1.4C313.8,262.3,313.4,261.9,313.1,261.7z"/>
		<path fill="#9AAEA1" d="M366.5,250.3c0,0.3,0.1,0.6,0.1,0.8c0.1,0.7-0.4,1.2-1.1,1.3c-4,0.4-7.9,0.9-11.9,1.5
			c-0.7,0.1-1.3-0.3-1.4-1c0-0.3-0.1-0.6-0.1-0.8c-0.1-0.8,0.3-1.3,1.1-1.4c0.7-0.1,1.5-0.2,2.2-0.3c0.6-0.1,1.2-0.4,0.5-1.2
			c-0.3-0.3-1.1-1.2-1.1-1.2c-2.8,0.4-5.6,0.8-8.4,1.3c0,0-0.7,1.6-0.7,1.7c-0.2,0.4-0.2,1,0.4,0.9c0.8-0.1,1.4-0.2,2.4-0.4
			c0.8-0.1,1.3,0.2,1.4,1c0,0.3,0.1,0.6,0.1,0.8c0.1,0.7-0.3,1.3-1,1.4c-3.3,0.5-6.6,1.1-9.8,1.7c-0.7,0.1-1.3-0.3-1.5-0.9
			c-0.1-0.3-0.1-0.6-0.2-0.8c-0.2-0.8,0.2-1.3,1-1.4c1.9-0.4,2.4-0.6,3.1-2.2c1.7-3.8,3.5-7.6,5.4-11.4c0.4-0.7,0.6-1,1.4-1.1
			c0.9-0.1,1.9-0.3,2.8-0.4c0.7-0.1,1,0,1.6,0.7c3.1,3,6.1,6.1,9,9.2c0.7,0.7,1.5,1.5,3.4,1.3C365.9,249.1,366.4,249.5,366.5,250.3z
			 M352.2,245.5c-1.2-1.1-2.3-2.1-2.7-2.5c-0.4,0.7-1,1.9-1.7,3.2C349.2,246,350.7,245.7,352.2,245.5z"/>
		<path fill="#9AAEA1" d="M397.2,242.9c0,4.8-4.7,8-9.5,8.1c-4.8,0.1-9.5,0.4-14.3,0.7c-0.7,0.1-1.3-0.4-1.3-1.1
			c0-0.3,0-0.6-0.1-0.8c-0.1-0.8,0.4-1.2,1.2-1.3c3.2-0.3,3.2-0.8,3.1-1.8c-0.1-2.1-0.3-4.2-0.4-6.3c-0.1-1-0.1-1.6-3.5-1.4
			c-0.8,0.1-1.3-0.3-1.4-1.1c0-0.3,0-0.5-0.1-0.8c-0.1-0.7,0.5-1.2,1.2-1.3c4.8-0.4,9.6-0.6,14.4-0.8
			C393.7,234.8,397.3,239.1,397.2,242.9z M391.4,242.9c0-3.4-3-4.6-6-4.5c-0.6,0-1.2,0-1.9,0.1c-2.1,0.1-2.1,0.8-2.1,1.1
			c0.1,2.4,0.2,4.8,0.3,7.1c0,0.3,0,1,2.1,1c0.6,0,1.2,0,1.8-0.1C388.3,247.6,391.4,246.3,391.4,242.9z"/>
		<path fill="#9AAEA1" d="M427.8,251.4c-0.1,0.7-0.7,1.1-1.4,1.1c-7.5-0.8-15-1.2-22.5-1.4c-0.7,0-1.2-0.5-1.2-1.2
			c0-0.3,0-0.6,0-0.8c0-0.8,0.5-1.2,1.3-1.2c3.3,0,3.3-0.5,3.3-1.5c0.1-2.1,0.2-4.2,0.2-6.3c0-1,0.1-1.6-3.3-1.7
			c-0.8,0-1.3-0.5-1.3-1.3c0-0.3,0-0.5,0-0.8c0-0.7,0.6-1.2,1.3-1.2c7.8,0.2,15.6,0.7,23.4,1.5c0.8,0.1,1.2,0.6,1.2,1.3
			c-0.1,1.1-0.2,2.2-0.4,3.3c-0.1,0.7-0.7,1.2-1.4,1.1c-0.3,0-0.6-0.1-0.9-0.1c-0.8-0.1-1.2-0.6-1.2-1.3c0.1-0.8-0.1-1.3-1.2-1.4
			c-3.1-0.3-6.2-0.5-9.3-0.7c-1.2-0.1-1.6,0.5-1.6,1.5c0,0.6-0.1,1.2-0.1,1.8c1.5,0.1,3,0.2,4.5,0.3c0.5,0,1.3-0.1,1.4-0.7
			c0.1-0.8,0.6-1.2,1.4-1.1c0.3,0,0.6,0,0.9,0.1c0.7,0.1,1.2,0.6,1.1,1.3c-0.1,1.4-0.2,2.8-0.4,4.2c-0.1,0.7-0.6,1.2-1.3,1.1
			c-0.3,0-0.6,0-0.8-0.1c-0.8-0.1-1.2-0.5-1.2-1.3c0-0.6-0.8-0.8-1.2-0.8c-1.5-0.1-3-0.2-4.5-0.3c0,0.6-0.1,1.2-0.1,1.8
			c-0.1,1,0.1,1.6,1.2,1.7c0.2,0,9.5,0.7,9.5,0.7c1.1,0.1,1.3-0.4,1.4-1.2c0.1-0.8,0.6-1.2,1.4-1.1c0.3,0,0.6,0.1,0.8,0.1
			c0.7,0.1,1.2,0.6,1.1,1.4C428,249.1,427.9,250.3,427.8,251.4z"/>
		<path fill="#9AAEA1" d="M462.2,243.9c-0.2,0.8-0.7,1.1-1.5,0.9c-3.3-0.6-3.4-0.1-3.6,0.9c-0.4,2.1-0.8,4.1-1.2,6.2
			c-0.2,1-0.3,1.5,2.9,2.3c0.8,0.2,1.2,0.7,1,1.4c-0.1,0.3-0.1,0.6-0.2,0.8c-0.1,0.7-0.8,1-1.5,0.9c-3.8-0.8-7.7-1.5-11.5-2.2
			c-0.7-0.1-1.2-0.7-1-1.4c0-0.3,0.1-0.6,0.1-0.8c0.1-0.8,0.6-1.1,1.5-1c3.2,0.5,3.3,0,3.5-1c0.4-2.1,0.7-4.1,1.1-6.2
			c0.2-1,0.3-1.5-3.1-2.2c-0.8-0.1-1.2-0.6-1.1-1.4c0-0.3,0.1-0.5,0.1-0.8c0.1-0.7,0.7-1.1,1.5-1c4.1,0.7,8.1,1.5,12.1,2.3
			c0.7,0.2,1.2,0.8,1,1.4C462.3,243.4,462.3,243.7,462.2,243.9z"/>
		<path fill="#9AAEA1" d="M498.3,253.1c-0.1,0.3-0.2,0.5-0.3,0.8c-0.3,0.8-0.8,1-1.6,0.8c-3.3-1-3.4-0.5-3.7,0.4
			c-1,3.2-2,6.3-3.1,9.5c-0.2,0.7-0.9,1-1.6,0.7c-1.1-0.3-2.1-0.7-3.2-1c-1.2-0.4-1.4-0.9-1.6-1.2c-2.2-3.8-4.6-7.6-7-11.3
			c-0.4,1.5-0.8,3.1-1.2,4.6c-0.3,1-0.4,1.5,2.8,2.4c0.8,0.2,1.1,0.8,0.9,1.5c-0.1,0.3-0.2,0.5-0.2,0.8c-0.2,0.7-0.8,1-1.5,0.8
			c-3.4-1-6.9-1.8-10.3-2.7c-0.7-0.2-1.1-0.8-1-1.5c0.1-0.3,0.1-0.5,0.2-0.8c0.2-0.8,0.7-1.1,1.5-0.9c3.2,0.7,3.3,0.2,3.6-0.8
			c0.5-2,1-4.1,1.5-6.1c0.2-1,0.4-1.5-2.9-2.4c-0.8-0.2-1.2-0.7-1-1.5c0.1-0.3,0.1-0.5,0.2-0.8c0.2-0.7,0.8-1,1.6-0.8
			c2.3,0.6,4.6,1.1,6.8,1.7c1.2,0.3,1.4,0.9,1.9,1.7c2.7,4.1,5.3,8.2,7.7,12.4c0.6-1.9,1.2-3.8,1.8-5.8c0.3-1,0.5-1.5-2.8-2.5
			c-0.8-0.2-1.1-0.8-0.9-1.6c0.1-0.3,0.2-0.5,0.2-0.8c0.2-0.7,0.9-1,1.6-0.8c3.6,1.1,7.2,2.2,10.8,3.4
			C498.2,251.8,498.5,252.4,498.3,253.1z"/>
	</g>
	<g>
		<path fill="#9AAEA1" d="M309.3,380.7l-1.1-11.7h-7l-1.4,11.7h-7.2l8.1-60.3h8.7l8.1,60.3H309.3z M305,335.8l-2.9,25.9h5.3
			L305,335.8z"/>
		<path fill="#9AAEA1" d="M354.3,380.7h-7l-4-36.2l-4.5,36.2h-6.9l-6.9-60.3h7.8l3.4,40.7l4.7-40.7h6.2l4,40.7l4-40.7h7.2
			L354.3,380.7z"/>
		<path fill="#9AAEA1" d="M385.9,380.7l-1.1-11.7h-7l-1.4,11.7h-7.2l8.1-60.3h8.7l8.1,60.3H385.9z M381.7,335.8l-2.9,25.9h5.3
			L381.7,335.8z"/>
		<path fill="#9AAEA1" d="M425.2,381c-2.9,0-4.1-3.6-4.1-8v-14.4c0-2.1-1.1-3.7-3.2-3.7h-3.5v25.8h-8v-60.3h12.2
			c5.2,0,10,2.8,10,10.7v12.7c0,3.6-1.5,6.3-4.6,7.7c3.1,1.4,4.8,4.2,4.8,7.7v13.4c0,2.7,0.5,4.6,1.4,6.2v2.3H425.2z M420.7,331.2
			c0-2.4-0.8-3.4-2.5-3.4h-3.8V348h3.4c1.9,0,2.9-1.2,2.9-3.7V331.2z"/>
		<path fill="#9AAEA1" d="M455.1,380.7h-12v-60.3h12c6.8,0,11.1,4.2,11.1,12.6v35.3C466.1,376.8,461.9,380.7,455.1,380.7z
			 M458.2,332.7c0-3.3-1-4.8-3.5-4.8h-3.5v45.4h3.5c2.5,0,3.5-1.5,3.5-4.8V332.7z"/>
		<path fill="#9AAEA1" d="M487.8,381.6c-7.2,0-11.5-4.7-11.5-12.3v-6.5h7.2v6.8c0,3.2,1.4,5.1,4,5.1c2.8,0,4.2-1.8,4.2-4.8
			c0-5.6-2.2-10.1-6.3-16.3c-3.9-5.5-8.7-13.7-8.7-20.7c0-7.6,3.7-13.4,11.6-13.4c6.5,0,10.8,4.7,10.8,12.3v6.9h-7.2v-7.2
			c0-3-1.3-4.8-3.6-4.8c-2.3,0-3.9,1.5-3.9,4.3c0,6.7,2.3,9.9,6.8,16.8c4.6,6.8,8.2,13.6,8.2,20.6
			C499.4,377.9,493.6,381.6,487.8,381.6z"/>
	</g>
	<path fill="#CF6846" d="M447.4,282.6c0-0.2-0.2-0.4-0.2-0.5c0-0.1-0.1-0.6-0.1-0.7c-0.1-0.1-0.5-1.1-0.5-1.1l-0.2-0.4l0,0
		c0,0,0-0.1-0.1-0.1c0,0,0,0,0,0c0,0-0.7-1.5-0.8-1.8c-0.2-0.3-0.4-0.9-0.7-1.3s-0.7-1.2-0.8-1.6c-0.1-0.4-0.6-1.3-0.7-1.7
		c-0.1-0.3-0.7-2.6-0.8-2.9c-0.1-0.3-0.4-1.3-0.4-1.3c0,0,0,0,0,0c0,0,0,0,0,0c0,0-0.1,0-0.1,0c0,0-0.1,0-0.1,0c0,0,0,0,0,0
		c0,0,0,0,0,0v0l-0.5,0l0,0l-0.3,0v0l-0.4,0c0,0-0.1,0-0.1,0c0,0,0,0-0.1,0l-0.1,0c0,0,0,0,0,0l0,0l-0.4,0l0,0c0,0,0,0,0,0
		c-0.3,0-0.6,0-0.8,0c-0.4,0-0.9,0-1.3,0c-0.5,0-0.9,0-1.4,0c-0.4,0-0.7,0-1.1,0c-0.2,0-0.3,0-0.5,0l-7.7,0.3c0,0-4.3,0.1-4.6,0.1
		c-0.4,0-4.9,0.1-5.2,0.1c-0.3,0-3.2,0.1-3.8,0.1c-0.6,0-5,0.1-5.2,0.1c-0.2,0-2.1,0-2.4-0.1c-0.3,0-3.2,0.1-3.9,0.1
		c-0.6,0-8.6,0-9,0c-0.4,0-1.5,0-1.7,0c-0.1,0-4.1-0.2-4.1-0.2s-6.5-0.3-6.6-0.3s-2-0.1-2.1-0.1c-0.1,0-2.5-0.2-2.5-0.2
		s-0.1,0.5-0.2,0.6c-0.1,0.1,0,0.5,0,0.7c0,0.2,0,0.2,0,0.3c-0.1,0.1-0.2,0.3-0.2,0.4c0,0.1,0,0.2-0.2,0.5c-0.2,0.3,0,0.7,0.2,0.9
		c0.2,0.2-0.2,0.2-0.2,0.2c-0.3,0-0.6-0.2-0.7-0.3c-0.1-0.1-0.5,0.1-0.7,0.2c-0.1,0.1-0.7,0.5-0.8,0.6c-0.1,0.1-1.1,2.2-1.2,2.3
		c-0.1,0.1-0.2,0.2-0.3,0.1c-0.1,0-0.2,0-0.2,0.1c0,0.1-0.3,0.2-0.3,0.2c-0.5,0.2-0.7-0.5-0.7-0.6s-0.5-0.2-0.7-0.2
		c-0.2,0-0.4,0.2-0.6,0.3c-0.1,0.1-0.3,0.1-0.3,0c0-0.1-0.2,0-0.2,0s-0.8,0.3-1,0.4c-0.2,0.1-0.8,1-0.9,1.2
		c-0.1,0.2-0.3,0.4-0.3,0.4c-0.1,0.1-0.4,0.1-0.6,0.3c-0.2,0.1-0.5,0-0.6-0.1c-0.1-0.1-0.1-0.4-0.1-0.5c0-0.1,0-0.2,0.1-0.3
		c0.1-0.1-0.2-0.4-0.2-0.6c-0.1-0.1-0.3-0.1-0.3-0.1s-1.2,0.7-1.4,0.8s-0.2,0.3-0.2,0.4c0,0.1-0.1,0.2-0.1,0.2s-0.2,0.2-0.3,0.5
		s-0.4-0.1-0.5-0.3c-0.1-0.1-0.2-0.1-0.4-0.1s-0.2,0.3-0.3,0.4c-0.1,0.1,0,0.3,0,0.6c0,0.2-0.2,0.5-0.4,0.7
		c-0.1,0.2-0.2,0.4-0.4,0.7c-0.2,0.3-0.6,0.1-0.8,0c-0.2-0.1-0.4,0-0.5,0.1c-0.1,0.1-0.4,0.2-0.6,0.1c-0.1,0-0.3,0-0.4,0.2
		c-0.1,0.3-0.4,0.3-0.6,0.3c-0.2,0-0.4,0.2-0.4,0.3c0,0.1-0.2,0.3-0.4,0.5c-0.2,0.2-0.4,0.2-0.5,0.1c-0.2-0.1-0.2,0-0.4,0.2
		c-0.2,0.2-1,0.5-1.1,0.6c-0.2,0.1-0.2,0.1-0.3,0.2c0,0.1-0.4,0.3-0.4,0.3c-0.5,0.1-0.9-0.1-1-0.2c-0.1-0.1-0.3,0-0.4,0.1
		c-0.1,0.1-0.3,0-0.4,0c-0.1,0-0.6,0.1-1,0c-0.3,0-0.7,0.3-0.8,0.4c-0.1,0.1-0.3,0.2-0.6,0.2c-0.2,0-0.4,0.2-0.5,0.4
		c-0.1,0.2-0.2,0.2-0.4,0.3c-0.2,0-0.6,0.4-0.8,0.5c-0.2,0.1-0.2,0.4-0.2,0.4c0,0.1,0.1,0.4-0.1,0.6c-0.2,0.2-0.1,0.7-0.1,0.9
		s-0.2,0.4-0.4,0.4c-0.2,0-0.2,0.1-0.3,0.2c-0.1,0.1-0.6,0.1-0.8,0.1c-0.3,0-0.6-0.2-0.6-0.3c0-0.1-0.2,0-0.2,0l-0.8,0.6l-0.5,3.2
		l0.2,0c0,0,6.9,0.3,7.9,0.3c1.1,0,3.9,0.1,4.3,0.1c0.3,0,1.6,0,1.6,0c0,0,0.1,0,0.1,0l4-1.1v0.4c0,0,0.1,0.1,0.3-0.1
		c0.1-0.2,0.2-0.3,0.4-0.3c0.2-0.1,0.3-0.1,0.3-0.1s0.1,0,0-0.1c0,0-0.1-0.2,0-0.3c0.1,0,0.2,0,0.2,0c0,0.1,0.1,0.1,0.2,0
		c0.1-0.1,0.1-0.1,0.3-0.1c0.2,0,0.2,0,0.3-0.1c0.1-0.1,0.4-0.4,0.6-0.3c0.2,0.1,0.3,0.1,0.5,0c0.2-0.1,0.3-0.2,0.5-0.1
		c0.1,0.1,0.3,0,0.4-0.1c0.1-0.2,0.3-0.3,0.3-0.3c0,0,0.1-0.1,0.2,0c0,0.1,0.1,0.4,0.2,0.3c0.1-0.1,0.2-0.1,0.3-0.1
		c0.1,0.1,0.1,0.1,0.2,0c0.1-0.1,0.6-0.1,0.8-0.1c0.2,0,9.8,0.6,9.8,0.6l4,0.3c0,0,0,0.2,0.1,0.3c0,0.1,0.2,0.3,0.1,0.4
		c-0.1,0.1-0.4,0.5-0.3,0.6c0.1,0.1,0.2,0.3,0.2,0.3c0.1,0,1.3-0.8,1.3-0.8l1.7,2.3l-0.2,1.8l13.1,0.3c0,0,0.1,0.1,0.1,0.1
		c0.1,0.1,0.2,0.2,0.3,0.3c0.1,0.1,0.3,0.3,0.4,0.4c0.2,0.2,0.4,0.4,0.6,0.6c0.2,0.2,0.5,0.5,0.7,0.7c0.3,0.3,0.5,0.5,0.8,0.8
		c0.3,0.3,0.6,0.6,0.9,0.9c0.3,0.3,0.6,0.6,0.9,0.9c0.3,0.3,0.6,0.7,1,1c0.3,0.3,0.7,0.7,1,1c0.3,0.3,0.6,0.7,1,1
		c0.3,0.3,0.6,0.7,0.9,1c0.3,0.3,0.6,0.6,0.9,0.9c0.3,0.3,0.6,0.6,0.8,0.9c0.3,0.3,0.5,0.5,0.8,0.8c0.2,0.2,0.4,0.5,0.7,0.7
		c0.1,0.1,0.2,0.2,0.2,0.2l1.2,1.3c0,0,0,0,0,0c0,0,0,0,0.1,0l0.1,0.1c0,0,0,0.1,0.1,0.1l0.3-0.1c0,0,0.1,0,0.1,0
		c0.1,0,0.1,0,0.2-0.1c0.1,0,0.3-0.1,0.4-0.2c0.1-0.1,0.2-0.1,0.3-0.2c0,0,0,0,0.1,0l0.8-0.3l1.2-0.1c0.1,0,0.1,0,0.1,0l0.3,0l0,0
		c0,0,0.1,0,0.1,0l0.4,0c0.1,0,0.2,0,0.3,0c0.1,0,0.3,0,0.4,0c0.1,0,0.2,0.1,0.2,0.1c0.2,0.1,0.4,0.1,0.6,0.2c0,0,0.1,0,0.1,0l0,0
		l0.4,0.4c0,0,0,0,0,0c0,0,0,0,0.1,0l0,0l0,0c0.1,0,0.1,0.1,0.2,0.1c0.1,0,0.1,0,0.2,0.1c0.1,0,0.2,0.1,0.3,0.1c0,0,0-0.1,0-0.1
		c0-0.2,0-0.5,0.1-0.8l0.1-0.3c0,0,0-0.1,0-0.1c0.1-0.1,0.1-0.2,0.2-0.3c0.1-0.1,0.1-0.2,0.1-0.3c0-0.1,0.1-0.2,0.1-0.3
		c0-0.2,0.1-0.4,0.1-0.7l0.1-0.2c0,0,0,0.1,0,0.1c0-0.1,0-0.2,0-0.2l0.4-0.8l0,0c0,0,0-0.1,0.1-0.1c0-0.1,0.1-0.1,0.1-0.2
		c0-0.1,0.1-0.3,0-0.3l0-0.1c0,0,0.1,0,0.1,0c0,0,0,0,0-0.1c0,0,0.1-0.1,0.1-0.1c0-0.1,0.1-0.1,0.1-0.2c0,0,0,0,0-0.1c0,0,0,0,0-0.1
		c0.1,0,0.1,0,0.1-0.1c0,0,0-0.1,0-0.1c0-0.1-0.1-0.1,0-0.1c0-0.1,0,0-0.1-0.1c0-0.1,0.1-0.1,0.2-0.1c0.1,0,0.1,0,0.1,0
		c0,0,0,0,0-0.1c0,0,0,0,0-0.1c0,0,0,0,0-0.1c0,0-0.1,0,0-0.1c0,0,0.1,0,0.1-0.1c0,0,0,0,0-0.1c0,0,0,0,0.1,0c0.1,0,0.1,0,0.1-0.1
		c0-0.1,0.1-0.1,0.1-0.2c0,0,0,0,0-0.1c0,0,0.1-0.1,0.1-0.1c0,0-0.1,0-0.1,0c0,0,0,0,0,0c0,0,0,0,0,0l0,0c0,0,0.1,0,0.1,0
		c0,0,0-0.1,0-0.1c0,0,0.1,0,0.1,0c0,0,0,0,0,0c0,0,0,0,0.1,0c0,0,0-0.1,0.1-0.1c0,0,0.1-0.1,0.1-0.1c0.1-0.1,0.2-0.2,0.3-0.3
		c0,0,0,0,0-0.1l0.6-0.4l0,0c0.1-0.1,0.3-0.2,0.4-0.3c0,0,0.1-0.1,0.1-0.1l0.6-0.6c0,0,0,0,0,0c0,0,0.1,0,0.1-0.1
		c0.1-0.1,0.2-0.1,0.3-0.2c0.1,0,0.2-0.1,0.2-0.2c0.1-0.1,0.2-0.1,0.3-0.2c0.1-0.1,0.2-0.1,0.3-0.2c0.1-0.1,0.2-0.1,0.3-0.2
		c0.1,0,0.1-0.1,0.2-0.1c0,0,0,0,0.1,0l0.6-0.4l0,0c0,0,0.1,0,0.1-0.1c0.1,0,0.1-0.1,0.2-0.2l0.3-0.3c0,0,0,0,0.1-0.1l0,0l0,0
		c0,0,0,0,0,0l0.2-0.2l0.1-0.1c0,0,0,0,0,0c0,0,0,0,0,0l0.1-0.1c0,0,0.1,0,0.1-0.1l0,0l0.2-0.1c0,0,0,0,0.1,0l0,0l0.8-0.3
		c0,0,0,0,0,0l0,0l0.1-0.1c0.2,0,1.1-0.3,1.4-0.4c0.3-0.1,1.4-0.2,1.7-0.3c0.3,0,0.4-0.1,0.5,0c0.1,0,0.5,0,0.5,0c0,0,0,0,0.1,0
		l0.9,0.2l1.1,0.6c0,0,0,0,0,0l0,0l0.1,0.2c0,0,0.1,0,0.1,0c0.2-0.4,0.6-1.1,0.7-1.2c0.2-0.2,0.8-1.1,0.9-1.2
		c0.1-0.1,0.3-0.5,0.3-0.6l0,0l0.1-0.2l0,0c0,0,0.1,0,0.1-0.1c0,0,1-1,1.1-1.1c0.1,0,0.9-1,1.1-1.2c0.2-0.1,0.7-0.6,0.9-0.8l0.4-0.3
		c0,0,0.1,0,0.1,0l0,0c0,0,0,0,0,0c0,0,0.7-0.7,1-0.9c0.3-0.2,0.8-0.4,1-0.5c0.1-0.1,0.4-0.3,0.5-0.3l0,0l0.4-0.1c0,0,0.1,0,0.1,0
		l0.1,0c0.1,0,0.2,0,0.2-0.1c0,0,1.8-1,2.1-0.5c0,0,0.3-1.5,0.4-2.1c0-0.5,0.1-1.5,0.1-1.7s0.1-0.3,0.1-0.7
		C447.4,283.5,447.4,282.8,447.4,282.6z M407.4,277.9c0,0.1,0,0.3-0.1,0.4c-0.1,0.1-0.2,0.1-0.4,0.1h-2c-0.1,0-0.3,0-0.4,0.1
		c-0.1,0.1-0.1,0.2-0.1,0.4v9.8c0,0.1,0,0.3-0.1,0.4c-0.1,0.1-0.2,0.1-0.4,0.1h-1c-0.1,0-0.3,0-0.5-0.1c-0.2-0.1-0.3-0.1-0.4-0.2
		l-10-8.9c-0.1-0.1-0.2-0.1-0.3-0.1c-0.1,0-0.1,0.1-0.1,0.3v6.2c0,0.1,0,0.3,0.1,0.4c0.1,0.1,0.2,0.1,0.4,0.1h2.1
		c0.1,0,0.3,0,0.4,0.1c0.1,0.1,0.1,0.2,0.1,0.4v1.3c0,0.1,0,0.3-0.1,0.4c-0.1,0.1-0.2,0.1-0.4,0.1h-7.2c-0.1,0-0.3,0-0.4-0.1
		c-0.1-0.1-0.1-0.2-0.1-0.4v-1.3c0-0.2,0-0.3,0.1-0.4c0.1-0.1,0.2-0.1,0.4-0.1h1.8c0.1,0,0.3,0,0.4-0.1c0.1-0.1,0.1-0.2,0.1-0.4
		v-7.5c0-0.1,0-0.3-0.1-0.4c-0.1-0.1-0.2-0.1-0.4-0.1h-1.8c-0.1,0-0.3,0-0.4-0.1c-0.1-0.1-0.1-0.2-0.1-0.4v-1.3c0-0.2,0-0.3,0.1-0.4
		c0.1-0.1,0.2-0.1,0.4-0.1h3.5c0.2,0,0.3,0,0.5,0.1c0.2,0.1,0.3,0.1,0.4,0.2l10.3,9.1c0.1,0.1,0.2,0.1,0.3,0.1
		c0.1,0,0.1-0.1,0.1-0.3v-6.5c0-0.2,0-0.3-0.1-0.4c-0.1-0.1-0.2-0.1-0.4-0.1h-2c-0.1,0-0.3,0-0.4-0.1c-0.1-0.1-0.1-0.2-0.1-0.4v-1.3
		c0-0.2,0-0.3,0.1-0.4c0.1-0.1,0.2-0.1,0.4-0.1h7.2c0.1,0,0.3,0,0.4,0.1c0.1,0.1,0.1,0.2,0.1,0.4V277.9z M427.5,279.5
		c0,0.1,0,0.3-0.1,0.3c-0.1,0.1-0.2,0.1-0.4,0.2h-1.3c-0.1,0-0.3,0-0.3-0.1c-0.1-0.1-0.1-0.1-0.1-0.2v-0.8c0-0.1,0-0.2-0.1-0.3
		s-0.2-0.1-0.3-0.1h-11.4c-0.1,0-0.3,0-0.5,0.1c-0.2,0.1-0.3,0.1-0.4,0.2l-0.2,0.2c-0.1,0.1-0.2,0.2-0.3,0.4
		c-0.1,0.2-0.1,0.3-0.1,0.4v5.9c0,0.1,0,0.3,0.1,0.4c0.1,0.2,0.2,0.3,0.3,0.4l0.2,0.2c0.1,0.1,0.2,0.2,0.4,0.2
		c0.2,0.1,0.3,0.1,0.5,0.1h10.5c0.1,0,0.3,0,0.4-0.1c0.2-0.1,0.3-0.1,0.4-0.2l0.2-0.2c0.1-0.1,0.2-0.2,0.3-0.3
		c0.1-0.1,0.1-0.2,0.1-0.3c0-0.1,0-0.2,0.1-0.3c0.1-0.1,0.2-0.1,0.3-0.1h1.3c0.1,0,0.3,0,0.4,0.1c0.1,0.1,0.1,0.2,0.1,0.4v0.8
		c0,0.1,0,0.3-0.1,0.4c-0.1,0.2-0.2,0.3-0.3,0.4l-1.6,1.4c-0.1,0.1-0.2,0.2-0.4,0.2c-0.2,0.1-0.3,0.1-0.5,0.1h-12.2
		c-0.1,0-0.3,0-0.4-0.1c-0.2-0.1-0.3-0.1-0.4-0.2l-1.6-1.4c-0.1-0.1-0.2-0.2-0.3-0.4c-0.1-0.2-0.1-0.3-0.1-0.4v-7.9
		c0-0.1,0-0.3,0.1-0.4c0.1-0.2,0.2-0.3,0.3-0.4l1.6-1.5c0.1-0.1,0.2-0.2,0.4-0.2c0.2-0.1,0.3-0.1,0.4-0.1h11.7c0.1,0,0.3,0,0.4,0.1
		c0.1,0.1,0.2,0.2,0.2,0.3c0,0.1,0.1,0.2,0.1,0.2c0.1,0,0.1-0.1,0.1-0.2l0,0c0-0.1,0.1-0.2,0.2-0.3c0.1-0.1,0.3-0.1,0.4-0.1h1.3
		c0.1,0,0.3,0,0.4,0.1c0.1,0.1,0.1,0.2,0.1,0.4V279.5z"/>
	<g>
		<g>
			<path fill="#CF6846" d="M361.2,210.1c0,5.1-1.6,9-5.2,9c-3.7,0-5.2-4-5.2-8.9c0-5.6,1.9-9,5.2-9
				C359.9,201.2,361.2,205.6,361.2,210.1 M365.1,210c0-2.7-1-5.1-2.6-6.6c-1.8-1.7-4.1-2.5-6.5-2.5c-2.5,0-4.7,0.9-6.4,2.5
				c-1.7,1.7-2.7,4-2.7,6.9c0,2.8,1.1,5,2.7,6.6c1.7,1.6,3.9,2.4,6.3,2.4c2.7,0,4.8-0.8,6.4-2.4C364.2,215.2,365.1,212.8,365.1,210"
				/>
			<path fill="#CF6846" d="M388.2,206.2c-1.2,0-2.5,0.7-3.6,2.2h-0.1v-1.9l-0.1-0.1l-5.1,0.3v0.2c0.5,0,1,0.1,1.4,0.4
				c0.4,0.3,0.7,0.9,0.7,1.4v8.7c0,0.6-0.2,1-0.7,1.2c-0.3,0.1-0.7,0.2-1.1,0.2c-0.4,0-0.7-0.1-1.1-0.2c-0.5-0.2-0.7-0.6-0.7-1.2
				l0-10.8l-0.1-0.2l-5.3,0.3v0.2c0.7,0,1.4,0.1,1.7,0.3c0.4,0.3,0.6,0.8,0.6,1.4v8c-0.3,0.5-1.1,1.6-2.8,1.6
				c-1.1,0-1.9-0.9-1.9-2.7v-8.9l-0.1-0.2l-5.1,0.3v0.2c0.5,0,1,0.2,1.4,0.4c0.5,0.3,0.7,0.8,0.7,1.4v6.2c0,2.5,1,4.4,3.5,4.4
				c2.3,0,3.3-1.1,4.3-2.1h0.1v1.6l0.2,0.2l4.8,0v0h7.3v-0.2c-0.5,0-1.3-0.1-1.8-0.2c-0.5-0.2-0.7-0.6-0.7-1.2V209
				c0.3-0.5,1.4-1.7,2.6-1.7c-0.1,0.4-0.4,0.9-0.4,1.4c0,1,0.7,1.6,1.7,1.6c1.1,0,1.7-0.9,1.7-2
				C390.2,207.1,389.4,206.2,388.2,206.2z"/>
		</g>
		<g>
			<path fill="#CF6846" d="M445.1,215.6c-0.1-0.1-0.2,0-0.2,0c-1,1.8-2.2,2.6-4.1,2.6c-2.9,0-3.9-2.7-3.9-6v-0.6h7.9v-0.2
				c0-2.7-1.4-5.2-5.3-5.2c-3.8,0-6,3.1-6,6.5c0,1.2,0.2,2.3,0.7,3.3c-0.2,0.9-0.8,1.8-1.8,1.8c-1.5,0-1.9-1.2-1.9-2.5V207h3.8
				c0.1,0,0.2-0.1,0.2-0.3c0-0.2-0.1-0.3-0.2-0.3h-3.8v-3.8h-3v3.8H426v0c-0.1,0-0.2,0.1-0.2,0.3c0,0.2,0.1,0.3,0.2,0.3v0h1.4v8.4
				c0,0,0,0.1,0,0.1c-0.1,1.3-0.5,2.4-1.4,2.4c-0.8,0-1.1-0.9-1.1-1.3c0-0.9,0.2-4,0.2-6.4c0-3.6-2.2-4-5-4c-2.2,0-4.7,1.2-4.7,2.9
				c0,0.8,0.4,1.6,1.5,1.6c1.2,0,1.9-0.8,1.9-1.4c0-0.7-0.4-1.7-0.4-2.2c0.2-0.3,0.7-0.7,1.6-0.7c1.9,0,1.9,2.3,1.9,3v1.9
				c-0.9,0.5-2.9,1-4.5,1.6c-1.4,0.5-2.7,1.2-2.7,3.5c0,0.1,0,0.3,0,0.4c-0.3,0.6-0.8,1.1-1.5,1.1c-1.5,0-1.9-1.2-1.9-2.5V207h3.8v0
				c0.1,0,0.2-0.1,0.2-0.3c0-0.2-0.1-0.3-0.2-0.3v0h-3.8v-3.8h-3v3.8h-1.5v0c-0.1,0-0.2,0.1-0.2,0.3s0.1,0.3,0.2,0.3v0h1.4v8.4
				c0,2.4,1.1,3.8,3.5,3.8c1.6,0,2.6-0.8,3.2-1.9c0.4,1.2,1.6,1.9,3.1,1.9c1.8,0,3-0.8,3.9-1.8h0.1c0.5,1.1,1.2,1.8,2.7,1.8
				c1.6,0,2.6-0.8,2.9-2.4c0.4,1.6,1.5,2.4,3.3,2.4c2,0,3.1-1.2,3.5-2.8c1,1.7,2.7,2.9,5.3,2.9c2.5,0,4.4-1.5,5.3-3.5
				C445.1,215.8,445.2,215.7,445.1,215.6z M439.4,206.5c1.8,0,2.1,2.4,2.1,4.5l-4.6,0.1C437.1,208.4,438,206.5,439.4,206.5z
				 M421.8,217c-0.5,0.7-1.2,1.1-2.2,1.1c-1,0-1.6-0.8-1.6-2.4c0-2.4,1.5-3.2,3.9-4.1L421.8,217z"/>
			<path fill="#CF6846" d="M406.7,213.8c0-2.7-1.4-3.9-3.5-4.9c-1-0.4-2.3-0.8-3.4-1.3c-1.8-0.8-2.6-1.8-2.6-3.4
				c0-1.8,1.4-3.1,3-3.1c3,0,4.5,2.8,5.5,5.8h0.2l-0.1-5.4h-0.3l-0.8,0.5c-0.9-0.6-2.6-1.3-4.6-1.3c-3.4,0-5.6,2.2-5.6,5
				c0,2.2,1,3.9,3.1,4.8c1.2,0.5,2.2,0.8,3.5,1.3c1.7,0.6,2.8,1.8,2.8,3.4c0,1.9-1,3.6-3.5,3.6c-3,0-4.9-2.7-6.1-6H394l0.2,5.6h0.3
				l0.9-0.6c0.9,0.6,2.6,1.4,5.2,1.4C404.1,219.3,406.7,217,406.7,213.8"/>
		</g>
	</g>
	<g>
		<path fill="#CF6846" d="M320.5,279l2.2,6.6c0.1,0.3,0.4,0.5,0.7,0.5h7c0.7,0,1,0.9,0.4,1.3l-5.6,4.1c-0.3,0.2-0.4,0.5-0.3,0.8
			l2.2,6.6c0.2,0.7-0.5,1.2-1.1,0.8l-5.6-4.1c-0.3-0.2-0.6-0.2-0.9,0l-5.6,4.1c-0.6,0.4-1.3-0.1-1.1-0.8l2.2-6.6
			c0.1-0.3,0-0.6-0.3-0.8l-5.6-4.1c-0.6-0.4-0.3-1.3,0.4-1.3h7c0.3,0,0.6-0.2,0.7-0.5l2.2-6.6C319.3,278.4,320.2,278.4,320.5,279z"
			/>
		<path fill="#CF6846" d="M471.5,279l-2.2,6.6c-0.1,0.3-0.4,0.5-0.7,0.5h-7c-0.7,0-1,0.9-0.4,1.3l5.6,4.1c0.3,0.2,0.4,0.5,0.3,0.8
			l-2.2,6.6c-0.2,0.7,0.5,1.2,1.1,0.8l5.6-4.1c0.3-0.2,0.6-0.2,0.9,0l5.6,4.1c0.6,0.4,1.3-0.1,1.1-0.8l-2.2-6.6
			c-0.1-0.3,0-0.6,0.3-0.8l5.6-4.1c0.6-0.4,0.3-1.3-0.4-1.3h-7c-0.3,0-0.6-0.2-0.7-0.5l-2.2-6.6C472.7,278.4,471.8,278.4,471.5,279z
			"/>
	</g>
	<g>
		<g>
			<g>
				<g>
					<g>
						<path fill="#CF6846" d="M446.2,397.6L446.2,397.6L446.2,397.6h-0.1l0,0c-0.1,0-0.1,0-0.2,0c-1.8,0.1-3.7,1.5-3.7,3.7
							c0,1.1,0.4,1.9,1.2,2.6c0.7,0.5,1.4,0.8,1.9,1l0,0c0.2,0.1,0.5,0.2,0.8,0.3c1.5,0.5,3.2,1,3.1,2.4c0,1.3-1.5,2.2-3.4,2.2
							c-1.1,0-2-0.8-2.6-1.3c-0.4-0.3-0.6-0.5-0.9-0.5c0,0-0.1,0-0.1,0l0,0l0,0l0,0l0,0c-0.2,0.1-0.2,0.2-0.3,0.2c0,0,0,0,0,0
							c-0.1,0.2,0,0.5,0,0.6c0.4,0.7,2.1,2.3,3.8,2.3c0,0,0.1,0,0.1,0c1.5,0,2.8-0.4,3.7-1.1c0.9-0.7,1.4-1.7,1.4-2.9
							c0-1-0.3-1.8-0.8-2.5c-0.5-0.7-1.2-1.1-1.7-1.3c-0.6-0.2-1.1-0.4-1.8-0.6c-0.3-0.1-0.7-0.2-1.1-0.4c-1.1-0.4-1.7-1-1.7-1.8
							c0-1,0.9-1.7,2-1.8c0,0,0.1,0,0.1,0c1.6,0,2.4,0.4,3.1,1.6c0.1,0.2,0.2,0.3,0.4,0.3c0.1,0,0.3-0.1,0.3-0.1l0,0c0,0,0,0,0,0
							l0,0l0,0l0,0l0,0c0.2-0.1,0.3-0.4,0.2-0.6l0,0l0,0c-0.4-0.8-0.8-1.3-1.4-1.7C448.1,397.8,447.3,397.6,446.2,397.6L446.2,397.6
							L446.2,397.6z"/>
					</g>
				</g>
				<g>
					<g>
						<path fill="#CF6846" d="M485.1,409.8c-1.1,0-2.3-0.5-3.1-1.3c-0.9-0.9-1.4-2.1-1.4-3.3c0-0.8,0.1-1.5,0.4-2.1
							c0.2-0.6,0.6-1.1,1-1.6c0.8-0.8,1.9-1.3,3-1.3c1.1,0,2.2,0.5,3.1,1.3c0.4,0.4,0.8,0.9,1,1.5c0.3,0.6,0.4,1.3,0.4,2
							c0,1.5-0.5,2.7-1.3,3.6C487.3,409.4,486.2,409.8,485.1,409.8z M485.1,401.2c-0.8,0-1.4,0.3-1.8,0.9c-0.4,0.6-0.6,1.6-0.6,2.8
							c0,1.7,0.4,3.8,2.5,3.8c0.3,0,0.9-0.1,1.4-0.6c0.6-0.6,1-1.7,1-3.2c0-1.5-0.3-2.5-0.9-3.2C486,401.3,485.3,401.2,485.1,401.2z
							"/>
					</g>
				</g>
				<g>
					<g>
						<path fill="#CF6846" d="M454.1,409.7v-9.4h6.8v1.1H456v2.9h4v1h-4v3.2h4.9v1.1H454.1z"/>
					</g>
				</g>
				<path fill="#CF6846" d="M467.5,400.6c-0.1-0.2-0.3-0.4-0.6-0.4h-0.1l-1,0.5l-3.3,9h1.3c0,0,0.9-2.8,1.1-3.1c0.1,0,0.2,0,0.3,0
					l0,0c0.6,0,1.6,0,2.5,0l1,3.1h1.9L467.5,400.6z M465.4,405.5c0.1-0.4,0.4-1.2,0.8-2.3l0,0c0.1-0.2,0.1-0.4,0.2-0.6l1,2.8H465.4z
					"/>
				<path fill="#CF6846" d="M478.5,405.1c-0.4-0.5-0.9-0.8-1.2-0.9c-0.4-0.2-0.8-0.3-1.2-0.4c-0.2-0.1-0.5-0.2-0.8-0.2
					c-0.7-0.3-1.1-0.6-1.1-1.1c0-0.6,0.6-1.1,1.3-1.1c0,0,0,0,0.1,0c1.1,0,1.6,0.3,2,1c0.1,0.2,0.2,0.2,0.4,0.2
					c0.1,0,0.2-0.1,0.3-0.1l0,0l0,0c0.2-0.1,0.3-0.3,0.2-0.6l0,0c-0.3-0.5-0.6-0.9-1-1.2c-0.4-0.3-1-0.4-1.7-0.5l-0.3,0v0
					c0,0,0,0,0,0c-1.3,0-2.7,1.1-2.7,2.7c0,0.8,0.3,1.4,0.9,1.9c0.5,0.4,1,0.6,1.3,0.7l0,0c0.2,0.1,0.4,0.1,0.5,0.2
					c1,0.3,2.1,0.7,2.1,1.5c0,0.8-1,1.4-2.2,1.4c-0.7,0-1.3-0.5-1.7-0.8c-0.3-0.2-0.5-0.4-0.7-0.4c0,0-0.1,0-0.1,0l0,0l0,0
					c-0.2,0.1-0.2,0.2-0.3,0.2l0,0c-0.1,0.2-0.1,0.3,0,0.5c0.3,0.4,1.5,1.6,2.7,1.7c0,0,0.1,0,0.1,0c1.1,0,2-0.3,2.6-0.8
					c0.7-0.5,1-1.3,1-2.1C479.1,406.2,478.9,405.6,478.5,405.1z"/>
				<g>
					<g>
						<path fill="#CF6846" d="M498.7,409.9c-0.3,0-0.4-0.1-0.5-0.3l0,0c-0.2-0.3-4.4-6-4.8-6.7v6.8h-1.2v-9.4h1.2
							c0.2,0,0.4,0.1,0.5,0.3c0.1,0.1,3.8,5.3,4.2,5.9v-6.1h1.2c0,0,0,8.5,0,8.6l0,0v0.5C499.2,409.6,499.1,409.9,498.7,409.9z"/>
					</g>
				</g>
			</g>
			<g>
				<g>
					<g>
						<path fill="#CF6846" d="M358.8,397.6L358.8,397.6L358.8,397.6h-0.1l0,0c-0.1,0-0.1,0-0.2,0c-1.8,0.1-3.7,1.5-3.7,3.7
							c0,1.1,0.4,1.9,1.2,2.6c0.7,0.5,1.4,0.8,1.9,1l0,0c0.2,0.1,0.5,0.2,0.8,0.3c1.5,0.5,3.2,1,3.1,2.4c0,1.3-1.5,2.2-3.4,2.2
							c-1.1,0-2-0.8-2.6-1.3c-0.4-0.3-0.7-0.5-0.9-0.5c0,0-0.1,0-0.1,0l0,0l0,0l0,0l0,0c-0.2,0.1-0.2,0.2-0.3,0.2c0,0,0,0,0,0
							c-0.1,0.2,0,0.5,0,0.6c0.4,0.7,2.1,2.3,3.8,2.3c0,0,0.1,0,0.1,0c1.5,0,2.8-0.4,3.7-1.1c0.9-0.7,1.4-1.7,1.4-2.9
							c0-1-0.3-1.8-0.8-2.5c-0.5-0.7-1.2-1.1-1.7-1.3c-0.6-0.2-1.1-0.4-1.8-0.6c-0.3-0.1-0.7-0.2-1.1-0.4c-1.1-0.4-1.7-1-1.7-1.8
							c0-1,0.9-1.7,2-1.8c0,0,0.1,0,0.1,0c1.6,0,2.4,0.4,3.1,1.6c0.1,0.2,0.2,0.3,0.4,0.3c0.1,0,0.3-0.1,0.3-0.1l0,0c0,0,0,0,0,0
							l0,0l0,0l0,0l0,0c0.2-0.1,0.3-0.4,0.2-0.6l0,0l0,0c-0.4-0.8-0.8-1.3-1.4-1.7C360.7,397.8,359.8,397.6,358.8,397.6L358.8,397.6
							L358.8,397.6z"/>
					</g>
				</g>
				<g>
					<g>
						<path fill="#CF6846" d="M370.2,409.8c-1.1,0-2.3-0.5-3.1-1.3c-0.9-0.9-1.4-2.1-1.4-3.3c0-0.8,0.1-1.5,0.4-2.1
							c0.2-0.6,0.6-1.1,1-1.6c0.8-0.8,1.9-1.3,3-1.3c1.1,0,2.2,0.5,3.1,1.3c0.4,0.4,0.8,0.9,1,1.5c0.3,0.6,0.4,1.3,0.4,2
							c0,1.5-0.5,2.7-1.3,3.6C372.5,409.4,371.4,409.8,370.2,409.8z M370.2,401.2c-0.8,0-1.4,0.3-1.8,0.9c-0.4,0.6-0.6,1.6-0.6,2.8
							c0,1.7,0.4,3.8,2.5,3.8c0.3,0,0.9-0.1,1.4-0.6c0.6-0.6,1-1.7,1-3.2c0-1.5-0.3-2.5-0.9-3.2
							C371.1,401.3,370.5,401.2,370.2,401.2z"/>
					</g>
				</g>
				<g>
					<g>
						<path fill="#CF6846" d="M380.9,409.9c-1.1,0-2.1-0.3-2.7-0.8c-0.7-0.6-1.1-1.4-1.1-2.5l0-6.3h1.8l0,6c0,0.9,0.2,1.5,0.5,1.9
							c0.3,0.4,0.8,0.6,1.4,0.6c1.5,0,2.3-0.8,2.3-2.4l0-6.1h1.2l0,6.1c0,1-0.3,1.9-0.9,2.5C382.9,409.6,382,409.9,380.9,409.9z"/>
					</g>
				</g>
				<g>
					<g>
						<path fill="#CF6846" d="M391.7,409.7H390c0,0,0-8.3,0-8.3c0,0-3.6,0-3.6,0v-1.1h8.9v1.1c0,0-3.5,0-3.5,0L391.7,409.7z"/>
					</g>
				</g>
				<g>
					<g>
						<path fill="#CF6846" d="M404.6,409.7h-1.8v-4.2h-3.7l0,4.2l-1.7,0l0-9.4h1.7v4.1h3.7v-4.1h1.8L404.6,409.7z"/>
					</g>
				</g>
				<g>
					<g>
						<path fill="#CF6846" d="M408.2,409.7v-9.4h6.8v1.1h-4.9v2.9h4v1h-4l0,3.2h4.9v1.1H408.2z"/>
					</g>
				</g>
				<g>
					<g>
						<path fill="#CF6846" d="M417.6,409.7l0-9.5h2.9c1.1,0,2,0.2,2.6,0.7c0.6,0.5,1,1.1,1,2c0,0.7-0.3,1.3-1,1.8
							c-0.4,0.3-0.8,0.5-1.3,0.6c0.8,1.2,3,4.5,3,4.5h-2.4l-2.3-4.3h-0.7v4.3H417.6z M419.4,404.3L419.4,404.3c0.2,0,0.3,0,0.4,0
							c0.3,0,0.6,0,0.8,0c1-0.1,1.4-0.6,1.4-1.4c0-0.9-0.2-1.4-1.4-1.5c-0.1,0-0.4,0-0.6,0c-0.1,0-0.2,0-0.3,0l-0.1,0
							c0,0-0.1,0-0.1,0V404.3z"/>
					</g>
				</g>
				<g>
					<g>
						<path fill="#CF6846" d="M433.7,409.9c-0.3,0-0.4-0.1-0.5-0.3l0,0c-0.2-0.3-4.4-6-4.8-6.7v6.8h-1.2v-9.4h1.2
							c0.2,0,0.4,0.1,0.5,0.3c0.1,0.1,3.8,5.3,4.2,5.9v-6.1h1.2c0,0,0,8.5,0,8.6l0,0v0.5C434.2,409.6,434.1,409.9,433.7,409.9z"/>
					</g>
				</g>
			</g>
		</g>
		<g>
			<path fill="#CF6846" d="M294.1,407.7h-1.3V401h1.3c0.6,0,1.1,0.3,1.1,1.2v1.1c0,0.5-0.2,0.8-0.6,1c0.4,0.1,0.6,0.5,0.6,1v1.2
				C295.2,407.4,294.7,407.7,294.1,407.7z M294.5,402.2c0-0.3-0.1-0.5-0.4-0.5h-0.6v2.3h0.5c0.3,0,0.5-0.2,0.5-0.5V402.2z
				 M294.5,405.2c0-0.3-0.2-0.5-0.5-0.5h-0.5v2.4h0.6c0.3,0,0.4-0.2,0.4-0.5V405.2z"/>
			<path fill="#CF6846" d="M298.8,407.8c-0.5,0-0.7-0.2-0.7-0.7v-1.7c0-0.3-0.2-0.6-0.5-0.6h-0.6v3h-0.7V401h1.3
				c0.6,0,1.1,0.3,1.1,1.2v1.3c0,0.5-0.1,0.8-0.6,1c0.4,0.1,0.6,0.5,0.6,0.9v1.6c0,0.2,0,0.3,0.2,0.3v0.5H298.8z M298.1,402.2
				c0-0.3-0.1-0.5-0.4-0.5h-0.6v2.4h0.5c0.3,0,0.5-0.2,0.5-0.6V402.2z"/>
			<path fill="#CF6846" d="M301.3,407.8c-0.8,0-1.3-0.6-1.3-1.4v-4.1c0-0.8,0.5-1.4,1.3-1.4c0.8,0,1.3,0.6,1.3,1.4v4.1
				C302.5,407.2,302,407.8,301.3,407.8z M301.8,402.2c0-0.3-0.2-0.6-0.6-0.6c-0.4,0-0.6,0.3-0.6,0.6v4.3c0,0.4,0.2,0.6,0.6,0.6
				c0.4,0,0.6-0.3,0.6-0.6V402.2z"/>
			<path fill="#CF6846" d="M305,407.8c-0.7,0-1.3-0.5-1.3-1.3V401h0.7v5.5c0,0.4,0.2,0.6,0.6,0.6s0.6-0.2,0.6-0.6V401h0.7v5.5
				C306.3,407.3,305.7,407.8,305,407.8z"/>
			<path fill="#CF6846" d="M309.7,407.7l-0.2-0.4c-0.2,0.3-0.5,0.5-0.9,0.5c-0.6,0-1.2-0.5-1.2-1.4v-4.1c0-0.8,0.5-1.4,1.3-1.4
				c0.8,0,1.2,0.6,1.2,1.4v0.9h-0.7v-1c0-0.3-0.2-0.6-0.6-0.6c-0.4,0-0.6,0.3-0.6,0.6v4.4c0,0.3,0.2,0.6,0.6,0.6
				c0.4,0,0.6-0.3,0.6-0.6V405h-0.5v-0.6h1.2v3.3H309.7z"/>
			<path fill="#CF6846" d="M313,407.7v-3h-1.1v3h-0.7V401h0.7v3h1.1v-3h0.7v6.7H313z"/>
			<path fill="#CF6846" d="M316.3,401.7v6h-0.7v-6h-0.9V401h2.5v0.7H316.3z"/>
			<path fill="#CF6846" d="M321.2,401.7v6h-0.7v-6h-0.9V401h2.5v0.7H321.2z"/>
			<path fill="#CF6846" d="M324.2,407.8c-0.8,0-1.3-0.6-1.3-1.4v-4.1c0-0.8,0.5-1.4,1.3-1.4c0.8,0,1.3,0.6,1.3,1.4v4.1
				C325.5,407.2,325,407.8,324.2,407.8z M324.8,402.2c0-0.3-0.2-0.6-0.6-0.6s-0.6,0.3-0.6,0.6v4.3c0,0.4,0.2,0.6,0.6,0.6
				s0.6-0.3,0.6-0.6V402.2z"/>
			<path fill="#CF6846" d="M329.8,405.1v2.6H329v-2.6l-1-4.1h0.7l0.7,3.1l0.7-3.1h0.7L329.8,405.1z"/>
			<path fill="#CF6846" d="M332.9,407.8c-0.8,0-1.3-0.6-1.3-1.4v-4.1c0-0.8,0.5-1.4,1.3-1.4c0.8,0,1.3,0.6,1.3,1.4v4.1
				C334.2,407.2,333.7,407.8,332.9,407.8z M333.5,402.2c0-0.3-0.2-0.6-0.6-0.6c-0.4,0-0.6,0.3-0.6,0.6v4.3c0,0.4,0.2,0.6,0.6,0.6
				c0.4,0,0.6-0.3,0.6-0.6V402.2z"/>
			<path fill="#CF6846" d="M336.7,407.8c-0.7,0-1.3-0.5-1.3-1.3V401h0.7v5.5c0,0.4,0.2,0.6,0.6,0.6c0.4,0,0.6-0.2,0.6-0.6V401h0.7
				v5.5C337.9,407.3,337.4,407.8,336.7,407.8z"/>
			<path fill="#CF6846" d="M342.2,407.7h-1.3V401h1.3c0.6,0,1.1,0.3,1.1,1.2v1.1c0,0.5-0.2,0.8-0.6,1c0.4,0.1,0.6,0.5,0.6,1v1.2
				C343.3,407.4,342.8,407.7,342.2,407.7z M342.5,402.2c0-0.3-0.1-0.5-0.4-0.5h-0.6v2.3h0.5c0.3,0,0.5-0.2,0.5-0.5V402.2z
				 M342.5,405.2c0-0.3-0.2-0.5-0.5-0.5h-0.5v2.4h0.6c0.3,0,0.4-0.2,0.4-0.5V405.2z"/>
			<path fill="#CF6846" d="M345.8,405.1v2.6h-0.7v-2.6l-1-4.1h0.7l0.7,3.1l0.7-3.1h0.7L345.8,405.1z"/>
		</g>
	</g>
</g>
</svg>
