<?xml version="1.0" encoding="utf-8"?>
<!-- Generator: Adobe Illustrator 18.1.1, SVG Export Plug-In . SVG Version: 6.00 Build 0)  -->
<svg version="1.1" id="Layer_1" xmlns="http://www.w3.org/2000/svg" xmlns:xlink="http://www.w3.org/1999/xlink" x="0px" y="0px"
	 viewBox="170 200 450 200" enable-background="new 0 0 792 612" xml:space="preserve">
<g>
	<path fill="#FFFFFF" d="M614.4,279.9c0-0.9-0.9-1.7-0.9-2.1c0-0.4-0.4-2.6-0.4-3c-0.4-0.4-2.1-4.7-2.1-4.7l-0.9-1.7l0,0
		c0,0,0-0.4-0.4-0.4l0,0c0,0-3-6.4-3.4-7.6c-0.9-1.3-1.7-3.8-3-5.5c-0.9-1.3-3-5.1-3.4-6.8c-0.4-1.7-2.6-5.5-3-7.2
		c-0.4-1.7-3-11.1-3.4-12.3c-0.4-1.3-1.7-5.5-1.7-5.5l0,0l0,0h-0.4h-0.4l0,0l0,0l0,0h-2.1l0,0h-1.3l0,0H586h-0.4c0,0,0,0-0.4,0h-0.4
		l0,0l0,0H583l0,0l0,0c-1.3,0-2.6,0-3.4,0c-1.7,0-3.8,0-5.5,0c-2.1,0-3.8,0-5.9,0c-1.7,0-3,0-4.7,0c-0.9,0-1.3,0-2.1,0l-32.7,1.3
		c0,0-18.3,0.4-19.6,0.4c-1.7,0-20.8,0.4-22.1,0.4c-1.3,0-13.6,0.4-16.1,0.4c-2.6,0-21.2,0.4-22.1,0.4c-0.9,0-8.9,0-10.2-0.4
		c-1.3,0-13.6,0.4-16.6,0.4c-2.6,0-36.6,0-38.2,0s-6.4,0-7.2,0c-0.4,0-17.4-0.9-17.4-0.9s-27.6-1.3-28.1-1.3c-0.4,0-8.5-0.4-8.9-0.4
		s-10.6-0.9-10.6-0.9s-0.4,2.1-0.9,2.6c-0.4,0.4,0,2.1,0,3s0,0.9,0,1.3c-0.4,0.4-0.9,1.3-0.9,1.7c0,0.4,0,0.9-0.9,2.1
		c-0.9,1.3,0,3,0.9,3.8c0.9,0.9-0.9,0.9-0.9,0.9c-1.3,0-2.6-0.9-3-1.3c-0.4-0.4-2.1,0.4-3,0.9c-0.4,0.4-3,2.1-3.4,2.6
		c-0.4,0.4-4.7,9.4-5.1,9.8c-0.4,0.4-0.9,0.9-1.3,0.4c-0.4,0-0.9,0-0.9,0.4c0,0.4-1.3,0.9-1.3,0.9c-2.1,0.9-3-2.1-3-2.6
		c0-0.4-2.1-0.9-3-0.9s-1.7,0.9-2.6,1.3c-0.4,0.4-1.3,0.4-1.3,0c0-0.4-0.9,0-0.9,0s-3.4,1.3-4.2,1.7c-0.9,0.4-3.4,4.2-3.8,5.1
		c-0.4,0.9-1.3,1.7-1.3,1.7c-0.4,0.4-1.7,0.4-2.6,1.3c-0.9,0.4-2.1,0-2.6-0.4c-0.4-0.4-0.4-1.7-0.4-2.1c0-0.4,0-0.9,0.4-1.3
		c0.4-0.4-0.9-1.7-0.9-2.6c-0.4-0.4-1.3-0.4-1.3-0.4s-5.1,3-5.9,3.4c-0.9,0.4-0.9,1.3-0.9,1.7c0,0.4-0.4,0.9-0.4,0.9
		s-0.9,0.9-1.3,2.1c-0.4,0.9-1.7-0.4-2.1-1.3c-0.4-0.4-0.9-0.4-1.7-0.4c-0.9,0-0.9,1.3-1.3,1.7c-0.4,0.4,0,1.3,0,2.6
		c0,0.9-0.9,2.1-1.7,3c-0.4,0.9-0.9,1.7-1.7,3c-0.9,1.3-2.6,0.4-3.4,0c-0.9-0.4-1.7,0-2.1,0.4c-0.4,0.4-1.7,0.9-2.6,0.4
		c-0.4,0-1.3,0-1.7,0.9c-0.4,1.3-1.7,1.3-2.6,1.3s-1.7,0.9-1.7,1.3c0,0.4-0.9,1.3-1.7,2.1c-0.9,0.9-1.7,0.9-2.1,0.4
		c-0.9-0.4-0.9,0-1.7,0.9c-0.9,0.9-4.2,2.1-4.7,2.6c-0.9,0.4-0.9,0.4-1.3,0.9c0,0.4-1.7,1.3-1.7,1.3c-2.1,0.4-3.8-0.4-4.2-0.9
		c-0.4-0.4-1.3,0-1.7,0.4s-1.3,0-1.7,0c-0.4,0-2.6,0.4-4.2,0c-1.3,0-3,1.3-3.4,1.7c-0.4,0.4-1.3,0.9-2.6,0.9c-0.9,0-1.7,0.9-2.1,1.7
		c-0.4,0.9-0.9,0.9-1.7,1.3c-0.9,0-2.6,1.7-3.4,2.1c-0.9,0.4-0.9,1.7-0.9,1.7c0,0.4,0.4,1.7-0.4,2.6c-0.9,0.9-0.4,3-0.4,3.8
		c0,0.9-0.9,1.7-1.7,1.7c-0.9,0-0.9,0.4-1.3,0.9c-0.4,0.4-2.6,0.4-3.4,0.4c-1.3,0-2.6-0.9-2.6-1.3c0-0.4-0.9,0-0.9,0l-3.4,2.6
		l-2.1,13.6h0.9c0,0,29.3,1.3,33.6,1.3c4.7,0,16.6,0.4,18.3,0.4c1.3,0,6.8,0,6.8,0h0.4l17-4.7v1.7c0,0,0.4,0.4,1.3-0.4
		c0.4-0.9,0.9-1.3,1.7-1.3c0.9-0.4,1.3-0.4,1.3-0.4s0.4,0,0-0.4c0,0-0.4-0.9,0-1.3c0.4,0,0.9,0,0.9,0c0,0.4,0.4,0.4,0.9,0
		c0.4-0.4,0.4-0.4,1.3-0.4c0.9,0,0.9,0,1.3-0.4c0.4-0.4,1.7-1.7,2.6-1.3c0.9,0.4,1.3,0.4,2.1,0c0.9-0.4,1.3-0.9,2.1-0.4
		c0.4,0.4,1.3,0,1.7-0.4c0.4-0.9,1.3-1.3,1.3-1.3s0.4-0.4,0.9,0c0,0.4,0.4,1.7,0.9,1.3s0.9-0.4,1.3-0.4c0.4,0.4,0.4,0.4,0.9,0
		s2.6-0.4,3.4-0.4c0.9,0,41.6,2.6,41.6,2.6l17,1.3c0,0,0,0.9,0.4,1.3c0,0.4,0.9,1.3,0.4,1.7c-0.4,0.4-1.7,2.1-1.3,2.6
		s0.9,1.3,0.9,1.3c0.4,0,5.5-3.4,5.5-3.4l7.2,9.8l-0.9,7.6l55.7,1.3l0.4,0.4c0.4,0.4,0.9,0.9,1.3,1.3c0.4,0.4,1.3,1.3,1.7,1.7
		c0.9,0.9,1.7,1.7,2.6,2.6c0.9,0.9,2.1,2.1,3,3c1.3,1.3,2.1,2.1,3.4,3.4c1.3,1.3,2.6,2.6,3.8,3.8c1.3,1.3,2.6,2.6,3.8,3.8
		c1.3,1.3,2.6,3,4.2,4.2c1.3,1.3,3,3,4.2,4.2c1.3,1.3,2.6,3,4.2,4.2c1.3,1.3,2.6,3,3.8,4.2c1.3,1.3,2.6,2.6,3.8,3.8
		c1.3,1.3,2.6,2.6,3.4,3.8c1.3,1.3,2.1,2.1,3.4,3.4c0.9,0.9,1.7,2.1,3,3c0.4,0.4,0.9,0.9,0.9,0.9l5.1,5.5l0,0c0,0,0,0,0.4,0l0.4,0.4
		c0,0,0,0.4,0.4,0.4l1.3-0.4h0.4c0.4,0,0.4,0,0.9-0.4c0.4,0,1.3-0.4,1.7-0.9c0.4-0.4,0.9-0.4,1.3-0.9c0,0,0,0,0.4,0l3.4-1.3l5.1-0.4
		c0.4,0,0.4,0,0.4,0h1.3l0,0h0.4h1.7c0.4,0,0.9,0,1.3,0c0.4,0,1.3,0,1.7,0c0.4,0,0.9,0.4,0.9,0.4c0.9,0.4,1.7,0.4,2.6,0.9h0.4l0,0
		l1.7,1.7l0,0c0,0,0,0,0.4,0l0,0l0,0c0.4,0,0.4,0.4,0.9,0.4s0.4,0,0.9,0.4c0.4,0,0.9,0.4,1.3,0.4v-0.4c0-0.9,0-2.1,0.4-3.4l0.4-1.3
		V384c0.4-0.4,0.4-0.9,0.9-1.3c0.4-0.4,0.4-0.9,0.4-1.3c0-0.4,0.4-0.9,0.4-1.3c0-0.9,0.4-1.7,0.4-3l0.4-0.9v0.4c0-0.4,0-0.9,0-0.9
		l1.7-3.4l0,0c0,0,0-0.4,0.4-0.4c0-0.4,0.4-0.4,0.4-0.9s0.4-1.3,0-1.3v-0.4h0.4c0,0,0,0,0-0.4l0.4-0.4c0-0.4,0.4-0.4,0.4-0.9
		c0,0,0,0,0-0.4c0,0,0,0,0-0.4c0.4,0,0.4,0,0.4-0.4v-0.4c0-0.4-0.4-0.4,0-0.4c0-0.4,0,0-0.4-0.4c0-0.4,0.4-0.4,0.9-0.4s0.4,0,0.4,0
		s0,0,0-0.4c0,0,0,0,0-0.4c0,0,0,0,0-0.4c0,0-0.4,0,0-0.4c0,0,0.4,0,0.4-0.4c0,0,0,0,0-0.4c0,0,0,0,0.4,0c0.4,0,0.4,0,0.4-0.4
		s0.4-0.4,0.4-0.9c0,0,0,0,0-0.4l0.4-0.4h-0.4l0,0l0,0l0,0h0.4v-0.4h0.4l0,0c0,0,0,0,0.4,0c0,0,0-0.4,0.4-0.4l0.4-0.4
		c0.4-0.4,0.9-0.9,1.3-1.3c0,0,0,0,0-0.4l2.6-1.7l0,0c0.4-0.4,1.3-0.9,1.7-1.3l0.4-0.4l2.6-2.6l0,0c0,0,0.4,0,0.4-0.4
		c0.4-0.4,0.9-0.4,1.3-0.9c0.4,0,0.9-0.4,0.9-0.9c0.4-0.4,0.9-0.4,1.3-0.9c0.4-0.4,0.9-0.4,1.3-0.9c0.4-0.4,0.9-0.4,1.3-0.9
		c0.4,0,0.4-0.4,0.9-0.4c0,0,0,0,0.4,0l2.6-1.7l0,0c0,0,0.4,0,0.4-0.4c0.4,0,0.4-0.4,0.9-0.9l1.3-1.3c0,0,0,0,0.4-0.4l0,0l0,0l0,0
		l0.9-0.9l0.4-0.4l0,0l0,0l0.4-0.4c0,0,0.4,0,0.4-0.4l0,0l0.9-0.4c0,0,0,0,0.4,0l0,0l3.4-1.3l0,0l0,0l0.4-0.4c0.9,0,4.7-1.3,5.9-1.7
		c1.3-0.4,5.9-0.9,7.2-1.3c1.3,0,1.7-0.4,2.1,0c0.4,0,2.1,0,2.1,0s0,0,0.4,0l0,0l3.8,0.9l0,0l4.7,2.6l0,0l0,0l0.4,0.9h0.4
		c0.9-1.7,2.6-4.7,3-5.1c0.9-0.9,3.4-4.7,3.8-5.1c0.4-0.4,1.3-2.1,1.3-2.6l0,0l0.4-0.9l0,0c0,0,0.4,0,0.4-0.4c0,0,4.2-4.2,4.7-4.7
		c0.4,0,3.8-4.2,4.7-5.1c0.9-0.4,3-2.6,3.8-3.4l1.7-1.3h0.4l0,0l0,0l0,0c0,0,3-3,4.2-3.8c1.3-0.9,3.4-1.7,4.2-2.1
		c0.4-0.4,1.7-1.3,2.1-1.3l0,0l1.7-0.4h0.4l0,0h0.4c0.4,0,0.9,0,0.9-0.4c0,0,7.6-4.2,8.9-2.1c0,0,1.3-6.4,1.7-8.9
		c0-2.1,0.4-6.4,0.4-7.2c0-0.9,0.4-1.3,0.4-3C614.4,283.7,614.4,280.7,614.4,279.9z"/>
</g>
</svg>
