<?xml version="1.0" encoding="utf-8"?>
<!-- Generator: Adobe Illustrator 18.1.1, SVG Export Plug-In . SVG Version: 6.00 Build 0)  -->
<svg version="1.1" id="Layer_1" xmlns="http://www.w3.org/2000/svg" xmlns:xlink="http://www.w3.org/1999/xlink" x="0px" y="0px"
	 viewBox="0 0 792 612" enable-background="new 0 0 792 612" xml:space="preserve">
<g>
	<g>
		<path fill="#CF6846" d="M361.2,306c0,5.1-1.6,9-5.2,9c-3.7,0-5.2-4-5.2-8.9c0-5.6,1.9-9,5.2-9C359.9,297.1,361.2,301.5,361.2,306
			 M365.1,305.9c0-2.7-1-5.1-2.6-6.6c-1.8-1.7-4.1-2.5-6.5-2.5c-2.5,0-4.7,0.9-6.4,2.5c-1.7,1.7-2.7,4-2.7,6.9c0,2.8,1.1,5,2.7,6.6
			c1.7,1.6,3.9,2.4,6.3,2.4c2.7,0,4.8-0.8,6.4-2.4C364.2,311.1,365.1,308.6,365.1,305.9"/>
		<path fill="#CF6846" d="M388.2,302.1c-1.2,0-2.5,0.7-3.6,2.2h-0.1v-1.9l-0.1-0.1l-5.1,0.3v0.2c0.5,0,1,0.1,1.4,0.4
			c0.4,0.3,0.7,0.9,0.7,1.4v8.7c0,0.6-0.2,1-0.7,1.2c-0.3,0.1-0.7,0.2-1.1,0.2c-0.4,0-0.7-0.1-1.1-0.2c-0.5-0.2-0.7-0.6-0.7-1.2
			l0-10.8l-0.1-0.2l-5.3,0.3v0.2c0.7,0,1.4,0.1,1.7,0.3c0.4,0.3,0.6,0.8,0.6,1.4v8c-0.3,0.5-1.1,1.6-2.8,1.6c-1.1,0-1.9-0.9-1.9-2.7
			v-8.9l-0.1-0.2l-5.1,0.3v0.2c0.5,0,1,0.2,1.4,0.4c0.5,0.3,0.7,0.8,0.7,1.4v6.2c0,2.5,1,4.4,3.5,4.4c2.3,0,3.3-1.1,4.3-2.1h0.1v1.6
			l0.2,0.2l4.8,0v0h7.3v-0.2c-0.5,0-1.3-0.1-1.8-0.2c-0.5-0.2-0.7-0.6-0.7-1.2v-8.3c0.3-0.5,1.4-1.7,2.6-1.7
			c-0.1,0.4-0.4,0.9-0.4,1.4c0,1,0.7,1.6,1.7,1.6c1.1,0,1.7-0.9,1.7-2C390.2,303,389.4,302.1,388.2,302.1z"/>
	</g>
	<g>
		<path fill="#CF6846" d="M445.1,311.5c-0.1-0.1-0.2,0-0.2,0c-1,1.8-2.2,2.6-4.1,2.6c-2.9,0-3.9-2.7-3.9-6v-0.6h7.9v-0.2
			c0-2.7-1.4-5.2-5.3-5.2c-3.8,0-6,3.1-6,6.5c0,1.2,0.2,2.3,0.7,3.3c-0.2,0.9-0.8,1.8-1.8,1.8c-1.5,0-1.9-1.2-1.9-2.5v-8.3h3.8
			c0.1,0,0.2-0.1,0.2-0.3c0-0.2-0.1-0.3-0.2-0.3h-3.8v-3.8h-3v3.8H426v0c-0.1,0-0.2,0.1-0.2,0.3c0,0.2,0.1,0.3,0.2,0.3v0h1.4v8.4
			c0,0,0,0.1,0,0.1c-0.1,1.3-0.5,2.4-1.4,2.4c-0.8,0-1.1-0.9-1.1-1.3c0-0.9,0.2-4,0.2-6.4c0-3.6-2.2-4-5-4c-2.2,0-4.7,1.2-4.7,2.9
			c0,0.8,0.4,1.6,1.5,1.6c1.2,0,1.9-0.8,1.9-1.4c0-0.7-0.4-1.7-0.4-2.2c0.2-0.3,0.7-0.7,1.6-0.7c1.9,0,1.9,2.3,1.9,3v1.9
			c-0.9,0.5-2.9,1-4.5,1.6c-1.4,0.5-2.7,1.2-2.7,3.5c0,0.1,0,0.3,0,0.4c-0.3,0.6-0.8,1.1-1.5,1.1c-1.5,0-1.9-1.2-1.9-2.5v-8.3h3.8v0
			c0.1,0,0.2-0.1,0.2-0.3c0-0.2-0.1-0.3-0.2-0.3v0h-3.8v-3.8h-3v3.8h-1.5v0c-0.1,0-0.2,0.1-0.2,0.3s0.1,0.3,0.2,0.3v0h1.4v8.4
			c0,2.4,1.1,3.8,3.5,3.8c1.6,0,2.6-0.8,3.2-1.9c0.4,1.2,1.6,1.9,3.1,1.9c1.8,0,3-0.8,3.9-1.8h0.1c0.5,1.1,1.2,1.8,2.7,1.8
			c1.6,0,2.6-0.8,2.9-2.4c0.4,1.6,1.5,2.4,3.3,2.4c2,0,3.1-1.2,3.5-2.8c1,1.7,2.7,2.9,5.3,2.9c2.5,0,4.4-1.5,5.3-3.5
			C445.1,311.7,445.2,311.6,445.1,311.5z M439.4,302.4c1.8,0,2.1,2.4,2.1,4.5l-4.6,0.1C437.1,304.3,438,302.4,439.4,302.4z
			 M421.8,312.9c-0.5,0.7-1.2,1.1-2.2,1.1c-1,0-1.6-0.8-1.6-2.4c0-2.4,1.5-3.2,3.9-4.1L421.8,312.9z"/>
		<path fill="#CF6846" d="M406.7,309.7c0-2.7-1.4-3.9-3.5-4.9c-1-0.4-2.3-0.8-3.4-1.3c-1.8-0.8-2.6-1.8-2.6-3.4c0-1.8,1.4-3.1,3-3.1
			c3,0,4.5,2.8,5.5,5.8h0.2l-0.1-5.4h-0.3l-0.8,0.5c-0.9-0.6-2.6-1.3-4.6-1.3c-3.4,0-5.6,2.2-5.6,5c0,2.2,1,3.9,3.1,4.8
			c1.2,0.5,2.2,0.8,3.5,1.3c1.7,0.6,2.8,1.8,2.8,3.4c0,1.9-1,3.6-3.5,3.6c-3,0-4.9-2.7-6.1-6H394l0.2,5.6h0.3l0.9-0.6
			c0.9,0.6,2.6,1.4,5.2,1.4C404.1,315.2,406.7,312.9,406.7,309.7"/>
	</g>
</g>
</svg>
