<?xml version="1.0" encoding="utf-8"?>
<!-- Generator: Adobe Illustrator 18.1.1, SVG Export Plug-In . SVG Version: 6.00 Build 0)  -->
<svg version="1.1" id="Layer_1" xmlns="http://www.w3.org/2000/svg" xmlns:xlink="http://www.w3.org/1999/xlink" x="0px" y="0px"
	 viewBox="0 0 792 612" enable-background="new 0 0 792 612" xml:space="preserve">
<g>
	<g>
		<g>
			<g>
				<path fill="#CF6846" d="M428.4,293.8h-0.1l0,0h-0.1l0,0c-0.1,0-0.2,0-0.3,0c-3.1,0.1-6.4,2.5-6.4,6.3c0,1.8,0.7,3.3,2.1,4.5
					c1.1,0.9,2.4,1.4,3.2,1.7h0.1c0.4,0.2,0.9,0.3,1.3,0.4c2.5,0.8,5.4,1.7,5.4,4.1c-0.1,2.2-2.5,3.8-5.8,3.8
					c-1.9,0-3.4-1.3-4.5-2.2c-0.7-0.6-1.1-0.9-1.6-0.9h-0.1l0,0l0,0l0,0l0,0c-0.3,0.1-0.4,0.3-0.5,0.4l0,0c-0.2,0.4,0,0.9,0.1,1
					c0.6,1.2,3.7,3.9,6.5,4c0.1,0,0.2,0,0.2,0c2.5,0,4.7-0.7,6.4-2c1.6-1.3,2.5-3,2.5-4.9c0-1.7-0.5-3.1-1.3-4.3
					c-0.9-1.2-2-1.8-2.8-2.2c-1-0.4-2-0.7-3-1.1c-0.6-0.2-1.2-0.4-1.9-0.6c-2-0.7-2.9-1.7-2.9-3.1c0-1.7,1.5-3,3.5-3
					c0.1,0,0.1,0,0.2,0c2.7,0,4.2,0.7,5.3,2.7c0.1,0.3,0.4,0.5,0.7,0.5c0.2,0,0.4-0.1,0.6-0.2l0,0l0,0l0,0l0,0l0,0l0,0
					c0.3-0.2,0.5-0.6,0.3-1l0,0l0,0c-0.6-1.3-1.4-2.3-2.4-2.9C431.6,294.1,430.2,293.8,428.4,293.8L428.4,293.8L428.4,293.8z"/>
			</g>
		</g>
		<g>
			<g>
				<path fill="#CF6846" d="M495,314.8c-2,0-3.9-0.8-5.3-2.3c-1.5-1.5-2.3-3.6-2.3-5.7c0-1.3,0.2-2.5,0.7-3.6c0.4-1,1-1.9,1.7-2.7
					c1.4-1.4,3.3-2.3,5.1-2.3c1.9,0,3.8,0.8,5.3,2.2c0.7,0.7,1.3,1.6,1.7,2.6c0.4,1,0.7,2.2,0.7,3.4c0,2.5-0.8,4.6-2.2,6.2
					C498.9,314,497,314.8,495,314.8z M495,300c-1.4,0-2.5,0.5-3.2,1.6s-1.1,2.7-1.1,4.9c0,3,0.7,6.5,4.2,6.5c0.5,0,1.6-0.1,2.5-1
					c1.1-1.1,1.6-2.9,1.6-5.4s-0.5-4.4-1.6-5.5C496.6,300.1,495.5,300,495,300z"/>
			</g>
		</g>
		<g>
			<g>
				<path fill="#CF6846" d="M441.9,314.5v-16.1h11.7v1.9h-8.5v5h6.8v1.8h-6.8v5.5h8.5v1.9L441.9,314.5L441.9,314.5z"/>
			</g>
		</g>
		<path fill="#CF6846" d="M464.9,298.9c-0.1-0.4-0.5-0.7-0.9-0.7h-0.1l-1.8,0.8l-5.7,15.5h2.3c0,0,1.6-4.7,1.8-5.3
			c0.1,0,0.3,0,0.5,0h0.1c1,0,2.8,0,4.3,0l1.8,5.3h3.2L464.9,298.9z M461.2,307.3c0.3-0.7,0.7-2,1.4-3.9l0,0c0.1-0.3,0.2-0.6,0.3-1
			l1.7,4.8h-3.4V307.3z"/>
		<path fill="#CF6846" d="M483.8,306.6c-0.6-0.8-1.5-1.3-2-1.6c-0.7-0.3-1.4-0.5-2.1-0.7c-0.4-0.1-0.9-0.3-1.3-0.4
			c-1.3-0.4-1.9-1.1-1.9-2c0-1,1-1.8,2.2-1.9h0.1c1.8,0,2.7,0.5,3.5,1.8c0.1,0.3,0.4,0.4,0.7,0.4c0.2,0,0.4-0.1,0.5-0.2h0.1h0.1
			c0.3-0.2,0.4-0.6,0.3-1l0,0c-0.4-0.9-1-1.6-1.8-2.1s-1.7-0.7-2.9-0.8h-0.6l0,0l0,0c-2.2,0.1-4.7,1.8-4.7,4.6
			c0,1.3,0.5,2.4,1.5,3.3c0.8,0.7,1.7,1,2.3,1.2l0,0c0.3,0.1,0.6,0.2,0.9,0.3c1.7,0.5,3.6,1.2,3.6,2.6s-1.6,2.4-3.8,2.4
			c-1.2,0-2.3-0.9-3-1.5c-0.5-0.4-0.8-0.7-1.2-0.7h-0.1l0,0h-0.1c-0.3,0.1-0.4,0.3-0.4,0.4l0,0c-0.2,0.3-0.1,0.6,0.1,0.9
			c0.4,0.8,2.5,2.8,4.7,2.9c0.1,0,0.1,0,0.2,0c1.8,0,3.4-0.5,4.5-1.4c1.2-0.9,1.8-2.2,1.8-3.6C484.8,308.5,484.5,307.4,483.8,306.6z
			"/>
		<g>
			<g>
				<path fill="#CF6846" d="M518.4,314.9c-0.4,0-0.7-0.1-0.9-0.5v-0.1c-0.3-0.6-7.5-10.3-8.3-11.4v11.6h-2v-16.1h2.1
					c0.4,0,0.7,0.1,0.9,0.4c0.2,0.2,6.5,9.1,7.2,10.1v-10.5h2c0,0,0,14.5,0,14.8l0,0v0.8C519.3,314.4,519.1,314.9,518.4,314.9z"/>
			</g>
		</g>
	</g>
	<g>
		<g>
			<g>
				<path fill="#CF6846" d="M278.5,293.8h-0.1l0,0h-0.1l0,0c-0.1,0-0.2,0-0.3,0c-3.1,0.1-6.4,2.5-6.4,6.3c0,1.8,0.7,3.3,2.1,4.5
					c1.1,0.9,2.4,1.4,3.2,1.7h0.1c0.4,0.2,0.9,0.3,1.3,0.4c2.5,0.8,5.4,1.7,5.4,4.1c0,2.2-2.5,3.8-5.8,3.8c-1.9,0-3.4-1.3-4.5-2.2
					c-0.7-0.6-1.1-0.9-1.6-0.9h-0.1l0,0l0,0l0,0l0,0c-0.3,0.1-0.4,0.3-0.5,0.4l0,0c-0.2,0.4,0,0.9,0.1,1c0.6,1.2,3.7,3.9,6.5,4
					c0.1,0,0.2,0,0.2,0c2.5,0,4.7-0.7,6.4-2c1.6-1.3,2.5-3,2.5-4.9c0-1.7-0.5-3.1-1.3-4.3c-0.9-1.2-2-1.8-2.8-2.2
					c-1-0.4-2-0.7-3-1.1c-0.6-0.2-1.2-0.4-1.9-0.6c-2-0.7-2.9-1.7-2.9-3.1c0-1.7,1.5-3,3.5-3c0.1,0,0.1,0,0.2,0
					c2.7,0,4.2,0.7,5.3,2.7c0.1,0.3,0.4,0.5,0.7,0.5c0.2,0,0.4-0.1,0.6-0.2l0,0l0,0l0,0l0,0l0,0l0,0c0.3-0.2,0.5-0.6,0.3-1l0,0l0,0
					c-0.6-1.3-1.4-2.3-2.4-2.9C281.6,294.1,280.2,293.8,278.5,293.8L278.5,293.8L278.5,293.8z"/>
			</g>
		</g>
		<g>
			<g>
				<path fill="#CF6846" d="M298,314.8c-2,0-3.9-0.8-5.3-2.3c-1.5-1.5-2.3-3.6-2.3-5.7c0-1.3,0.2-2.5,0.7-3.6c0.4-1,1-1.9,1.7-2.7
					c1.4-1.4,3.3-2.3,5.1-2.3c1.9,0,3.8,0.8,5.3,2.2c0.7,0.7,1.3,1.6,1.7,2.6c0.4,1,0.7,2.2,0.7,3.4c0,2.5-0.8,4.6-2.2,6.2
					C301.9,314,300,314.8,298,314.8z M298,300c-1.4,0-2.5,0.5-3.2,1.6s-1.1,2.7-1.1,4.9c0,3,0.7,6.5,4.2,6.5c0.5,0,1.6-0.1,2.5-1
					c1.1-1.1,1.6-2.9,1.6-5.4s-0.5-4.4-1.6-5.5C299.5,300.1,298.4,300,298,300z"/>
			</g>
		</g>
		<g>
			<g>
				<path fill="#CF6846" d="M316.3,314.9c-2,0-3.5-0.5-4.6-1.4c-1.2-1-1.8-2.4-1.8-4.3v-10.9h3.1v10.3c0,1.5,0.3,2.6,0.9,3.3
					c0.6,0.7,1.4,1,2.4,1c2.6,0,3.9-1.3,3.9-4.1v-10.5h2v10.5c0,1.8-0.5,3.3-1.5,4.3C319.7,314.4,318.2,314.9,316.3,314.9z"/>
			</g>
		</g>
		<g>
			<g>
				<path fill="#CF6846" d="M335,314.5h-3v-14.2c-0.1,0-6.1,0-6.1,0v-1.9h15.2v1.9c0,0-6,0-6.1,0V314.5z"/>
			</g>
		</g>
		<g>
			<g>
				<path fill="#CF6846" d="M357,314.6h-3v-7.3h-6.3v7.3h-3v-16.2h3v7h6.3v-7h3V314.6z"/>
			</g>
		</g>
		<g>
			<g>
				<path fill="#CF6846" d="M363.2,314.5v-16.1h11.7v1.9h-8.5v5h6.8v1.8h-6.8v5.5h8.5v1.9L363.2,314.5L363.2,314.5z"/>
			</g>
		</g>
		<g>
			<g>
				<path fill="#CF6846" d="M379.3,314.6v-16.2h4.9c1.9,0,3.4,0.4,4.5,1.1c1.1,0.8,1.7,1.9,1.7,3.4c0,1.2-0.6,2.3-1.7,3.1
					c-0.6,0.4-1.4,0.8-2.2,1c1.3,2,5.1,7.7,5.1,7.7h-4l-3.9-7.3h-1.3v7.3h-3.1V314.6z M382.5,305.3L382.5,305.3c0.3,0,0.5,0,0.7,0
					c0.5,0,1.1,0,1.4,0c1.7-0.2,2.5-1,2.5-2.4c0-1.5-0.4-2.4-2.5-2.6c-0.1,0-0.6,0-1.1,0c-0.2,0-0.4,0-0.6,0h-0.2
					c-0.1,0-0.2,0-0.2,0L382.5,305.3L382.5,305.3z"/>
			</g>
		</g>
		<g>
			<g>
				<path fill="#CF6846" d="M406.9,314.8c-0.4,0-0.7-0.1-0.9-0.5v-0.1c-0.3-0.6-7.5-10.3-8.3-11.4v11.6h-2v-16.1h2.1
					c0.4,0,0.7,0.1,0.9,0.4c0.2,0.2,6.5,9.1,7.2,10.1v-10.5h2c0,0,0,14.5,0,14.8l0,0v0.8C407.8,314.4,407.6,314.8,406.9,314.8z"/>
			</g>
		</g>
	</g>
</g>
</svg>
